<?xml version="1.0" encoding="UTF-8"?>
<svg id="Camada_1" data-name="Camada 1" xmlns="http://www.w3.org/2000/svg" viewBox="0 0 508 508">
	<defs>
		<style>
			.cls-1 {
			fill: #eee756;
			}

			.cls-2 {
			fill: #141414;
			}

			.cls-3 {
			fill: #fff;
			}
		</style>
	</defs>
	<circle class="cls-1" cx="254" cy="254" r="254"/>
	<path class="cls-2" d="M211.8,209.8h-113c-1,0-1.8-.8-1.8-1.8v-113c0-1,.8-1.8,1.8-1.8h113c1,0,1.8.8,1.8,1.8v113c0,1-.8,1.8-1.8,1.8Z"/>
	<rect class="cls-3" x="115.2" y="111.5" width="80.1" height="80.1"/>
	<g>
		<rect class="cls-2" x="130.3" y="126.5" width="50" height="50"/>
		<path class="cls-2" d="M211.8,414h-113c-1,0-1.8-.8-1.8-1.8v-113c0-1,.8-1.8,1.8-1.8h113c1,0,1.8.8,1.8,1.8v113c0,1-.8,1.8-1.8,1.8Z"/>
	</g>
	<rect class="cls-3" x="115.2" y="315.6" width="80.1" height="80.1"/>
	<g>
		<rect class="cls-2" x="130.3" y="330.7" width="50" height="50"/>
		<path class="cls-2" d="M416,209.8h-113c-1,0-1.8-.8-1.8-1.8v-113c0-1,.8-1.8,1.8-1.8h113c1,0,1.8.8,1.8,1.8v113c0,1-.8,1.8-1.8,1.8Z"/>
	</g>
	<rect class="cls-3" x="319.4" y="111.5" width="80.1" height="80.1"/>
	<g>
		<rect class="cls-2" x="334.5" y="126.5" width="50" height="50"/>
		<path class="cls-2" d="M416,414h-113c-1,0-1.8-.8-1.8-1.8v-113c0-1,.8-1.8,1.8-1.8h113c1,0,1.8.8,1.8,1.8v113c0,1-.8,1.8-1.8,1.8Z"/>
	</g>
	<rect class="cls-3" x="319.4" y="315.6" width="80.1" height="80.1"/>
	<g>
		<rect class="cls-2" x="334.5" y="330.7" width="50" height="50"/>
		<rect class="cls-2" x="233.5" y="93.2" width="14.5" height="31"/>
		<polygon class="cls-2" points="271.5 160.9 271.5 152.9 260.5 152.9 260.5 147.8 270.2 147.8 270.2 128.7 280.7 128.7 280.7 108.8 266.1 108.8 266.1 116.7 255.7 116.7 255.7 137.5 246 137.5 246 145.6 235.6 145.6 235.6 176.6 250 176.6 250 157.5 257 157.5 257 173 271.3 173 271.3 191.9 285.8 191.9 285.8 160.9 271.5 160.9"/>
		<rect class="cls-2" x="97.6" y="226.4" width="18.8" height="34.9"/>
		<rect class="cls-2" x="160.4" y="264.3" width="40.3" height="16.4"/>
		<polygon class="cls-2" points="206.6 230.7 180.6 230.7 180.6 238.9 142.3 238.9 142.3 255.1 182.7 255.1 182.7 247 195.6 247 195.6 261.3 221.7 261.3 221.7 245.1 206.6 245.1 206.6 230.7"/>
		<polygon class="cls-2" points="347.2 250.1 327 250.1 327 235.7 301 235.7 301 245.1 284.5 245.1 284.5 258.4 266 258.4 266 274.6 292 274.6 292 261.3 310.7 261.3 310.7 252 321.1 252 321.1 266.5 344.1 266.5 344.1 277.7 370.1 277.7 370.1 261.3 347.2 261.3 347.2 250.1"/>
		<rect class="cls-2" x="360.9" y="239.6" width="26" height="16.4"/>
		<rect class="cls-2" x="391" y="228.7" width="26" height="16.4"/>
		<rect class="cls-2" x="231.4" y="242" width="26" height="16.4"/>
		<rect class="cls-2" x="117.8" y="264.5" width="26" height="16.4"/>
		<rect class="cls-2" x="269.1" y="382.9" width="14.5" height="31.3"/>
		<polygon class="cls-2" points="271.1 361.5 281.6 361.5 281.6 330.2 267 330.2 267 349.2 260.1 349.2 260.1 333.8 245.6 333.8 245.6 318.6 246.2 318.6 246.2 302.4 223.6 302.4 223.6 318.6 231.1 318.6 231.1 345.9 245.5 345.9 245.5 354 256.6 354 256.6 359.2 246.8 359.2 246.8 390.3 261.4 390.3 261.4 369.5 271.1 369.5 271.1 361.5"/>
	</g>
</svg>