<?xml version="1.0" standalone="no"?>
<!DOCTYPE svg PUBLIC "-//W3C//DTD SVG 20010904//EN"
 "http://www.w3.org/TR/2001/REC-SVG-20010904/DTD/svg10.dtd">
<svg version="1.0" xmlns="http://www.w3.org/2000/svg"
 width="1268.000000pt" height="1268.000000pt" viewBox="0 0 1268.000000 1268.000000"
 preserveAspectRatio="xMidYMid meet">
<metadata>
Created by potrace 1.14, written by Peter Selinger 2001-2017
</metadata>
<g transform="translate(0.000000,1268.000000) scale(0.100000,-0.100000)"
fill="#000000" stroke="none">
<path d="M5888 12665 c-2 -1 -55 -6 -118 -9 -109 -7 -160 -11 -240 -21 -19 -3
-62 -7 -95 -11 -33 -3 -87 -9 -120 -14 -33 -5 -78 -12 -100 -15 -45 -7 -138
-23 -175 -30 -14 -3 -38 -8 -55 -11 -56 -10 -290 -63 -370 -84 -195 -51 -576
-175 -662 -216 -18 -8 -50 -21 -70 -28 -196 -69 -628 -290 -888 -455 -606
-382 -1124 -860 -1561 -1441 -115 -154 -345 -492 -338 -499 2 -2 12 3 21 11
25 22 305 207 383 253 393 232 764 404 1160 538 120 41 295 96 324 101 6 2 31
8 56 15 25 7 52 14 60 16 8 2 33 8 55 13 22 6 51 13 65 16 14 3 66 14 117 25
51 12 109 23 130 27 21 3 45 7 53 9 8 2 38 7 65 10 28 3 61 8 75 11 46 11 96
17 215 29 33 3 74 8 90 10 210 28 693 35 749 11 47 -20 76 -68 76 -128 0 -40
-6 -54 -42 -98 -142 -174 -201 -314 -225 -530 -19 -170 -7 -357 38 -587 33
-175 134 -499 204 -658 137 -310 173 -383 328 -665 60 -109 244 -402 344 -547
191 -277 452 -617 618 -803 23 -25 56 -63 74 -85 30 -35 165 -183 274 -299
196 -208 523 -523 682 -658 17 -14 64 -54 105 -90 60 -51 201 -165 255 -206 6
-4 33 -26 61 -47 27 -22 63 -49 78 -60 15 -11 48 -35 72 -53 99 -74 418 -283
559 -366 248 -147 593 -310 859 -405 60 -22 281 -86 326 -95 14 -2 57 -11 95
-19 202 -43 436 -53 612 -27 150 23 351 104 421 170 l22 21 1 -28 c1 -64 -3
-262 -6 -308 -2 -27 -7 -93 -10 -145 -7 -109 -12 -164 -21 -235 -4 -27 -8 -61
-9 -75 -12 -106 -17 -141 -25 -185 -8 -46 -14 -81 -26 -160 -3 -16 -9 -52 -15
-80 -6 -27 -12 -60 -15 -72 -2 -13 -6 -33 -8 -45 -27 -143 -117 -479 -179
-668 -329 -1003 -870 -1865 -1636 -2604 -66 -63 -83 -83 -63 -74 31 16 66 30
122 52 155 60 464 205 620 292 425 236 807 504 1175 827 150 132 581 574 634
650 8 12 21 28 29 36 104 107 479 626 567 786 6 11 34 58 62 105 132 218 323
605 428 865 93 230 244 679 270 803 2 9 15 62 29 118 14 55 30 122 36 150 5
27 16 83 25 124 14 64 35 180 50 270 2 14 9 63 15 110 6 47 13 94 15 106 1 11
6 52 10 90 3 38 8 84 11 102 2 19 6 64 9 100 2 37 7 103 11 147 10 139 13 812
3 855 -5 23 -12 79 -14 124 -6 107 -14 213 -20 256 -2 19 -7 64 -10 100 -4 36
-8 76 -10 90 -2 14 -11 75 -20 135 -13 92 -34 210 -60 345 -11 58 -18 91 -42
190 -14 58 -26 112 -28 120 -29 125 -126 433 -193 615 -34 93 -138 349 -152
373 -5 9 -36 73 -68 142 -193 414 -529 933 -829 1282 -171 198 -414 448 -593
610 -430 388 -985 759 -1514 1013 -131 63 -473 213 -501 220 -13 3 -42 14 -80
30 -57 24 -361 123 -500 163 -212 61 -471 122 -640 152 -33 5 -71 12 -85 15
-14 3 -45 8 -70 11 -25 3 -54 8 -65 10 -11 2 -40 6 -65 9 -25 3 -76 10 -115
15 -98 13 -148 19 -240 25 -44 4 -100 9 -125 11 -50 6 -727 14 -732 9z m1842
-2309 c14 -2 50 -7 80 -10 201 -23 525 -108 742 -195 349 -139 708 -352 937
-555 216 -192 335 -319 466 -499 41 -56 79 -107 85 -114 5 -7 10 -14 10 -16 0
-2 29 -52 65 -112 132 -221 261 -561 300 -790 31 -182 31 -180 42 -315 8 -104
9 -363 0 -422 -6 -46 -1 -50 88 -76 39 -11 210 -63 380 -116 171 -54 405 -126
520 -162 328 -102 333 -104 388 -141 113 -75 153 -149 151 -280 -1 -73 -29
-155 -85 -253 -48 -83 -50 -85 -369 -316 -232 -168 -280 -203 -390 -283 -309
-226 -704 -511 -705 -509 -2 2 -6 37 -9 78 -4 41 -9 89 -11 105 -5 31 -13 100
-21 170 -2 22 -9 63 -14 90 -5 28 -12 70 -15 95 -14 98 -78 398 -116 544 l-11
39 -26 -40 c-125 -187 -323 -308 -541 -330 -441 -45 -1022 196 -1699 706 -90
68 -162 124 -160 126 2 2 26 -1 53 -6 99 -19 121 -21 210 -21 116 -1 219 14
300 43 378 136 620 517 617 975 -1 60 -6 130 -11 155 -5 24 -13 59 -16 78 -17
99 -90 260 -158 351 -151 202 -357 316 -647 356 -45 7 -194 6 -240 -1 -175
-25 -349 -111 -489 -241 -60 -55 -171 -193 -171 -212 0 -6 -3 -12 -7 -14 -10
-4 -54 -94 -83 -169 -60 -151 -78 -402 -39 -552 10 -39 17 -73 15 -74 -2 -2
-25 25 -52 59 -26 35 -51 65 -54 68 -14 12 -174 236 -255 355 -155 231 -308
502 -380 675 -15 36 -33 79 -40 95 -34 74 -99 288 -111 360 -3 22 -8 43 -9 46
-2 3 -7 28 -10 55 -3 27 -8 61 -11 76 -9 48 -6 242 5 304 18 99 20 106 37 158
87 267 300 471 605 581 106 38 253 71 368 81 36 4 68 8 70 10 5 5 388 -4 421
-10z m114 -2049 c152 -62 239 -205 231 -379 -5 -119 -42 -206 -115 -272 -172
-155 -445 -130 -582 54 -89 119 -89 350 0 471 105 141 300 194 466 126z m548
-436 c112 -38 151 -222 68 -323 -83 -101 -256 -82 -316 34 -20 39 -26 127 -11
175 15 47 72 106 117 119 44 13 94 11 142 -5z"/>
<path d="M47 6843 c-5 -8 -11 -65 -24 -228 -16 -202 -8 -857 12 -1035 2 -19 7
-66 11 -105 10 -106 11 -114 24 -205 6 -47 13 -96 15 -110 1 -14 11 -70 20
-125 9 -55 19 -109 20 -120 2 -11 11 -56 20 -100 10 -44 21 -98 25 -120 13
-62 79 -326 90 -361 6 -17 12 -40 15 -50 26 -126 203 -620 290 -811 14 -29 25
-56 25 -59 0 -2 36 -78 80 -168 l79 -164 738 -2 c1515 -3 3789 -8 4398 -10
l630 -1 -35 -31 c-94 -82 -373 -179 -735 -254 -129 -26 -147 -30 -196 -38 -19
-3 -43 -7 -54 -10 -11 -2 -40 -7 -65 -10 -25 -3 -56 -8 -70 -11 -14 -3 -41 -7
-60 -10 -41 -5 -105 -15 -140 -21 -14 -2 -47 -6 -75 -9 -27 -4 -61 -8 -75 -10
-58 -9 -290 -35 -435 -49 -27 -3 -79 -8 -115 -12 -36 -3 -85 -8 -110 -9 -25
-1 -76 -5 -115 -9 -98 -8 -193 -15 -315 -22 -58 -3 -133 -7 -168 -9 -411 -25
-1376 -25 -1642 0 -19 2 -84 6 -144 10 -60 4 -116 8 -125 10 -9 1 -54 6 -100
10 -47 4 -92 8 -101 10 -9 2 -41 6 -71 10 -30 3 -65 8 -79 10 -14 3 -43 7 -65
10 -22 2 -51 7 -65 10 -13 2 -42 7 -65 10 -41 6 -295 61 -328 71 -34 10 357
-559 577 -841 60 -77 112 -142 115 -145 3 -3 31 -34 61 -70 71 -85 126 -144
231 -249 533 -536 1091 -777 1815 -785 146 -2 416 14 491 28 12 3 48 7 80 11
32 3 65 8 73 10 8 2 35 7 60 11 25 3 50 7 55 8 6 2 33 7 60 11 28 5 52 10 55
10 3 1 19 5 35 9 110 26 165 44 285 88 74 28 173 68 218 89 46 22 85 39 87 39
8 0 244 135 295 168 679 445 1102 1137 1215 1992 20 155 27 543 12 702 -44
463 -163 882 -364 1283 -307 611 -765 1077 -1333 1355 -41 20 -97 45 -125 55
-27 10 -54 22 -60 26 -15 10 -218 74 -310 97 -115 29 -283 58 -400 68 -16 2
-111 5 -210 8 -99 3 -229 8 -290 11 -60 3 -173 7 -250 10 -77 3 -189 7 -250
10 -60 2 -180 7 -265 10 -85 3 -204 8 -265 10 -60 3 -171 7 -245 10 -74 3
-185 7 -245 10 -61 2 -182 7 -270 10 -88 3 -205 7 -260 10 -55 2 -165 7 -245
10 -80 3 -194 7 -255 10 -60 3 -177 7 -260 10 -82 3 -199 8 -260 10 -60 3
-180 7 -265 10 -85 3 -190 8 -232 10 -42 3 -79 2 -81 -2z"/>
</g>
</svg>
