<?xml version="1.0" encoding="utf-8"?>
<!-- Generator: Adobe Illustrator 28.2.0, SVG Export Plug-In . SVG Version: 6.00 Build 0)  -->
<svg version="1.1" xmlns="http://www.w3.org/2000/svg" xmlns:xlink="http://www.w3.org/1999/xlink" x="0px" y="0px"
	 viewBox="0 0 840 984" style="enable-background:new 0 0 840 984;" xml:space="preserve">
<style type="text/css">
	.st0{fill:#141414;}
	.st1{fill:none;stroke:#141414;stroke-width:3;stroke-miterlimit:10;stroke-dasharray:20.0231,20.0231;}
	.st2{fill:none;stroke:#141414;stroke-width:3;stroke-miterlimit:10;stroke-dasharray:20.2292,20.2292;}
	.st3{fill:none;stroke:#141414;}
	.st4{fill:none;stroke:#FFFFFF;stroke-width:4;}
	.st5{fill:none;stroke:#141414;stroke-width:3;stroke-miterlimit:10;stroke-dasharray:19.8675,19.8675;}
	.st6{fill:#FFFFFF;}
	.st7{fill:#E7E46F;}
	.st8{fill:none;stroke:#FFFFFF;stroke-width:2;stroke-miterlimit:10;}
	.st9{fill:#EDE656;}
</style>
<g id="Layer_2">
</g>
<g id="Camada_1">
	<path class="st0" d="M217.7,258.3H77.1c-7.1,0-12.9-5.8-12.9-12.9v-2.6c0-7.1,5.8-12.9,12.9-12.9h140.6c7.1,0,12.9,5.8,12.9,12.9
		v2.6C230.6,252.5,224.8,258.3,217.7,258.3z"/>
	<path class="st0" d="M761.2,258.9H620.5c-7.1,0-12.9-5.8-12.9-12.9v-2.6c0-7.1,5.8-12.9,12.9-12.9h140.6c7.1,0,12.9,5.8,12.9,12.9
		v2.6C774,253.2,768.3,258.9,761.2,258.9z"/>
	<g>
		<g>
			<g>
				<path class="st1" d="M420,837.5c-80,0-155.2-31.2-211.8-87.7C151.7,693.2,120.5,618,120.5,538s31.2-155.2,87.7-211.8
					c56.6-56.6,131.8-87.7,211.8-87.7c80,0,155.2,31.2,211.8,87.7S719.5,458,719.5,538s-31.2,155.2-87.7,211.8
					C575.2,806.3,500,837.5,420,837.5z"/>
				<circle class="st2" cx="420" cy="538" r="270.5"/>
			</g>
		</g>
	</g>
	<path class="st0" d="M462,804.7l5.9,29.4C605,812.1,711,697.2,719.4,556l-29.9-3c-7,128-103.3,232.2-227.6,251.7H462z"/>
	<path class="st3" d="M228,940.5H72c-11.9,0-21.5,9.6-21.5,21.5s9.6,21.5,21.5,21.5h156c11.9,0,21.5-9.6,21.5-21.5
		S239.9,940.5,228,940.5z"/>
	<g>
		<path class="st0" d="M115.9,962.8h2.7v-2.4h-2.7v-7.8h2.9v-2.4h-5.7v23.6h5.7v-2.4h-3L115.9,962.8L115.9,962.8z"/>
		<path class="st0" d="M124.7,962.5v8c0,0.7-0.3,1.1-0.9,1.1s-0.9-0.4-0.9-1.1v-17c0-0.6,0.4-1.1,0.9-1.1s0.9,0.4,0.9,1.1v7.1h2.8
			v-7.1c0-2.3-1.2-3.5-3.6-3.5s-3.7,1.3-3.7,3.9v16.2c0,2.5,1.3,3.9,3.7,3.9s3.6-1.2,3.6-3.5v-8L124.7,962.5L124.7,962.5z"/>
		<path class="st0" d="M129.8,951c-0.6,0.7-1,1.6-1,2.9v16.2c0,2.5,1.3,3.9,3.7,3.9s3.8-1.4,3.8-3.9v-16.2c0-1.3-0.3-2.2-1-2.9
			c-0.6-0.7-1.6-1-2.8-1s-2.1,0.3-2.8,1H129.8z M133.4,970.5c0,0.7-0.4,1.1-0.9,1.1s-0.9-0.4-0.9-1.1v-17c0-0.7,0.3-1.1,0.9-1.1
			s0.9,0.4,0.9,1.1V970.5z"/>
		<path class="st0" d="M145,953.1c0-1.9-1.3-3.1-3.6-3.1s-2.1,0.3-2.7,0.9c-0.6,0.6-1,1.4-1,2.4v5.5c0,1.8,0.7,2.8,2.3,3.4l1.3,0.5
			c0.7,0.3,1,0.9,1,1.6v6.3c0,0.5-0.3,0.9-0.9,0.9s-0.9-0.3-0.9-1v-6.3h-2.8v6.5c0,2,1.4,3.2,3.7,3.2s2-0.3,2.7-0.9
			c0.7-0.6,1-1.5,1-2.6v-6.7c0-1-0.2-1.7-0.6-2.2c-0.4-0.5-1-0.9-1.8-1.3l-1.3-0.6c-0.6-0.3-0.9-0.8-0.9-1.5v-5.2
			c0-0.5,0.3-0.8,0.8-0.8s0.9,0.3,0.9,0.9v5.2h2.7v-5.4L145,953.1z"/>
		<path class="st0" d="M149.8,961.3l-0.3-3l-0.8-8.1h-3.1l2.9,17.5v6.1h2.8v-6.1l2.9-17.6h-3l-0.8,8.1l-0.3,3L149.8,961.3
			L149.8,961.3z"/>
		<path class="st0" d="M154.3,950.2v2.4h2.2v21.2h2.8v-21.2h2.2v-2.4H154.3z"/>
		<path class="st0" d="M165.1,962.8h2.7v-2.4h-2.7v-7.8h2.9v-2.4h-5.7v23.6h5.7v-2.4h-3v-8.6L165.1,962.8z"/>
		<path class="st0" d="M174.6,966.8l-0.3-5.2l-1-11.5h-3.9v23.6h2.5v-17.4c-0.1,0,0,0,0,0l1.3,17.4h2.8l1.4-17.3h0.2l-0.2,8.9v8.4
			h2.5v-23.6H176l-1,11.5l-0.3,5.2L174.6,966.8L174.6,966.8z"/>
	</g>
	<path class="st0" d="M102,868.5c-4.4,1.1-6.7,4.5-6.7,10v28.6c0,8,5.3,12.5,14.2,12.5s14.2-4.5,14.2-12.5v-28.6c0-5.6-2.4-8.9-7-10
		v-0.4c4.7-1.2,6.6-4.4,6.6-10.3v-22.1c0-7.2-5.1-11.8-13.8-11.8s-13.8,4.6-13.8,11.8v22.1c0,5.7,2.1,9.1,6.3,10.3
		C102,868.1,102,868.5,102,868.5z M112.6,860.2c0,2.9-1,4.3-3.1,4.3s-3.1-1.4-3.1-4.3v-23.3c0-2.5,1-3.8,3.1-3.8s3.1,1.3,3.1,3.8
		V860.2z M112.7,906.4c0,2.7-1.1,4-3.3,4s-3.3-1.3-3.3-4v-29.6c0-2.9,1.1-4.4,3.3-4.4s3.3,1.5,3.3,4.4V906.4z"/>
	<path class="st0" d="M142.7,823.9c-8.8,0-14,5-14,13.9v67.9c0,8.9,5.2,13.9,14,13.9s14-4.9,14-13.9v-67.9
		C156.7,828.9,151.6,823.9,142.7,823.9z M145.8,906.4c0,2.7-1,4.1-3.1,4.1s-3.1-1.4-3.1-4.1v-69.3c0-2.7,1-4,3.2-4s3,1.3,3,4
		L145.8,906.4L145.8,906.4z"/>
	<path class="st0" d="M165.7,826.3c-1.7,1.7-2.5,4-2.5,6.8v9.1c0,5.7,3.6,9.3,9.2,9.3s9.2-3.6,9.2-9.3v-9.1c0-2.9-0.8-5.1-2.5-6.8
		s-4-2.5-6.7-2.5S167.4,824.6,165.7,826.3z M163.6,919h10.6l28.6-95h-10.4L163.6,919L163.6,919z M173.9,842.3c0,1.2-0.5,1.8-1.5,1.8
		s-1.5-0.6-1.5-1.8V833c0-1.2,0.5-1.8,1.5-1.8s1.5,0.6,1.5,1.8V842.3z M194.3,892c-5.6,0-9.2,3.6-9.2,9.2v9.2c0,5.7,3.6,9.3,9.2,9.3
		s9.2-3.6,9.2-9.3v-9.2C203.5,895.5,200,892,194.3,892z M195.8,910.5c0,1.2-0.5,1.8-1.5,1.8s-1.5-0.6-1.5-1.8v-9.3
		c0-1.2,0.5-1.8,1.5-1.8s1.5,0.6,1.5,1.8V910.5z"/>
	<path class="st0" d="M167,786c0,9.4-7.6,17-17,17s-17-7.6-17-17s7.6-17,17-17S167,776.6,167,786z"/>
	<path class="st4" d="M155.1,780.4l-8.5,8.5 M145.9,781.1v8.5h8.5L145.9,781.1z"/>
	<path class="st0" d="M646.8,910.2c0-3.7,0.9-8,2.7-12.9s3.7-9.4,5.8-13.6c2.1-4.2,4-9,5.8-14.5s2.6-10.5,2.6-15.1v-18.4
		c0-3.7-1.2-6.6-3.7-8.7c-2.4-2.1-5.7-3.1-9.9-3.1c-9.2,0-14.3,4.9-14.3,12.9v23.3h10.4V837c0-2.4,1.4-3.9,3.4-3.9s3.1,1.3,3.1,3.8
		V857c0,3.3-0.9,7.2-2.7,11.7s-3.8,8.7-6,12.7s-4.2,9-6,15c-1.9,6-2.8,12-2.8,17.8v4.8h29v-8.8H646.8L646.8,910.2z"/>
	<path class="st0" d="M682.5,823.9c-8.8,0-14,5-14,13.9v67.9c0,8.9,5.2,13.9,14,13.9s14-4.9,14-13.9v-67.9
		C696.5,828.9,691.4,823.9,682.5,823.9z M685.6,906.4c0,2.7-1,4.1-3.1,4.1s-3.1-1.4-3.1-4.1v-69.3c0-2.7,1-4,3.2-4s3,1.3,3,4
		L685.6,906.4L685.6,906.4z"/>
	<path class="st0" d="M705.5,826.3c-1.7,1.7-2.5,4-2.5,6.8v9.1c0,5.7,3.6,9.3,9.2,9.3s9.2-3.6,9.2-9.3v-9.1c0-2.9-0.8-5.1-2.5-6.8
		s-4-2.5-6.7-2.5S707.2,824.6,705.5,826.3z M703.4,919H714l28.6-95h-10.4L703.4,919L703.4,919z M713.7,842.3c0,1.2-0.5,1.8-1.5,1.8
		s-1.5-0.6-1.5-1.8V833c0-1.2,0.5-1.8,1.5-1.8s1.5,0.6,1.5,1.8V842.3z M734.1,892c-5.6,0-9.2,3.6-9.2,9.2v9.2c0,5.7,3.6,9.3,9.2,9.3
		s9.2-3.6,9.2-9.3v-9.2C743.3,895.5,739.8,892,734.1,892z M735.6,910.5c0,1.2-0.5,1.8-1.5,1.8s-1.5-0.6-1.5-1.8v-9.3
		c0-1.2,0.5-1.8,1.5-1.8s1.5,0.6,1.5,1.8V910.5z"/>
	<path class="st0" d="M752.4,832.2c0.8-0.2,1.2-0.8,1.2-1.8v-2.5c0-0.6-0.2-1.1-0.6-1.5c-0.4-0.4-1-0.5-1.7-0.5h-3.2v13.2h3.2
		c0.8,0,1.4-0.2,1.9-0.6c0.4-0.4,0.7-1,0.7-1.7v-2.6c0-1-0.5-1.6-1.3-1.8l0,0L752.4,832.2z M750.8,827.6c0.4,0,0.6,0.2,0.6,0.7v2.5
		c0,0.4-0.2,0.7-0.6,0.7h-0.6v-3.8h0.6V827.6z M750.8,833.1c0.5,0,0.8,0.3,0.8,0.8v2.6c0,0.5-0.3,0.8-0.8,0.8h-0.6v-4.1L750.8,833.1
		L750.8,833.1z"/>
	<path class="st0" d="M758,825.8v10.8c0,0.5-0.2,0.7-0.6,0.7s-0.6-0.2-0.6-0.7v-10.8h-2.2v10.9c0,1.6,1,2.4,2.8,2.4s2.8-0.9,2.8-2.5
		v-10.9L758,825.8L758,825.8z"/>
	<path class="st0" d="M764,831.6l-0.2-1.7l-0.6-4.2h-2.4l2.2,9.7v3.6h2.2v-3.5l2.2-9.7H765l-0.6,4.2l-0.2,1.7L764,831.6L764,831.6z"
		/>
	<path class="st0" d="M772.3,832.2c0.8-0.2,1.2-0.8,1.2-1.8v-2.5c0-0.6-0.2-1.1-0.6-1.5c-0.4-0.4-1-0.5-1.7-0.5H768v13.2h3.2
		c0.8,0,1.4-0.2,1.9-0.6c0.4-0.4,0.7-1,0.7-1.7v-2.6c0-1-0.5-1.6-1.3-1.8l0,0L772.3,832.2z M770.8,827.6c0.4,0,0.6,0.2,0.6,0.7v2.5
		c0,0.4-0.2,0.7-0.6,0.7h-0.6v-3.8h0.6V827.6z M770.7,833.1c0.5,0,0.8,0.3,0.8,0.8v2.6c0,0.5-0.3,0.8-0.8,0.8h-0.6v-4.1L770.7,833.1
		L770.7,833.1z"/>
	<path class="st0" d="M780.4,839l-1.5-13.2h-3.4l-1.6,13.2h2.3l0.2-2.8h1.5l0.2,2.8H780.4z M776.9,829.8l0.2-2h0.2l0.2,2l0.3,4.6
		h-1.2l0.4-4.6H776.9z"/>
	<path class="st0" d="M784.3,832.8v3.7c0,0.5-0.2,0.8-0.6,0.8s-0.7-0.3-0.7-0.8v-8.3c0-0.5,0.3-0.8,0.7-0.8s0.6,0.3,0.6,0.8v3.3h2.2
		v-3.2c0-1.8-0.9-2.7-2.8-2.7s-2.9,1.1-2.9,3v7.4c0,2,1,3,2.9,3s2.8-0.9,2.8-2.7v-3.6L784.3,832.8L784.3,832.8z"/>
	<path class="st0" d="M791.8,832.1l1.7-6.4h-2.3l-1.4,5.8h-0.1v-5.8h-2.2v13.2h2.2v-6h0.2l1.4,6h2.4l-1.9-6.9L791.8,832.1z"/>
	<path class="st3" d="M740.5,940.5h-101c-11.9,0-21.5,9.6-21.5,21.5s9.6,21.5,21.5,21.5h101c11.9,0,21.5-9.6,21.5-21.5
		S752.4,940.5,740.5,940.5z"/>
	<g>
		<path class="st0" d="M672.8,950.2v2.4h2.2v21.2h2.8v-21.2h2.2v-2.4H672.8z"/>
		<path class="st0" d="M681.6,951c-0.6,0.7-1,1.6-1,2.9v16.2c0,2.5,1.3,3.9,3.7,3.9s3.8-1.4,3.8-3.9v-16.2c0-1.3-0.3-2.2-1-2.9
			c-0.6-0.7-1.6-1-2.8-1S682.2,950.3,681.6,951L681.6,951z M685.2,970.5c0,0.7-0.4,1.1-0.9,1.1s-0.9-0.4-0.9-1.1v-17
			c0-0.7,0.3-1.1,0.9-1.1s0.9,0.4,0.9,1.1V970.5z"/>
		<path class="st0" d="M695,961.5l2.5-11.4h-2.9l-2,10.4h-0.2v-10.4h-2.8v23.6h2.8v-11h0.2l2,11h3.1l-2.7-12.3L695,961.5z"/>
		<path class="st0" d="M701.3,962.8h2.7v-2.4h-2.7v-7.8h2.9v-2.4h-5.7v23.6h5.7v-2.4h-3L701.3,962.8L701.3,962.8z"/>
		<path class="st0" d="M710.5,963.9l-2.1-13.7h-2.8v23.6h2.6v-7.4l-0.3-7.3h0.2l2.3,14.6h2.7v-23.6h-2.6v6.5l0.3,7.3h-0.2
			L710.5,963.9z"/>
	</g>
	<path class="st0" d="M690,769c9.4,0,17,7.6,17,17s-7.6,17-17,17s-17-7.6-17-17S680.6,769,690,769z"/>
	<path class="st4" d="M684.4,780.9l8.5,8.5 M685.1,790.1h8.5v-8.5L685.1,790.1z"/>
	<g>
		<path class="st5" d="M88,8.5h134c42.8,0,77.5,34.7,77.5,77.5v0c0,42.8-34.7,77.5-77.5,77.5H88c-42.8,0-77.5-34.7-77.5-77.5v0
			C10.5,43.2,45.2,8.5,88,8.5z"/>
	</g>
	<path class="st0" d="M150,504c66.3,0,120-53.7,120-120s-53.7-120-120-120S30,317.7,30,384S83.7,504,150,504z"/>
	<path class="st6" d="M90,648c49.7,0,90-40.3,90-90s-40.3-90-90-90S0,508.3,0,558S40.3,648,90,648z"/>
	<path class="st7" d="M54.5,528.9l1-23.1h9.2l0.4-5.7H48.9l-1.4,31.6l6.7,1.4c0.3-1.2,1-1.8,2.1-1.8c1.3,0,2,0.7,2,2.1v20.3
		c0,1.4-0.7,2.2-2.1,2.2s-2.2-0.8-2.2-2.5V535h-6.8v18c0,5.8,3.3,8.9,9,8.9s9.2-3.1,9.2-8.9v-20.5c0-4.6-2-7-5.3-7
		c-2.4,0-4.2,1.1-5.3,3.3h-0.3L54.5,528.9z"/>
	<path class="st7" d="M70.8,501.2c-1.1,1.1-1.6,2.6-1.6,4.4v5.9c0,3.7,2.3,6.1,6,6.1s6-2.3,6-6.1v-5.9c0-1.9-0.5-3.3-1.6-4.4
		s-2.6-1.6-4.4-1.6S71.9,500.1,70.8,501.2L70.8,501.2z M69.4,561.5h6.9l18.6-61.8h-6.8C88.1,499.7,69.4,561.5,69.4,561.5z
		 M76.1,511.6c0,0.8-0.3,1.2-1,1.2s-1-0.4-1-1.2v-6c0-0.8,0.3-1.2,1-1.2s1,0.4,1,1.2V511.6L76.1,511.6z M89.4,543.9
		c-3.6,0-6,2.3-6,6v6c0,3.7,2.3,6,6,6s6-2.3,6-6v-6C95.4,546.2,93.1,543.9,89.4,543.9z M90.3,556c0,0.8-0.3,1.2-1,1.2s-1-0.4-1-1.2
		v-6.1c0-0.8,0.3-1.1,1-1.2c0.6,0,1,0.4,1,1.2V556z"/>
	<path class="st7" d="M109.8,500H99.6v43.5h5.1v-20.2h4.8v-4.4h-4.8v-14.4h5.1V500L109.8,500z"/>
	<path class="st7" d="M116.8,523.2h5v-4.4h-5v-14.4h5.3V500h-10.4v43.5h10.5V539h-5.4V523.2z"/>
	<path class="st7" d="M129.7,523.2h5v-4.4h-5v-14.4h5.3V500h-10.4v43.5h10.5V539h-5.4L129.7,523.2L129.7,523.2z"/>
	<path class="st7" d="M150,502c9.4,0,17-7.6,17-17s-7.6-17-17-17s-17,7.6-17,17S140.6,502,150,502z"/>
	<path class="st0" d="M146.6,478.2c-1.9,0-2.8,1.1-2.8,3v7.4c0,2,1,3,2.8,3s2.9-1,2.9-3v-7.4C149.5,479.2,148.5,478.2,146.6,478.2z
		 M147.3,489c0,0.5-0.3,0.8-0.6,0.8s-0.6-0.3-0.6-0.8v-8.3c0-0.5,0.3-0.8,0.6-0.8s0.6,0.3,0.6,0.8V489z M155.5,485.8
		c0.5-0.5,0.7-1.1,0.7-1.9v-3c0-1.7-0.9-2.6-2.7-2.6h-3v13.2h2.2v-4.8h0.8l0.6,4.8h2.2L155.5,485.8L155.5,485.8z M152.8,480.1h0.4
		c0.5,0,0.8,0.3,0.8,0.9v2.9c0,0.7-0.3,1-0.8,1h-0.4V480V480.1z"/>
	<g>
		<circle class="st6" cx="149.5" cy="188.9" r="4.5"/>
		<circle class="st6" cx="149.5" cy="217.5" r="4.5"/>
		<path class="st8" d="M149.5,190.1v27.4"/>
		<g>
			<path class="st0" d="M156.1,217c0-3.4-2.6-6.2-6-6.2v3c1.6,0,3,1.4,3,3.2H156.1z M148.9,210.8c-3.4,0-6,2.8-6,6.2h3
				c0-1.8,1.4-3.2,3-3.2V210.8z M142.9,218c0,3.4,2.6,6.2,6,6.2v-3c-1.6,0-3-1.4-3-3.2H142.9z M150.1,224.2c3.4,0,6-2.8,6-6.2h-3
				c0,1.8-1.4,3.2-3,3.2V224.2z"/>
		</g>
		<g>
			<path class="st0" d="M156.1,188.4c0-3.4-2.6-6.2-6-6.2v3c1.6,0,3,1.4,3,3.2H156.1z M148.9,182.2c-3.4,0-6,2.8-6,6.2h3
				c0-1.8,1.4-3.2,3-3.2V182.2z M142.9,189.4c0,3.4,2.6,6.2,6,6.2v-3c-1.6,0-3-1.4-3-3.2H142.9z M150.1,195.6c3.4,0,6-2.8,6-6.2h-3
				c0,1.8-1.4,3.2-3,3.2V195.6z"/>
		</g>
	</g>
	<g>
		<g>
			<circle class="st6" cx="338.2" cy="77" r="4.5"/>
			<g>
				<path class="st0" d="M338.7,83.6c3.4,0,6.2-2.6,6.2-6h-3c0,1.6-1.4,3-3.2,3V83.6z M344.9,76.4c0-3.4-2.8-6-6.2-6v3
					c1.8,0,3.2,1.4,3.2,3H344.9z M337.7,70.4c-3.4,0-6.2,2.6-6.2,6h3c0-1.6,1.4-3,3.2-3V70.4z M331.5,77.6c0,3.4,2.8,6,6.2,6v-3
					c-1.8,0-3.2-1.4-3.2-3H331.5z"/>
			</g>
		</g>
		<g>
			<circle class="st6" cx="505.1" cy="77" r="4.5"/>
			<g>
				<path class="st0" d="M505.6,83.6c3.4,0,6.2-2.6,6.2-6h-3c0,1.6-1.4,3-3.2,3V83.6z M511.8,76.4c0-3.4-2.8-6-6.2-6v3
					c1.8,0,3.2,1.4,3.2,3H511.8z M504.6,70.4c-3.4,0-6.2,2.6-6.2,6h3c0-1.6,1.4-3,3.2-3V70.4z M498.4,77.6c0,3.4,2.8,6,6.2,6v-3
					c-1.8,0-3.2-1.4-3.2-3H498.4z"/>
			</g>
		</g>
		<path class="st8" d="M505.1,77H337.3"/>
	</g>
	<g>
		<circle class="st6" cx="692.1" cy="188.9" r="4.5"/>
		<circle class="st6" cx="692.1" cy="217.5" r="4.5"/>
		<path class="st8" d="M692.1,190.1v27.4"/>
		<g>
			<path class="st0" d="M698.6,217c0-3.4-2.6-6.2-6-6.2v3c1.6,0,3,1.4,3,3.2H698.6z M691.5,210.8c-3.4,0-6,2.8-6,6.2h3
				c0-1.8,1.4-3.2,3-3.2V210.8z M685.5,218c0,3.4,2.6,6.2,6,6.2v-3c-1.6,0-3-1.4-3-3.2H685.5z M692.6,224.2c3.4,0,6-2.8,6-6.2h-3
				c0,1.8-1.4,3.2-3,3.2V224.2z"/>
		</g>
		<g>
			<path class="st0" d="M698.6,188.4c0-3.4-2.6-6.2-6-6.2v3c1.6,0,3,1.4,3,3.2H698.6z M691.5,182.2c-3.4,0-6,2.8-6,6.2h3
				c0-1.8,1.4-3.2,3-3.2V182.2z M685.5,189.4c0,3.4,2.6,6.2,6,6.2v-3c-1.6,0-3-1.4-3-3.2H685.5z M692.6,195.6c3.4,0,6-2.8,6-6.2h-3
				c0,1.8-1.4,3.2-3,3.2V195.6z"/>
		</g>
	</g>
	<path class="st0" d="M688,503c66.3,0,120-53.7,120-120s-53.7-120-120-120s-120,53.7-120,120S621.7,503,688,503z"/>
	<path class="st7" d="M75.4,582.5c0.8,0,1.4-0.3,1.9-0.8s0.7-1.2,0.7-2.1v-3.7c0-0.9-0.2-1.5-0.7-2s-1.1-0.7-2-0.7h-3v13.2h2.2v-4
		L75.4,582.5L75.4,582.5z M74.6,580.7v-5.5h0.5c0.5,0,0.8,0.3,0.8,0.9v3.7c0,0.6-0.3,0.9-0.8,0.9L74.6,580.7L74.6,580.7z"/>
	<path class="st7" d="M84.6,586.5l-1.5-13.2h-3.4l-1.6,13.2h2.3l0.2-2.8h1.5l0.2,2.8H84.6z M81.1,577.3l0.2-2h0.2l0.2,2l0.3,4.6
		h-1.2L81.1,577.3L81.1,577.3z"/>
	<path class="st7" d="M85.2,586.5h2.2v-13.2h-2.2V586.5z"/>
	<path class="st7" d="M88.6,573.3v13.2h2.9c0.8,0,1.5-0.2,2-0.7s0.7-1.2,0.7-2.1V576c0-1.9-1-2.8-2.7-2.8L88.6,573.3L88.6,573.3z
		 M92,583.9c0,0.5-0.3,0.8-0.7,0.8h-0.6v-9.5h0.6c0.4,0,0.6,0.3,0.6,0.8L92,583.9L92,583.9z"/>
	<path class="st7" d="M97.5,586.5h2.2v-13.2h-2.2V586.5z"/>
	<path class="st7" d="M104.6,580.5l-1.4-7.2H101v13.2h2.1v-7.7c-0.1,0,0,0,0,0l1.5,7.7h2.1v-13.2h-2.1V580.5
		C104.7,580.5,104.6,580.5,104.6,580.5z"/>
	<path class="st7" d="M47.5,603.5c-0.6-0.3-0.9-0.8-0.9-1.5v-5.2c0-0.5,0.3-0.8,0.8-0.8s0.9,0.3,0.9,0.9v5.2H51v-5.4
		c0-1.8-1.1-2.9-3.1-3.1V591h-1.1v2.6c-2,0.2-3.1,1.5-3.1,3.3v5.5c0,1.8,0.7,2.8,2.3,3.4l1.3,0.5c0.7,0.3,1,0.9,1,1.6v6.3
		c0,0.5-0.3,0.9-0.9,0.9s-0.9-0.3-0.9-1v-6.3h-2.8v6.5c0,1.8,1.1,2.9,3.1,3.2v2.4h1.1v-2.4c1,0,1.8-0.4,2.4-1
		c0.6-0.6,0.9-1.4,0.9-2.4v-6.7c0-1-0.2-1.7-0.6-2.2c-0.4-0.5-1-0.9-1.8-1.3l-1.3-0.6L47.5,603.5z"/>
	<path class="st7" d="M94.8,593.9v2.4H97v21.2h2.8v-21.2h2.2v-2.4H94.8z"/>
	<path class="st7" d="M103.6,594.7c-0.6,0.7-1,1.6-1,2.9v16.2c0,2.5,1.3,3.9,3.7,3.9s3.8-1.4,3.8-3.9v-16.2c0-1.3-0.3-2.2-1-2.9
		c-0.6-0.7-1.6-1-2.8-1s-2.1,0.3-2.8,1H103.6z M107.3,614.2c0,0.7-0.4,1.1-0.9,1.1s-0.9-0.4-0.9-1.1v-17c0-0.7,0.3-1.1,0.9-1.1
		s0.9,0.4,0.9,1.1V614.2z"/>
	<path class="st7" d="M117.1,605.2l2.5-11.4h-2.9l-2,10.4h-0.2v-10.4h-2.8v23.6h2.8v-11h0.2l2,11h3.1l-2.7-12.3V605.2z"/>
	<path class="st7" d="M123.4,606.5h2.7v-2.4h-2.7v-7.8h2.9v-2.4h-5.7v23.6h5.7v-2.4h-3L123.4,606.5L123.4,606.5z"/>
	<path class="st7" d="M132.6,607.6l-2.1-13.7h-2.8v23.6h2.6v-7.4l-0.3-7.3h0.2l2.3,14.6h2.6v-23.6h-2.6v6.5l0.3,7.3L132.6,607.6
		L132.6,607.6z"/>
	<g>
		<path class="st0" d="M540.5,9.5h289v153h-289V9.5z"/>
		<g>
			<path class="st9" d="M594.3,114V82.3h10.6v8.9l-2.1-2.5c1.1-2.3,2.7-4,4.7-5.1c2-1.2,4.3-1.8,6.8-1.8s5.4,0.7,7.5,2.2
				s3.6,3.7,4.3,6.9l-3.6-0.8c1.1-2.5,2.8-4.5,5.1-6s4.9-2.2,7.8-2.2s4.6,0.5,6.6,1.5c1.9,1,3.4,2.5,4.6,4.6c1.1,2.1,1.7,4.7,1.7,8
				v18.1h-11.1V97.8c0-2.3-0.4-3.9-1.3-4.9c-0.9-1-2-1.5-3.5-1.5s-2.1,0.3-2.9,0.8c-0.8,0.5-1.5,1.3-2,2.3s-0.7,2.4-0.7,4.1v15.6
				h-11.1V97.9c0-2.3-0.4-3.9-1.3-4.9c-0.8-1-2-1.5-3.5-1.5s-2,0.3-2.9,0.8s-1.5,1.3-2,2.3s-0.7,2.4-0.7,4.1v15.6h-11.1L594.3,114z"
				/>
			<path class="st9" d="M665.2,114.5c-2.5,0-4.6-0.4-6.4-1.3c-1.8-0.9-3.1-2-4-3.5s-1.4-3.1-1.4-4.9s0.5-3.6,1.5-5.1
				c1-1.4,2.5-2.5,4.6-3.3s4.7-1.1,8-1.1h7.5v5.8h-6c-1.8,0-3,0.3-3.8,0.8c-0.7,0.5-1.1,1.3-1.1,2.3s0.4,1.7,1.1,2.3
				c0.7,0.6,1.8,0.9,3,0.9s2.4-0.3,3.4-0.9s1.7-1.5,2.1-2.8l1.5,4.1c-0.6,2.2-1.7,3.8-3.4,4.9s-3.9,1.7-6.7,1.7L665.2,114.5z
				 M674.6,114v-5.9l-0.8-1.5V95.7c0-1.8-0.5-3.1-1.6-4.1s-2.8-1.4-5.1-1.4s-3.1,0.3-4.6,0.8c-1.6,0.5-2.9,1.1-4,1.9l-3.7-7.5
				c1.8-1.2,3.9-2.1,6.4-2.7c2.5-0.7,5-1,7.5-1c5.1,0,9.1,1.2,11.9,3.6c2.8,2.4,4.2,6.1,4.2,11.1V114H674.6L674.6,114z"/>
			<path class="st9" d="M692.1,114V80.3h11.1V114H692.1z M702.2,106.7l-0.6-12.2l13.2-14.2h12.3l-14.5,15.8l-6.3,6.2l-4.1,4.5
				L702.2,106.7z M714.8,114l-10.3-13.2l7.3-7.6l16,20.9h-13V114z"/>
			<path class="st9" d="M747.2,114.5c-3.8,0-7-0.7-9.8-2.1s-4.9-3.4-6.5-5.8c-1.5-2.5-2.3-5.3-2.3-8.4s0.7-6,2.2-8.5
				s3.6-4.4,6.2-5.8s5.6-2.1,9-2.1s5.9,0.7,8.5,2c2.5,1.3,4.6,3.2,6.1,5.6s2.3,5.4,2.3,8.9s0,0.8,0,1.3s0,1-0.1,1.4h-25v-5.8h19.1
				l-4.2,1.6c0-1.4-0.2-2.6-0.8-3.7s-1.3-1.9-2.3-2.5s-2.1-0.9-3.4-0.9s-2.5,0.3-3.6,0.9c-1,0.6-1.8,1.4-2.3,2.5s-0.8,2.3-0.8,3.8
				v1.7c0,1.6,0.3,2.9,1,4c0.6,1.1,1.6,2,2.8,2.6s2.6,0.9,4.3,0.9s2.9-0.2,4-0.7c1.1-0.4,2.2-1.1,3.3-2.1l5.8,6.1
				c-1.5,1.6-3.3,2.9-5.5,3.8s-4.8,1.3-7.8,1.3L747.2,114.5z"/>
			<path class="st9" d="M768,114V82.3h10.6v9.3L777,89c1-2.4,2.5-4.2,4.6-5.4c2.1-1.2,4.6-1.8,7.6-1.8v10c-0.5,0-1-0.1-1.3-0.1
				c-0.4,0-0.8,0-1.2,0c-2.3,0-4.1,0.6-5.5,1.8s-2.1,3.2-2.1,6V114C779.1,114,768,114,768,114z"/>
		</g>
	</g>
	<g>
		<path class="st0" d="M283.2,573.1V522h-20.1v-11.9h54.8V522h-20.1v51.1H283.2L283.2,573.1z"/>
		<path class="st0" d="M355.4,574.2c-5,0-9.6-0.8-13.8-2.4c-4.2-1.6-7.9-3.9-11-6.8c-3.1-2.9-5.5-6.4-7.2-10.3s-2.6-8.3-2.6-12.9
			s0.9-9.1,2.6-13s4.1-7.4,7.2-10.3c3.1-2.9,6.8-5.2,10.9-6.8c4.2-1.6,8.7-2.4,13.7-2.4s9.5,0.8,13.7,2.4c4.2,1.6,7.8,3.9,10.9,6.8
			c3.1,2.9,5.5,6.4,7.2,10.3s2.6,8.3,2.6,13s-0.9,9-2.6,13s-4.1,7.4-7.2,10.4c-3.1,2.9-6.8,5.2-10.9,6.8s-8.7,2.4-13.6,2.4
			L355.4,574.2z M355.3,561.9c2.8,0,5.4-0.5,7.8-1.5s4.5-2.4,6.2-4.2c1.8-1.8,3.2-4,4.2-6.4s1.5-5.1,1.5-8.1s-0.5-5.7-1.5-8.1
			c-1-2.4-2.4-4.6-4.2-6.4c-1.8-1.8-3.9-3.2-6.2-4.2c-2.4-1-5-1.5-7.8-1.5s-5.4,0.5-7.8,1.5s-4.5,2.4-6.2,4.2
			c-1.8,1.8-3.1,4-4.1,6.4s-1.5,5.1-1.5,8.1s0.5,5.7,1.5,8.1c1,2.4,2.4,4.6,4.1,6.4c1.8,1.8,3.8,3.2,6.2,4.2
			C349.9,561.4,352.5,561.9,355.3,561.9z"/>
		<path class="st0" d="M412.9,573.1V522h-20.1v-11.9h54.8V522h-20.1v51.1H412.9L412.9,573.1z"/>
		<path class="st0" d="M444,573.1l28-62.9h14.4l28.2,62.9h-15.3l-23.1-55.6h5.8l-23.1,55.6H444L444,573.1z M458.1,559.6l3.7-11.1
			h32.5l3.8,11.1H458.1z"/>
		<path class="st0" d="M521.1,573.1v-62.9h14.7v51.1h31.4v11.9h-46L521.1,573.1z"/>
	</g>
	<g>
		<path class="st0" d="M64.8,105.2c-3.4,0-6.4-0.7-9-2.1s-4.7-3.3-6.2-5.7c-1.5-2.5-2.2-5.2-2.2-8.3s0.7-5.9,2.2-8.3
			s3.6-4.3,6.2-5.7c2.6-1.4,5.6-2.1,9-2.1s6.2,0.7,8.7,2.1c2.5,1.4,4.2,3.3,5.3,5.9l-7,3.9c-0.9-1.5-1.9-2.6-3.1-3.2
			c-1.2-0.7-2.5-1-4-1s-2.9,0.3-4.1,1c-1.2,0.7-2.2,1.7-3,2.9c-0.7,1.3-1.1,2.8-1.1,4.7s0.4,3.4,1.1,4.7c0.7,1.3,1.7,2.3,3,3
			c1.2,0.7,2.6,1,4.1,1s2.8-0.3,4-1s2.2-1.8,3.1-3.3l7,3.9c-1.1,2.5-2.9,4.4-5.3,5.8c-2.5,1.4-5.4,2.1-8.7,2.1V105.2z"/>
		<path class="st0" d="M84.1,104.7V73.3h8.7v8.9l-1.2-2.6c0.9-2.2,2.4-3.9,4.5-5s4.6-1.7,7.5-1.7v8.5c-0.3,0-0.7-0.1-1-0.2
			c-0.3,0-0.7,0-1,0c-2.6,0-4.6,0.7-6.1,2.2c-1.5,1.4-2.3,3.7-2.3,6.7v14.8h-9.1V104.7z"/>
		<path class="st0" d="M124.2,105.2c-3.6,0-6.7-0.7-9.4-2.1c-2.7-1.4-4.8-3.3-6.2-5.7c-1.5-2.4-2.2-5.2-2.2-8.3s0.7-5.9,2.1-8.3
			c1.4-2.5,3.4-4.4,6-5.7c2.5-1.4,5.4-2.1,8.6-2.1s5.8,0.7,8.3,2s4.4,3.2,5.9,5.6c1.4,2.4,2.2,5.3,2.2,8.7s0,0.7,0,1.2
			c0,0.4,0,0.9-0.1,1.3H114v-5.3h20.7l-3.6,1.6c0-1.6-0.3-3.1-0.9-4.3c-0.7-1.2-1.6-2.1-2.7-2.8c-1.2-0.7-2.5-1-4.1-1
			s-2.9,0.3-4.1,1s-2.1,1.6-2.8,2.9s-1,2.7-1,4.3v1.4c0,1.8,0.4,3.3,1.2,4.6c0.8,1.3,1.8,2.3,3.2,2.9c1.4,0.7,3,1,4.9,1
			s3.1-0.3,4.3-0.8c1.3-0.5,2.4-1.3,3.5-2.3l4.8,5.3c-1.4,1.6-3.2,2.9-5.4,3.8c-2.2,0.9-4.7,1.3-7.5,1.3L124.2,105.2z"/>
		<path class="st0" d="M154.2,105.2c-2.4,0-4.5-0.4-6.2-1.3c-1.8-0.8-3.1-2-4.1-3.4s-1.4-3.1-1.4-4.8s0.5-3.5,1.4-4.9
			s2.4-2.5,4.3-3.3c2-0.8,4.6-1.2,7.8-1.2h8.3v5.3H157c-2.1,0-3.6,0.4-4.4,1.1s-1.2,1.6-1.2,2.6s0.5,2.1,1.4,2.8
			c0.9,0.7,2.1,1,3.7,1c1.6,0,2.9-0.4,4.2-1.1c1.3-0.7,2.1-1.8,2.6-3.2l1.4,4.3c-0.7,1.9-1.9,3.5-3.6,4.5
			C159.2,104.7,157.1,105.2,154.2,105.2z M163.9,104.7v-6.1l-0.6-1.3v-11c0-1.9-0.6-3.5-1.8-4.6c-1.2-1.1-3-1.6-5.5-1.6
			s-3.3,0.3-4.9,0.8s-3,1.2-4.2,2.1l-3.2-6.4c1.7-1.2,3.8-2.2,6.2-2.8c2.4-0.6,4.9-1,7.4-1c4.8,0,8.5,1.1,11.1,3.4s4,5.8,4,10.6
			v17.9H163.9z"/>
		<path class="st0" d="M176.9,80.3v-7h21.8v7H176.9z M193.5,105.2c-3.7,0-6.6-0.9-8.6-2.8c-2.1-1.9-3.1-4.7-3.1-8.4V66.5h9.2v27.4
			c0,1.3,0.3,2.4,1,3.1c0.7,0.7,1.6,1.1,2.8,1.1c1.2,0,2.7-0.4,3.7-1.2l2.4,6.4c-0.9,0.7-2,1.2-3.3,1.5
			C196.2,105.1,194.8,105.3,193.5,105.2L193.5,105.2z"/>
		<path class="st0" d="M219.9,105.2c-3.3,0-6.3-0.7-8.8-2.1c-2.6-1.4-4.6-3.3-6.1-5.7c-1.5-2.4-2.2-5.2-2.2-8.3s0.7-5.9,2.2-8.4
			c1.5-2.4,3.5-4.3,6.1-5.7c2.6-1.4,5.5-2.1,8.8-2.1c3.3,0,6.3,0.7,8.9,2.1s4.6,3.3,6.1,5.7c1.5,2.4,2.2,5.2,2.2,8.4
			s-0.7,5.9-2.2,8.3s-3.5,4.3-6.1,5.7C226.1,104.5,223.1,105.2,219.9,105.2z M219.9,97.7c1.6,0,2.9-0.3,4.1-1c1.2-0.7,2.1-1.7,2.9-3
			c0.7-1.3,1.1-2.9,1.1-4.7s-0.4-3.4-1.1-4.7c-0.7-1.3-1.7-2.3-2.9-2.9c-1.2-0.7-2.5-1-4.1-1s-2.9,0.3-4.1,1s-2.2,1.7-2.9,2.9
			c-0.7,1.3-1.1,2.8-1.1,4.7s0.4,3.3,1.1,4.7c0.7,1.3,1.7,2.3,2.9,3c1.2,0.7,2.5,1,4,1H219.9z"/>
		<path class="st0" d="M243.1,104.7V73.3h8.7v8.9l-1.2-2.6c0.9-2.2,2.4-3.9,4.5-5s4.6-1.7,7.5-1.7v8.5c-0.3,0-0.7-0.1-1-0.2
			c-0.3,0-0.7,0-1,0c-2.6,0-4.6,0.7-6.1,2.2c-1.5,1.4-2.3,3.7-2.3,6.7v14.8h-9.1V104.7z"/>
	</g>
	<g>
		<path class="st9" d="M80.2,249.4c-0.9,0-1.7-0.2-2.4-0.5c-0.7-0.4-1.2-0.9-1.6-1.5s-0.6-1.4-0.6-2.2s0.2-1.6,0.6-2.2
			s0.9-1.1,1.6-1.5s1.5-0.6,2.4-0.6s1.6,0.2,2.3,0.5c0.7,0.4,1.1,0.9,1.4,1.5l-1.8,1c-0.2-0.4-0.5-0.7-0.8-0.9
			c-0.3-0.2-0.7-0.3-1-0.3s-0.8,0-1.1,0.3c-0.3,0.2-0.6,0.4-0.8,0.8c-0.2,0.3-0.3,0.7-0.3,1.2s0,0.9,0.3,1.2
			c0.2,0.3,0.5,0.6,0.8,0.8s0.7,0.3,1.1,0.3s0.7,0,1-0.3c0.3-0.2,0.6-0.5,0.8-0.9l1.8,1c-0.3,0.7-0.8,1.2-1.4,1.5
			c-0.7,0.4-1.4,0.6-2.3,0.6V249.4z"/>
		<path class="st9" d="M87.9,249.4c-0.6,0-1.2-0.1-1.6-0.3c-0.5-0.2-0.8-0.5-1.1-0.9s-0.4-0.8-0.4-1.3s0.1-0.9,0.4-1.3
			c0.2-0.4,0.6-0.7,1.1-0.9c0.5-0.2,1.2-0.3,2.1-0.3h2.2v1.4h-1.9c-0.6,0-1,0-1.2,0.3c-0.2,0.2-0.3,0.4-0.3,0.7s0.1,0.6,0.4,0.7
			c0.2,0.2,0.6,0.3,1,0.3s0.8,0,1.1-0.3c0.3-0.2,0.6-0.5,0.7-0.8l0.4,1.1c-0.2,0.5-0.5,0.9-1,1.2C89.3,249.3,88.7,249.4,87.9,249.4
			L87.9,249.4z M90.4,249.3v-1.6l-0.2-0.4v-2.9c0-0.5-0.2-0.9-0.5-1.2c-0.3-0.3-0.8-0.4-1.4-0.4s-0.9,0-1.3,0.2
			c-0.4,0.1-0.8,0.3-1.1,0.6l-0.8-1.7c0.5-0.3,1-0.6,1.6-0.7c0.6-0.2,1.3-0.3,1.9-0.3c1.3,0,2.2,0.3,2.9,0.9c0.7,0.6,1,1.5,1,2.8
			v4.7H90.4L90.4,249.3z"/>
		<path class="st9" d="M94.8,249.3V241h2.3v2.2l-0.4-0.6c0.3-0.6,0.7-1,1.2-1.3s1.1-0.4,1.8-0.4s1.4,0.2,2,0.6s1,1,1.1,1.8l-0.8-0.2
			c0.3-0.6,0.7-1.1,1.3-1.5c0.6-0.4,1.3-0.6,2.1-0.6s1.2,0.1,1.7,0.4s0.9,0.7,1.2,1.2s0.4,1.2,0.4,2.1v4.7h-2.4V245
			c0-0.7-0.1-1.2-0.4-1.5s-0.7-0.5-1.1-0.5s-0.7,0-1,0.2s-0.5,0.4-0.6,0.7c-0.1,0.3-0.2,0.7-0.2,1.2v4.2h-2.4v-4.4
			c0-0.7-0.1-1.2-0.4-1.5s-0.7-0.5-1.2-0.5s-0.7,0-0.9,0.2c-0.3,0.2-0.5,0.4-0.6,0.7c-0.2,0.3-0.2,0.7-0.2,1.2v4.2L94.8,249.3
			L94.8,249.3z"/>
		<path class="st9" d="M110.9,252.3V241h2.3v4.2l0.1,2.4v4.7L110.9,252.3L110.9,252.3z M115.8,249.4c-0.7,0-1.3-0.2-1.8-0.5
			s-0.9-0.8-1.2-1.4c-0.3-0.6-0.4-1.4-0.4-2.4s0.1-1.8,0.4-2.4s0.7-1.1,1.2-1.4s1.1-0.5,1.9-0.5s1.5,0.2,2.1,0.5s1.1,0.8,1.5,1.5
			c0.4,0.6,0.5,1.4,0.5,2.2s-0.2,1.6-0.5,2.3c-0.4,0.6-0.9,1.1-1.5,1.5S116.7,249.3,115.8,249.4L115.8,249.4z M115.4,247.5
			c0.4,0,0.8,0,1.1-0.3s0.6-0.4,0.8-0.8c0.2-0.3,0.3-0.8,0.3-1.2s0-0.9-0.3-1.2c-0.2-0.3-0.4-0.6-0.8-0.8c-0.3-0.2-0.7-0.3-1.1-0.3
			s-0.8,0-1.1,0.3c-0.3,0.2-0.6,0.4-0.8,0.8c-0.2,0.3-0.3,0.7-0.3,1.2s0,0.9,0.3,1.2c0.2,0.3,0.4,0.6,0.8,0.8
			C114.6,247.4,115,247.5,115.4,247.5z"/>
		<path class="st9" d="M124,249.4c-0.6,0-1.2-0.1-1.6-0.3c-0.5-0.2-0.8-0.5-1.1-0.9s-0.4-0.8-0.4-1.3s0.1-0.9,0.4-1.3
			c0.2-0.4,0.6-0.7,1.1-0.9c0.5-0.2,1.2-0.3,2.1-0.3h2.2v1.4h-1.9c-0.6,0-1,0-1.2,0.3c-0.2,0.2-0.3,0.4-0.3,0.7s0.1,0.6,0.4,0.7
			c0.2,0.2,0.6,0.3,1,0.3s0.8,0,1.1-0.3c0.3-0.2,0.6-0.5,0.7-0.8l0.4,1.1c-0.2,0.5-0.5,0.9-1,1.2C125.4,249.3,124.8,249.4,124,249.4
			L124,249.4z M126.5,249.3v-1.6l-0.2-0.4v-2.9c0-0.5-0.2-0.9-0.5-1.2c-0.3-0.3-0.8-0.4-1.4-0.4s-0.9,0-1.3,0.2
			c-0.4,0.1-0.8,0.3-1.1,0.6l-0.8-1.7c0.5-0.3,1-0.6,1.6-0.7c0.6-0.2,1.3-0.3,1.9-0.3c1.3,0,2.2,0.3,2.9,0.9s1,1.5,1,2.8v4.7H126.5
			L126.5,249.3z"/>
		<path class="st9" d="M132.1,239.9c-0.5,0-0.8-0.1-1.1-0.4s-0.4-0.6-0.4-1s0.1-0.7,0.4-1c0.3-0.3,0.6-0.4,1.1-0.4s0.8,0.1,1.1,0.4
			c0.3,0.2,0.4,0.6,0.4,0.9s-0.1,0.7-0.4,1c-0.3,0.3-0.6,0.4-1.1,0.4V239.9z M130.9,249.3V241h2.4v8.3H130.9z"/>
		<path class="st9" d="M139,248.9c-0.7,0-1.4-0.2-2.1-0.5c-0.6-0.3-1.1-0.8-1.5-1.4s-0.6-1.3-0.6-2.1s0.2-1.5,0.6-2.1
			c0.4-0.6,0.9-1.1,1.5-1.4s1.3-0.5,2.1-0.5s1.3,0.1,1.9,0.4c0.5,0.3,0.9,0.7,1.2,1.3c0.3,0.6,0.4,1.3,0.4,2.3s-0.1,1.7-0.4,2.3
			c-0.3,0.6-0.7,1-1.2,1.3S139.7,248.9,139,248.9L139,248.9z M139.4,252.4c-0.8,0-1.5,0-2.3-0.3c-0.7-0.2-1.3-0.5-1.8-0.9l1-1.7
			c0.4,0.3,0.8,0.5,1.3,0.7s1.1,0.3,1.6,0.3c0.8,0,1.5-0.2,1.8-0.6c0.4-0.4,0.6-0.9,0.6-1.7V247l0.2-2.1v-2.1V241h2.3v6.9
			c0,1.5-0.4,2.7-1.2,3.4c-0.8,0.7-1.9,1.1-3.4,1.1L139.4,252.4z M139.5,247c0.4,0,0.8,0,1.1-0.3c0.3-0.2,0.6-0.4,0.8-0.7
			s0.3-0.7,0.3-1.1s0-0.8-0.3-1.1s-0.4-0.5-0.8-0.7s-0.7-0.2-1.1-0.2s-0.8,0-1.1,0.2s-0.6,0.4-0.8,0.7s-0.3,0.7-0.3,1.1
			s0,0.8,0.3,1.1s0.5,0.5,0.8,0.7S139.1,247,139.5,247z"/>
		<path class="st9" d="M146.3,249.3V241h2.3v2.3l-0.4-0.7c0.3-0.6,0.7-1,1.3-1.3s1.2-0.4,1.9-0.4s1.2,0.1,1.8,0.4
			c0.5,0.3,0.9,0.7,1.2,1.2s0.4,1.2,0.4,2.1v4.7h-2.4v-4.4c0-0.7-0.1-1.2-0.4-1.5c-0.3-0.3-0.7-0.5-1.2-0.5s-0.7,0-1,0.2
			s-0.5,0.4-0.7,0.7s-0.3,0.7-0.3,1.3v4.1h-2.4L146.3,249.3z"/>
		<path class="st9" d="M161.3,249.3v-11.4h2.4v4.8l-0.2,2.4v2.5v1.7h-2.3H161.3z M166.1,249.4c-0.7,0-1.3-0.2-1.9-0.5
			c-0.5-0.3-0.9-0.8-1.2-1.4s-0.4-1.4-0.4-2.4s0.1-1.8,0.4-2.4c0.3-0.6,0.7-1.1,1.2-1.4s1.1-0.5,1.8-0.5s1.5,0.2,2.1,0.5
			s1.1,0.8,1.5,1.5c0.4,0.6,0.5,1.4,0.5,2.2s-0.2,1.6-0.5,2.2c-0.4,0.6-0.9,1.1-1.5,1.5s-1.3,0.5-2.1,0.5L166.1,249.4z M165.7,247.5
			c0.4,0,0.8,0,1.1-0.3s0.6-0.4,0.8-0.8c0.2-0.3,0.3-0.8,0.3-1.2s0-0.9-0.3-1.2c-0.2-0.3-0.4-0.6-0.8-0.8c-0.3-0.2-0.7-0.3-1.1-0.3
			s-0.8,0-1.1,0.3c-0.3,0.2-0.6,0.4-0.8,0.8c-0.2,0.3-0.3,0.7-0.3,1.2s0,0.9,0.3,1.2c0.2,0.3,0.4,0.6,0.8,0.8
			C164.9,247.4,165.3,247.5,165.7,247.5z"/>
		<path class="st9" d="M175.4,249.4c-0.7,0-1.3-0.1-1.8-0.4s-0.9-0.7-1.2-1.2s-0.4-1.3-0.4-2.1V241h2.4v4.3c0,0.7,0.1,1.2,0.4,1.5
			c0.3,0.3,0.7,0.5,1.2,0.5s0.7,0,1-0.2s0.5-0.4,0.7-0.7c0.2-0.3,0.3-0.7,0.3-1.2v-4.1h2.4v8.3h-2.3v-2.3l0.4,0.7
			c-0.3,0.6-0.7,1-1.2,1.3S176.2,249.5,175.4,249.4L175.4,249.4z"/>
		<path class="st9" d="M186,249.4c-0.8,0-1.5-0.2-2.1-0.5c-0.6-0.4-1.1-0.8-1.5-1.5c-0.4-0.6-0.5-1.4-0.5-2.2s0.2-1.6,0.5-2.2
			c0.4-0.6,0.9-1.1,1.5-1.5s1.3-0.5,2.1-0.5s1.3,0.2,1.8,0.5s0.9,0.8,1.2,1.4s0.4,1.4,0.4,2.4s-0.1,1.8-0.4,2.4
			c-0.3,0.6-0.7,1.1-1.2,1.4s-1.1,0.5-1.9,0.5L186,249.4z M186.4,247.5c0.4,0,0.8,0,1.1-0.3c0.3-0.2,0.6-0.4,0.8-0.8
			c0.2-0.3,0.3-0.8,0.3-1.2s0-0.9-0.3-1.2c-0.2-0.3-0.4-0.6-0.8-0.8c-0.3-0.2-0.7-0.3-1.1-0.3s-0.7,0-1.1,0.3
			c-0.3,0.2-0.6,0.4-0.8,0.8c-0.2,0.3-0.3,0.7-0.3,1.2s0,0.9,0.3,1.2c0.2,0.3,0.4,0.6,0.8,0.8C185.6,247.4,186,247.5,186.4,247.5z
			 M188.6,249.3v-4.2l-0.1-2.4v-4.8h2.4v11.4H188.6L188.6,249.3z"/>
		<path class="st9" d="M196.6,248.9c-0.7,0-1.4-0.2-2.1-0.5c-0.6-0.3-1.1-0.8-1.5-1.4s-0.6-1.3-0.6-2.1s0.2-1.5,0.6-2.1
			c0.4-0.6,0.9-1.1,1.5-1.4s1.3-0.5,2.1-0.5s1.3,0.1,1.9,0.4c0.5,0.3,0.9,0.7,1.2,1.3c0.3,0.6,0.4,1.3,0.4,2.3s-0.1,1.7-0.4,2.3
			c-0.3,0.6-0.7,1-1.2,1.3S197.3,248.9,196.6,248.9L196.6,248.9z M197,252.4c-0.8,0-1.5,0-2.3-0.3c-0.7-0.2-1.3-0.5-1.8-0.9l1-1.7
			c0.4,0.3,0.8,0.5,1.3,0.7s1.1,0.3,1.6,0.3c0.8,0,1.5-0.2,1.8-0.6c0.4-0.4,0.6-0.9,0.6-1.7V247l0.2-2.1v-2.1V241h2.3v6.9
			c0,1.5-0.4,2.7-1.2,3.4c-0.8,0.7-1.9,1.1-3.4,1.1L197,252.4z M197.1,247c0.4,0,0.8,0,1.1-0.3c0.3-0.2,0.6-0.4,0.8-0.7
			s0.3-0.7,0.3-1.1s0-0.8-0.3-1.1s-0.4-0.5-0.8-0.7s-0.7-0.2-1.1-0.2s-0.8,0-1.1,0.2s-0.6,0.4-0.8,0.7s-0.3,0.7-0.3,1.1
			s0,0.8,0.3,1.1s0.5,0.5,0.8,0.7S196.7,247,197.1,247z"/>
		<path class="st9" d="M207.9,249.4c-0.9,0-1.8-0.2-2.5-0.6s-1.3-0.9-1.6-1.5c-0.4-0.6-0.6-1.4-0.6-2.2s0.2-1.6,0.6-2.2
			c0.4-0.6,0.9-1.2,1.6-1.5c0.7-0.4,1.4-0.5,2.3-0.5s1.5,0.2,2.2,0.5s1.2,0.8,1.5,1.5c0.4,0.6,0.6,1.4,0.6,2.3s0,0.2,0,0.3
			c0,0.1,0,0.2,0,0.3h-6.7v-1.4h5.5l-0.9,0.4c0-0.4,0-0.8-0.2-1.1c-0.2-0.3-0.4-0.6-0.7-0.7s-0.7-0.3-1.1-0.3s-0.8,0-1.1,0.3
			c-0.3,0.2-0.6,0.4-0.7,0.8c-0.2,0.3-0.3,0.7-0.3,1.1v0.4c0,0.5,0.1,0.9,0.3,1.2s0.5,0.6,0.8,0.8c0.4,0.2,0.8,0.3,1.3,0.3
			s0.8,0,1.1-0.2c0.3-0.1,0.6-0.3,0.9-0.6l1.3,1.4c-0.4,0.4-0.9,0.8-1.4,1c-0.6,0.2-1.2,0.3-2,0.3L207.9,249.4z"/>
		<path class="st9" d="M212.6,242.9v-1.8h5.7v1.8H212.6z M216.9,249.4c-1,0-1.7-0.2-2.3-0.7c-0.5-0.5-0.8-1.2-0.8-2.2v-7.3h2.4v7.2
			c0,0.3,0,0.6,0.3,0.8c0.2,0.2,0.4,0.3,0.7,0.3s0.7-0.1,1-0.3l0.6,1.7c-0.2,0.2-0.5,0.3-0.9,0.4s-0.7,0.1-1.1,0.1H216.9z"/>
	</g>
	<g>
		<path class="st9" d="M663.5,251.3V240h2.3v4.2l0.1,2.4v4.7L663.5,251.3L663.5,251.3z M668.4,248.4c-0.7,0-1.3-0.2-1.8-0.5
			s-0.9-0.8-1.2-1.4s-0.4-1.4-0.4-2.4s0.1-1.8,0.4-2.4c0.3-0.6,0.7-1.1,1.2-1.4s1.1-0.5,1.9-0.5s1.5,0.2,2.1,0.5s1.1,0.8,1.5,1.5
			c0.4,0.6,0.5,1.4,0.5,2.2s-0.2,1.6-0.5,2.3c-0.4,0.6-0.9,1.1-1.5,1.5s-1.3,0.5-2.1,0.5L668.4,248.4z M668,246.5
			c0.4,0,0.8,0,1.1-0.3s0.6-0.4,0.8-0.8c0.2-0.3,0.3-0.8,0.3-1.2s0-0.9-0.3-1.2c-0.2-0.3-0.4-0.6-0.8-0.8c-0.3-0.2-0.7-0.3-1.1-0.3
			s-0.8,0-1.1,0.3c-0.3,0.2-0.6,0.4-0.8,0.8c-0.2,0.3-0.3,0.7-0.3,1.2s0,0.9,0.3,1.2c0.2,0.3,0.4,0.6,0.8,0.8
			C667.2,246.4,667.6,246.5,668,246.5z"/>
		<path class="st9" d="M676.6,248.4c-0.6,0-1.2-0.1-1.6-0.3c-0.5-0.2-0.8-0.5-1.1-0.9s-0.4-0.8-0.4-1.3s0.1-0.9,0.4-1.3
			c0.2-0.4,0.6-0.7,1.1-0.9c0.5-0.2,1.2-0.3,2.1-0.3h2.2v1.4h-1.9c-0.6,0-1,0-1.2,0.3c-0.2,0.2-0.3,0.4-0.3,0.7s0.1,0.6,0.4,0.7
			c0.2,0.2,0.6,0.3,1,0.3s0.8,0,1.1-0.3c0.3-0.2,0.6-0.5,0.7-0.8l0.4,1.1c-0.2,0.5-0.5,0.9-1,1.2c-0.5,0.3-1.1,0.4-1.8,0.4
			L676.6,248.4z M679.1,248.3v-1.6l-0.2-0.4v-2.9c0-0.5-0.2-0.9-0.5-1.2c-0.3-0.3-0.8-0.4-1.4-0.4s-0.9,0-1.3,0.2
			c-0.4,0.1-0.8,0.3-1.1,0.6l-0.8-1.7c0.5-0.3,1-0.6,1.6-0.7c0.6-0.2,1.3-0.3,1.9-0.3c1.3,0,2.2,0.3,2.9,0.9s1,1.5,1,2.8v4.7H679.1
			L679.1,248.3z"/>
		<path class="st9" d="M684.4,251.4c-0.4,0-0.8,0-1.3-0.2c-0.4-0.1-0.8-0.3-1-0.6l0.9-1.7c0.2,0.2,0.4,0.3,0.6,0.4
			c0.2,0,0.5,0.1,0.7,0.1s0.6,0,0.8-0.2s0.4-0.4,0.5-0.8l0.4-1l0.2-0.3l3-7.1h2.3l-3.7,8.8c-0.3,0.7-0.6,1.2-0.9,1.6
			c-0.3,0.4-0.7,0.6-1.1,0.8S684.9,251.4,684.4,251.4L684.4,251.4z M685.8,248.6l-3.7-8.6h2.5l2.9,6.9L685.8,248.6z"/>
		<path class="st9" d="M696.2,248.4c-0.9,0-1.6-0.2-2.3-0.6s-1.2-0.9-1.6-1.5c-0.4-0.6-0.6-1.4-0.6-2.2s0.2-1.6,0.6-2.2
			s0.9-1.1,1.6-1.5c0.7-0.4,1.5-0.5,2.3-0.5s1.7,0.2,2.4,0.5c0.7,0.4,1.2,0.9,1.6,1.5s0.6,1.4,0.6,2.2s-0.2,1.6-0.6,2.2
			c-0.4,0.6-0.9,1.1-1.6,1.5S697.1,248.4,696.2,248.4z M696.2,246.5c0.4,0,0.8,0,1.1-0.3s0.6-0.4,0.8-0.8c0.2-0.3,0.3-0.8,0.3-1.2
			s0-0.9-0.3-1.2c-0.2-0.3-0.4-0.6-0.8-0.8c-0.3-0.2-0.7-0.3-1.1-0.3s-0.8,0-1.1,0.3c-0.3,0.2-0.6,0.4-0.8,0.8
			c-0.2,0.3-0.3,0.7-0.3,1.2s0,0.9,0.3,1.2c0.2,0.3,0.4,0.6,0.8,0.8C695.4,246.4,695.8,246.5,696.2,246.5z"/>
		<path class="st9" d="M705.9,248.4c-0.7,0-1.3-0.1-1.8-0.4s-0.9-0.7-1.2-1.2s-0.4-1.3-0.4-2.1V240h2.4v4.3c0,0.7,0.1,1.2,0.4,1.5
			c0.3,0.3,0.7,0.5,1.2,0.5s0.7,0,1-0.2s0.5-0.4,0.7-0.7c0.2-0.3,0.3-0.7,0.3-1.2v-4.1h2.4v8.3h-2.3v-2.3l0.4,0.7
			c-0.3,0.6-0.7,1-1.2,1.3s-1.1,0.4-1.8,0.4L705.9,248.4z"/>
		<path class="st9" d="M712,241.9v-1.8h5.7v1.8H712z M716.3,248.4c-1,0-1.7-0.2-2.3-0.7c-0.5-0.5-0.8-1.2-0.8-2.2v-7.3h2.4v7.2
			c0,0.3,0,0.6,0.3,0.8c0.2,0.2,0.4,0.3,0.7,0.3s0.7-0.1,1-0.3l0.6,1.7c-0.2,0.2-0.5,0.3-0.9,0.4S716.6,248.4,716.3,248.4
			L716.3,248.4z"/>
	</g>
	<g>
		<path class="st7" d="M105.1,328c-0.2,2.2-0.8,3.9-1.6,5.1c-0.9,1.3-2.4,2-4.7,2.2v4.5h4v49.7h7V328L105.1,328L105.1,328z"/>
		<path class="st7" d="M122.8,327.7c-5.7,0-9.1,3.2-9.1,9v44.1c0,5.8,3.4,9,9.1,9s9.1-3.2,9.1-9v-44.1
			C131.9,330.9,128.6,327.7,122.8,327.7z M124.8,381.3c0,1.8-0.7,2.7-2,2.7s-2-0.9-2-2.7v-45c0-1.7,0.7-2.6,2.1-2.6s2,0.9,2,2.6
			L124.8,381.3L124.8,381.3z"/>
		<path class="st7" d="M137.8,329.2c-1.1,1.1-1.6,2.6-1.6,4.4v5.9c0,3.7,2.3,6.1,6,6.1s6-2.3,6-6.1v-5.9c0-1.9-0.5-3.3-1.6-4.4
			s-2.6-1.6-4.4-1.6S138.9,328.1,137.8,329.2L137.8,329.2z M136.4,389.5h6.9l18.6-61.8h-6.8L136.4,389.5z M143.1,339.6
			c0,0.8-0.3,1.2-1,1.2s-1-0.4-1-1.2v-6c0-0.8,0.3-1.2,1-1.2s1,0.4,1,1.2V339.6z M156.4,371.9c-3.7,0-6,2.3-6,6v6c0,3.7,2.3,6,6,6
			s6-2.3,6-6v-6C162.4,374.2,160.1,371.9,156.4,371.9z M157.3,384c0,0.8-0.3,1.2-1,1.2s-1-0.4-1-1.2v-6.1c0-0.8,0.3-1.1,1-1.2
			c0.6,0,1,0.4,1,1.2V384z"/>
		<path class="st7" d="M176.8,328h-10.2v43.5h5.1v-20.2h4.8v-4.4h-4.8v-14.4h5.1v-4.4L176.8,328z"/>
		<path class="st7" d="M183.8,351.2h5v-4.4h-5v-14.4h5.3V328h-10.4v43.5h10.5V367h-5.4L183.8,351.2L183.8,351.2z"/>
		<path class="st7" d="M196.7,351.2h5v-4.4h-5v-14.4h5.3V328h-10.4v43.5h10.5V367h-5.4L196.7,351.2L196.7,351.2z"/>
		<path class="st7" d="M135.4,410.5c0.8,0,1.4-0.3,1.9-0.8s0.7-1.2,0.7-2.1v-3.7c0-0.9-0.2-1.5-0.7-2s-1.1-0.7-2-0.7h-3v13.2h2.2v-4
			h0.8L135.4,410.5z M134.6,408.7v-5.5h0.5c0.5,0,0.8,0.3,0.8,0.9v3.7c0,0.6-0.3,0.9-0.8,0.9H134.6z"/>
		<path class="st7" d="M144.6,414.5l-1.5-13.2h-3.4l-1.6,13.2h2.3l0.2-2.8h1.5l0.2,2.8H144.6z M141.1,405.3l0.2-2h0.2l0.2,2l0.3,4.6
			h-1.2L141.1,405.3L141.1,405.3z"/>
		<path class="st7" d="M145.2,414.5h2.2v-13.2h-2.2V414.5z"/>
		<path class="st7" d="M148.6,401.3v13.2h2.9c0.8,0,1.5-0.2,2-0.7s0.7-1.2,0.7-2.1V404c0-1.9-1-2.8-2.7-2.8h-2.9V401.3z M152,411.9
			c0,0.5-0.3,0.8-0.7,0.8h-0.6v-9.5h0.6c0.4,0,0.6,0.3,0.6,0.8L152,411.9L152,411.9z"/>
		<path class="st7" d="M157.5,414.5h2.2v-13.2h-2.2V414.5z"/>
		<path class="st7" d="M164.6,408.4l-1.4-7.2H161v13.2h2.1v-7.7c-0.1,0,0,0,0,0l1.5,7.7h2.1v-13.2h-2.1L164.6,408.4
			C164.7,408.4,164.6,408.4,164.6,408.4L164.6,408.4z"/>
		<path class="st7" d="M643.1,327c-0.2,2.2-0.8,3.9-1.6,5.1c-0.9,1.3-2.4,2-4.7,2.2v4.5h4v49.7h7V327L643.1,327L643.1,327z"/>
		<path class="st7" d="M660.8,326.7c-5.7,0-9.1,3.2-9.1,9v44.1c0,5.8,3.4,9,9.1,9s9.1-3.2,9.1-9v-44.1
			C669.9,329.9,666.6,326.7,660.8,326.7z M662.8,380.3c0,1.8-0.7,2.7-2,2.7s-2-0.9-2-2.7v-45c0-1.7,0.7-2.6,2.1-2.6s2,0.9,2,2.6
			L662.8,380.3L662.8,380.3z"/>
		<path class="st7" d="M675.8,328.2c-1.1,1.1-1.6,2.6-1.6,4.4v5.9c0,3.7,2.3,6.1,6,6.1s6-2.3,6-6.1v-5.9c0-1.9-0.5-3.3-1.6-4.4
			s-2.6-1.6-4.4-1.6s-3.3,0.5-4.3,1.6H675.8z M674.4,388.5h6.9l18.6-61.8h-6.8L674.4,388.5z M681.1,338.6c0,0.8-0.3,1.2-1,1.2
			s-1-0.4-1-1.2v-6c0-0.8,0.3-1.2,1-1.2s1,0.4,1,1.2V338.6z M694.3,370.9c-3.6,0-6,2.3-6,6v6c0,3.7,2.3,6,6,6s6-2.3,6-6v-6
			C700.3,373.2,698,370.9,694.3,370.9z M695.3,383c0,0.8-0.3,1.2-1,1.2s-1-0.4-1-1.2v-6.1c0-0.8,0.3-1.1,1-1.2c0.6,0,1,0.4,1,1.2
			V383z"/>
		<path class="st7" d="M714.8,327h-10.2v43.5h5.1v-20.2h4.8v-4.4h-4.8v-14.4h5.1v-4.4L714.8,327z"/>
		<path class="st7" d="M721.8,350.2h5v-4.4h-5v-14.4h5.3V327h-10.4v43.5h10.5V366h-5.4L721.8,350.2L721.8,350.2z"/>
		<path class="st7" d="M734.7,350.2h5v-4.4h-5v-14.4h5.3V327h-10.4v43.5h10.5V366h-5.4L734.7,350.2L734.7,350.2z"/>
		<path class="st7" d="M661.3,433.2v8c0,0.7-0.3,1.1-0.9,1.1s-0.9-0.4-0.9-1.1v-17c0-0.6,0.4-1.1,0.9-1.1s0.9,0.4,0.9,1.1v7.1h2.8
			v-7.1c0-2.3-1.2-3.5-3.6-3.5s-3.7,1.3-3.7,3.9v16.2c0,2.5,1.3,3.9,3.7,3.9s3.6-1.2,3.6-3.5v-8H661.3z"/>
		<path class="st7" d="M673.2,444.5l-2.1-23.6h-4.3l-2.1,23.6h2.9l0.3-5.7h2.1l0.4,5.7H673.2L673.2,444.5z M668.5,427.3l0.3-3.6h0.2
			l0.3,3.6l0.6,9.1H668L668.5,427.3L668.5,427.3z"/>
		<path class="st7" d="M681.1,423.8c0-1.9-1.3-3.1-3.6-3.1s-2.1,0.3-2.7,0.9c-0.6,0.6-1,1.4-1,2.4v5.5c0,1.8,0.7,2.8,2.3,3.4
			l1.3,0.5c0.7,0.3,1,0.9,1,1.6v6.3c0,0.5-0.3,0.9-0.9,0.9s-0.9-0.3-0.9-1v-6.3h-2.8v6.5c0,2,1.4,3.2,3.7,3.2s2-0.3,2.7-0.9
			s1-1.5,1-2.6v-6.7c0-1-0.2-1.7-0.6-2.2c-0.4-0.5-1-0.9-1.8-1.3l-1.3-0.6c-0.6-0.3-0.9-0.8-0.9-1.5v-5.2c0-0.5,0.3-0.8,0.8-0.8
			s0.9,0.3,0.9,0.9v5.2h2.7v-5.4L681.1,423.8z"/>
		<path class="st7" d="M687.2,431.1h-1.7v-10.2h-2.8v23.6h2.8v-11h1.7v11h2.8v-23.6h-2.8V431.1z"/>
		<path class="st7" d="M695.6,421.7c-0.6,0.7-1,1.6-1,2.9v16.2c0,2.5,1.3,3.9,3.7,3.9s3.8-1.4,3.8-3.9v-16.2c0-1.3-0.3-2.2-1-2.9
			c-0.6-0.7-1.6-1-2.8-1S696.2,421,695.6,421.7L695.6,421.7z M699.3,441.2c0,0.7-0.4,1.1-0.9,1.1s-0.9-0.4-0.9-1.1v-17
			c0-0.7,0.3-1.1,0.9-1.1s0.9,0.4,0.9,1.1V441.2z"/>
		<path class="st7" d="M708.1,420.9v20.4c0,0.7-0.3,1-0.8,1s-0.9-0.3-0.9-1v-20.4h-2.8v20.6c0,2.1,1.3,3.2,3.6,3.2s3.7-1.1,3.7-3.3
			v-20.5L708.1,420.9L708.1,420.9z"/>
		<path class="st7" d="M711.8,420.9v2.4h2.2v21.2h2.8v-21.2h2.2v-2.4H711.8z"/>
		<g>
			<path class="st7" d="M142.6,445.4l-2.6-22.6h-5.8l-2.7,22.6h3.8l0.4-4.9h2.6l0.4,4.9H142.6L142.6,445.4z M136.6,429.7l0.3-3.3
				h0.3l0.3,3.3l0.6,7.9H136L136.6,429.7L136.6,429.7z"/>
			<path class="st7" d="M144.3,422.9v22.6h5c1.4,0,2.5-0.4,3.3-1.2c0.8-0.8,1.2-2,1.2-3.5v-13.1c0-3.2-1.7-4.8-4.6-4.8h-5H144.3z
				 M150.1,440.9c0,0.8-0.4,1.3-1.1,1.3h-0.9V426h1c0.7,0,1.1,0.5,1.1,1.3v13.6L150.1,440.9z"/>
			<path class="st7" d="M165.7,445.4l-2.6-22.6h-5.8l-2.7,22.6h3.8l0.4-4.9h2.6l0.4,4.9H165.7L165.7,445.4z M159.7,429.7l0.3-3.3
				h0.3l0.3,3.3l0.6,7.9h-2.1L159.7,429.7L159.7,429.7z"/>
		</g>
		<g>
			<path class="st7" d="M673.7,409.7l-0.2-2.9l-0.5-6.4h-2.2v13.1h1.4v-9.7l0,0l0.7,9.7h1.6l0.8-9.6h0.1v4.9l-0.1,4.7h1.4v-13.1
				h-2.2l-0.6,6.4L673.7,409.7L673.7,409.7z"/>
			<path class="st7" d="M687.7,406.8l1.4-6.3h-1.6l-1.1,5.8h-0.1v-5.8h-1.5v13.2h1.5v-6.1h0.1l1.1,6.1h1.7l-1.5-6.8L687.7,406.8z"/>
			<path class="st7" d="M698.1,407.8c0.4-0.4,0.5-0.8,0.5-1.4v-4.1c0-1.3-0.7-1.9-2-1.9h-2.1v13.3h1.6v-5.1h0.7l0.5,5.1h1.6
				l-0.7-5.8L698.1,407.8z M696,401.7h0.3c0.4,0,0.6,0.2,0.6,0.7v4c0,0.5-0.2,0.8-0.6,0.8H696V401.7z"/>
			<path class="st7" d="M703.3,402c0-1.1-0.7-1.7-2-1.7s-1.2,0.2-1.5,0.5c-0.4,0.3-0.5,0.8-0.5,1.3v3.1c0,1,0.4,1.6,1.3,1.9l0.7,0.3
				c0.4,0.2,0.6,0.5,0.6,0.9v3.5c0,0.3-0.2,0.5-0.5,0.5s-0.5-0.2-0.5-0.5v-3.5h-1.5v3.6c0,1.1,0.8,1.8,2.1,1.8s1.1-0.2,1.5-0.5
				s0.6-0.8,0.6-1.4v-3.7c0-0.5-0.1-0.9-0.3-1.2c-0.2-0.3-0.6-0.5-1-0.7l-0.7-0.3c-0.3-0.2-0.5-0.4-0.5-0.8v-2.9
				c0-0.3,0.2-0.4,0.5-0.4s0.5,0.2,0.5,0.5v2.9h1.5v-3L703.3,402z"/>
			<path class="st7" d="M683.8,413.6l-1.5-13.1h-3.4l-1.6,13.1h2.2l0.2-2.8h1.5l0.2,2.8H683.8L683.8,413.6z M680.3,404.4l0.2-1.9
				h0.1l0.2,1.9l0.3,4.6h-1.2L680.3,404.4z"/>
			<path class="st7" d="M691.9,407.5h1.5v-1.3h-1.5v-4.4h1.6v-1.3h-3.2v13.2h3.2v-1.4h-1.6V407.5L691.9,407.5z"/>
		</g>
	</g>
	<g>
		<path class="st7" d="M57.8,610.4l-0.3-5.3l-1-11.7h-4v24h2.6v-17.6c-0.1,0,0,0,0,0l1.3,17.6h2.8l1.4-17.6h0.2l-0.2,9v8.6h2.6v-24
			h-4l-1,11.7L57.8,610.4h-0.1H57.8z"/>
		<path class="st7" d="M70.6,605.1l2.5-11.5h-2.9l-2,10.6H68v-10.6h-2.8v24H68v-11.2h0.2l2.1,11.2h3.2L70.6,605.1L70.6,605.1z"/>
		<path class="st7" d="M81.7,607.1c0.6-0.6,1-1.5,1-2.6v-7.4c0-2.3-1.3-3.5-3.6-3.5h-3.8v24h2.8v-9.2h1.2l0.8,9.2h2.8
			C82.9,617.6,81.7,607.1,81.7,607.1z M78,596.1h0.6c0.8,0,1.2,0.4,1.2,1.4v7.2c0,0.9-0.4,1.4-1.2,1.4H78v-9.9V596.1z"/>
		<path class="st7" d="M91.2,596.7c0-1.9-1.3-3.1-3.6-3.1s-2.1,0.3-2.8,0.9c-0.6,0.6-1,1.4-1,2.4v5.6c0,1.8,0.7,2.8,2.3,3.4l1.3,0.6
			c0.7,0.3,1,0.9,1,1.6v6.3c0,0.5-0.3,0.9-0.9,0.9s-0.9-0.3-0.9-1V608h-2.8v6.5c0,2,1.4,3.2,3.7,3.2s2-0.3,2.7-0.9
			c0.7-0.6,1-1.5,1-2.6v-6.7c0-1-0.2-1.7-0.6-2.2s-1-0.9-1.8-1.3l-1.3-0.6c-0.6-0.3-0.9-0.8-0.9-1.5v-5.2c0-0.5,0.3-0.8,0.8-0.8
			s0.9,0.3,0.9,0.9v5.3h2.8v-5.4L91.2,596.7z"/>
	</g>
</g>
</svg>
