<?xml version="1.0" encoding="utf-8"?>
<!-- Generator: Adobe Illustrator 28.2.0, SVG Export Plug-In . SVG Version: 6.00 Build 0)  -->
<svg version="1.1" id="Layer_1" xmlns="http://www.w3.org/2000/svg" xmlns:xlink="http://www.w3.org/1999/xlink" x="0px" y="0px"
	 viewBox="0 0 453 989" style="enable-background:new 0 0 453 989;" xml:space="preserve">
<style type="text/css">
	.st0{fill:none;stroke:#141414;}
	.st1{fill:#141414;}
	.st2{fill:none;stroke:#FFFFFF;stroke-width:4;}
	.st3{fill:#FFFFFF;}
	.st4{fill:#EDE656;}
	.st5{fill:#E7E46F;}
</style>
<g>
	<path class="st0" d="M144.5,941.9H41.2c-7.9,0-14.2,6.4-14.2,14.2s6.4,14.2,14.2,14.2h103.3c7.9,0,14.2-6.4,14.2-14.2
		S152.4,941.9,144.5,941.9z"/>
	<g>
		<path class="st1" d="M70.3,956.7h1.8v-1.6h-1.8V950h1.9v-1.6h-3.8V964h3.8v-1.6h-2L70.3,956.7L70.3,956.7z"/>
		<path class="st1" d="M76.1,956.5v5.3c0,0.5-0.2,0.7-0.6,0.7s-0.6-0.3-0.6-0.7v-11.3c0-0.4,0.3-0.7,0.6-0.7c0.3,0,0.6,0.3,0.6,0.7
			v4.7H78v-4.7c0-1.5-0.8-2.3-2.4-2.3s-2.4,0.9-2.4,2.6v10.7c0,1.7,0.9,2.6,2.4,2.6c1.6,0,2.4-0.8,2.4-2.3v-5.3L76.1,956.5
			L76.1,956.5z"/>
		<path class="st1" d="M79.5,948.9c-0.4,0.5-0.7,1.1-0.7,1.9v10.7c0,1.7,0.9,2.6,2.4,2.6c1.6,0,2.5-0.9,2.5-2.6v-10.7
			c0-0.9-0.2-1.5-0.7-1.9c-0.4-0.5-1.1-0.7-1.9-0.7C80.5,948.2,79.9,948.4,79.5,948.9L79.5,948.9z M81.9,961.8
			c0,0.5-0.3,0.7-0.6,0.7c-0.3,0-0.6-0.3-0.6-0.7v-11.3c0-0.5,0.2-0.7,0.6-0.7s0.6,0.3,0.6,0.7V961.8z"/>
		<path class="st1" d="M89.6,950.3c0-1.3-0.9-2.1-2.4-2.1c-1.5,0-1.4,0.2-1.8,0.6c-0.4,0.4-0.7,0.9-0.7,1.6v3.6
			c0,1.2,0.5,1.9,1.5,2.3l0.9,0.3c0.5,0.2,0.7,0.6,0.7,1.1v4.2c0,0.3-0.2,0.6-0.6,0.6s-0.6-0.2-0.6-0.7v-4.2h-1.9v4.3
			c0,1.3,0.9,2.1,2.4,2.1s1.3-0.2,1.8-0.6c0.5-0.4,0.7-1,0.7-1.7v-4.4c0-0.7-0.1-1.1-0.4-1.5c-0.3-0.3-0.7-0.6-1.2-0.9l-0.9-0.4
			c-0.4-0.2-0.6-0.5-0.6-1v-3.4c0-0.3,0.2-0.5,0.5-0.5s0.6,0.2,0.6,0.6v3.4h1.8v-3.6L89.6,950.3z"/>
		<path class="st1" d="M92.7,955.7l-0.2-2l-0.5-5.4H90l1.9,11.6v4h1.9v-4l1.9-11.6h-2l-0.5,5.4l-0.2,2L92.7,955.7L92.7,955.7z"/>
		<path class="st1" d="M95.7,948.4v1.6h1.5v14H99v-14h1.5v-1.6H95.7z"/>
		<path class="st1" d="M102.9,956.7h1.8v-1.6h-1.8V950h1.9v-1.6H101V964h3.8v-1.6h-2L102.9,956.7L102.9,956.7z"/>
		<path class="st1" d="M109.2,959.4l-0.2-3.4l-0.7-7.6h-2.6v15.6h1.7v-11.5c-0.1,0,0,0,0,0l0.9,11.5h1.9l0.9-11.5h0.1l-0.1,5.9v5.6
			h1.7v-15.6h-2.6l-0.7,7.6L109.2,959.4L109.2,959.4L109.2,959.4z"/>
	</g>
	<path class="st1" d="M61.1,894.3c-2.9,0.7-4.4,3-4.4,6.6v18.9c0,5.3,3.5,8.3,9.4,8.3s9.4-3,9.4-8.3v-18.9c0-3.7-1.6-5.9-4.6-6.6
		V894c3.1-0.8,4.4-2.9,4.4-6.8v-14.6c0-4.8-3.4-7.8-9.1-7.8s-9.1,3-9.1,7.8v14.6c0,3.8,1.4,6,4.2,6.8
		C61.1,894,61.1,894.3,61.1,894.3z M68.1,888.8c0,1.9-0.7,2.8-2.1,2.8s-2.1-0.9-2.1-2.8v-15.4c0-1.7,0.7-2.5,2.1-2.5
		s2.1,0.9,2.1,2.5V888.8z M68.2,919.4c0,1.8-0.7,2.6-2.2,2.6c-1.5,0-2.2-0.9-2.2-2.6v-19.6c0-1.9,0.7-2.9,2.2-2.9
		c1.5,0,2.2,1,2.2,2.9V919.4z"/>
	<path class="st1" d="M88,864.8c-5.8,0-9.3,3.3-9.3,9.2v44.9c0,5.9,3.4,9.2,9.3,9.2s9.3-3.2,9.3-9.2V874
		C97.3,868.1,93.9,864.8,88,864.8z M90.1,919.4c0,1.8-0.7,2.7-2.1,2.7s-2.1-0.9-2.1-2.7v-45.9c0-1.8,0.7-2.6,2.1-2.6
		c1.5,0,2,0.9,2,2.6L90.1,919.4L90.1,919.4z"/>
	<path class="st1" d="M103.3,866.4c-1.1,1.1-1.7,2.6-1.7,4.5v6c0,3.8,2.4,6.2,6.1,6.2s6.1-2.4,6.1-6.2v-6c0-1.9-0.5-3.4-1.7-4.5
		s-2.6-1.7-4.4-1.7C105.9,864.7,104.4,865.2,103.3,866.4z M101.9,927.7h7l18.9-62.9h-6.9L101.9,927.7L101.9,927.7z M108.7,877
		c0,0.8-0.3,1.2-1,1.2s-1-0.4-1-1.2v-6.2c0-0.8,0.3-1.2,1-1.2s1,0.4,1,1.2V877z M122.2,909.8c-3.7,0-6.1,2.4-6.1,6.1v6.1
		c0,3.8,2.4,6.2,6.1,6.2c3.7,0,6.1-2.4,6.1-6.2v-6.1C128.3,912.2,126,909.8,122.2,909.8z M123.2,922.1c0,0.8-0.3,1.2-1,1.2
		c-0.7,0-1-0.4-1-1.2v-6.2c0-0.8,0.3-1.2,1-1.2c0.7,0,1,0.4,1,1.2V922.1z"/>
	<path class="st1" d="M104.1,839.7c0,6.2-5,11.3-11.3,11.3s-11.3-5-11.3-11.3c0-6.2,5-11.3,11.3-11.3S104.1,833.5,104.1,839.7z"/>
	<path class="st2" d="M96.2,836l-5.6,5.6 M90.2,836.4v5.6h5.6L90.2,836.4z"/>
</g>
<g>
	<path class="st1" d="M346,921.9c0-2.4,0.6-5.3,1.8-8.5c1.2-3.2,2.4-6.2,3.8-9c1.4-2.8,2.6-6,3.8-9.6c1.2-3.6,1.7-6.9,1.7-10v-12.2
		c0-2.4-0.8-4.4-2.4-5.8c-1.6-1.4-3.8-2.1-6.6-2.1c-6.1,0-9.5,3.2-9.5,8.5v15.4h6.9v-15.3c0-1.6,0.9-2.6,2.3-2.6s2.1,0.9,2.1,2.5
		v13.3c0,2.2-0.6,4.8-1.8,7.7c-1.2,3-2.5,5.8-4,8.4c-1.5,2.6-2.8,6-4,9.9c-1.3,4-1.9,7.9-1.9,11.8v3.2h19.2v-5.8H346L346,921.9z"/>
	<path class="st1" d="M369.6,864.8c-5.8,0-9.3,3.3-9.3,9.2v44.9c0,5.9,3.4,9.2,9.3,9.2s9.3-3.2,9.3-9.2V874
		C378.9,868.1,375.5,864.8,369.6,864.8z M371.7,919.4c0,1.8-0.7,2.7-2.1,2.7s-2.1-0.9-2.1-2.7v-45.9c0-1.8,0.7-2.6,2.1-2.6
		c1.5,0,2,0.9,2,2.6L371.7,919.4L371.7,919.4z"/>
	<path class="st1" d="M384.9,866.4c-1.1,1.1-1.7,2.6-1.7,4.5v6c0,3.8,2.4,6.2,6.1,6.2s6.1-2.4,6.1-6.2v-6c0-1.9-0.5-3.4-1.7-4.5
		c-1.1-1.1-2.6-1.7-4.4-1.7S386,865.2,384.9,866.4z M383.5,927.7h7l18.9-62.9h-6.9L383.5,927.7L383.5,927.7z M390.3,877
		c0,0.8-0.3,1.2-1,1.2s-1-0.4-1-1.2v-6.2c0-0.8,0.3-1.2,1-1.2s1,0.4,1,1.2V877z M403.8,909.8c-3.7,0-6.1,2.4-6.1,6.1v6.1
		c0,3.8,2.4,6.2,6.1,6.2s6.1-2.4,6.1-6.2v-6.1C409.9,912.2,407.6,909.8,403.8,909.8z M404.8,922.1c0,0.8-0.3,1.2-1,1.2s-1-0.4-1-1.2
		v-6.2c0-0.8,0.3-1.2,1-1.2s1,0.4,1,1.2V922.1z"/>
	<path class="st1" d="M415.9,870.3c0.5-0.1,0.8-0.5,0.8-1.2v-1.7c0-0.4-0.1-0.7-0.4-1c-0.3-0.3-0.7-0.3-1.1-0.3h-2.1v8.7h2.1
		c0.5,0,0.9-0.1,1.3-0.4c0.3-0.3,0.5-0.7,0.5-1.1v-1.7c0-0.7-0.3-1.1-0.9-1.2l0,0L415.9,870.3z M414.8,867.2c0.3,0,0.4,0.1,0.4,0.5
		v1.7c0,0.3-0.1,0.5-0.4,0.5h-0.4v-2.5L414.8,867.2L414.8,867.2z M414.8,870.9c0.3,0,0.5,0.2,0.5,0.5v1.7c0,0.3-0.2,0.5-0.5,0.5
		h-0.4v-2.7L414.8,870.9L414.8,870.9z"/>
	<path class="st1" d="M419.6,866v7.1c0,0.3-0.1,0.5-0.4,0.5c-0.3,0-0.4-0.1-0.4-0.5V866h-1.5v7.2c0,1.1,0.7,1.6,1.9,1.6
		c1.2,0,1.9-0.6,1.9-1.7V866L419.6,866L419.6,866z"/>
	<path class="st1" d="M423.6,869.9l-0.1-1.1L423,866h-1.6l1.5,6.4v2.4h1.5v-2.3l1.5-6.4h-1.6l-0.4,2.8l-0.1,1.1L423.6,869.9
		L423.6,869.9z"/>
	<path class="st1" d="M429.1,870.3c0.5-0.1,0.8-0.5,0.8-1.2v-1.7c0-0.4-0.1-0.7-0.4-1s-0.7-0.3-1.1-0.3h-2.1v8.7h2.1
		c0.5,0,0.9-0.1,1.3-0.4c0.3-0.3,0.5-0.7,0.5-1.1v-1.7c0-0.7-0.3-1.1-0.9-1.2l0,0L429.1,870.3z M428.1,867.2c0.3,0,0.4,0.1,0.4,0.5
		v1.7c0,0.3-0.1,0.5-0.4,0.5h-0.4v-2.5L428.1,867.2L428.1,867.2z M428,870.9c0.3,0,0.5,0.2,0.5,0.5v1.7c0,0.3-0.2,0.5-0.5,0.5h-0.4
		v-2.7L428,870.9L428,870.9z"/>
	<path class="st1" d="M434.4,874.8l-1-8.7h-2.3l-1.1,8.7h1.5l0.1-1.9h1l0.1,1.9H434.4z M432.1,868.7l0.1-1.3h0.1l0.1,1.3l0.2,3h-0.8
		L432.1,868.7L432.1,868.7z"/>
	<path class="st1" d="M437,870.7v2.4c0,0.3-0.1,0.5-0.4,0.5c-0.3,0-0.5-0.2-0.5-0.5v-5.5c0-0.3,0.2-0.5,0.5-0.5s0.4,0.2,0.4,0.5v2.2
		h1.5v-2.1c0-1.2-0.6-1.8-1.9-1.8s-1.9,0.7-1.9,2v4.9c0,1.3,0.7,2,1.9,2s1.9-0.6,1.9-1.8v-2.4L437,870.7L437,870.7z"/>
	<path class="st1" d="M442,870.2l1.1-4.2h-1.5l-0.9,3.8h-0.1V866h-1.5v8.7h1.5v-4h0.1l0.9,4h1.6L442,870.2L442,870.2z"/>
	<path class="st0" d="M408,941.9h-66.8c-7.9,0-14.2,6.4-14.2,14.2s6.4,14.2,14.2,14.2H408c7.9,0,14.2-6.4,14.2-14.2
		S415.9,941.9,408,941.9z"/>
	<g>
		<path class="st1" d="M363.2,948.4v1.6h1.5v14h1.9v-14h1.5v-1.6H363.2z"/>
		<path class="st1" d="M369,948.9c-0.4,0.5-0.7,1.1-0.7,1.9v10.7c0,1.7,0.9,2.6,2.4,2.6c1.6,0,2.5-0.9,2.5-2.6v-10.7
			c0-0.9-0.2-1.5-0.7-1.9c-0.4-0.5-1.1-0.7-1.9-0.7C370,948.2,369.4,948.4,369,948.9L369,948.9z M371.4,961.8c0,0.5-0.3,0.7-0.6,0.7
			c-0.3,0-0.6-0.3-0.6-0.7v-11.3c0-0.5,0.2-0.7,0.6-0.7c0.4,0,0.6,0.3,0.6,0.7V961.8z"/>
		<path class="st1" d="M377.9,955.8l1.7-7.5h-1.9l-1.3,6.9h-0.1v-6.9h-1.9v15.6h1.9v-7.3h0.1l1.3,7.3h2.1L377.9,955.8L377.9,955.8z"
			/>
		<path class="st1" d="M382.1,956.7h1.8v-1.6h-1.8V950h1.9v-1.6h-3.8V964h3.8v-1.6h-2L382.1,956.7L382.1,956.7z"/>
		<path class="st1" d="M388.2,957.4l-1.4-9.1h-1.9V964h1.7v-4.9l-0.2-4.8h0.1l1.5,9.7h1.8v-15.6h-1.7v4.3l0.2,4.8L388.2,957.4
			L388.2,957.4z"/>
	</g>
	<path class="st1" d="M374.6,828.4c6.2,0,11.3,5,11.3,11.3c0,6.2-5,11.3-11.3,11.3c-6.2,0-11.3-5-11.3-11.3
		C363.3,833.5,368.4,828.4,374.6,828.4z"/>
	<path class="st2" d="M370.9,836.3l5.6,5.6 M371.4,842.4h5.6v-5.6L371.4,842.4z"/>
</g>
<g>
	<circle class="st3" cx="115.8" cy="182.6" r="5"/>
	<g>
		<rect x="114.6" y="123.6" class="st3" width="2.3" height="59"/>
	</g>
	<g>
		<path class="st1" d="M123.1,182.1c0-3.8-2.9-7-6.8-7v3.4c1.8,0,3.4,1.6,3.4,3.6H123.1z M115.1,175.1c-3.8,0-6.8,3.2-6.8,7h3.4
			c0-2,1.6-3.6,3.4-3.6V175.1z M108.4,183.2c0,3.8,2.9,7,6.8,7v-3.4c-1.8,0-3.4-1.6-3.4-3.6H108.4z M116.4,190.2
			c3.8,0,6.8-3.2,6.8-7h-3.4c0,2-1.6,3.6-3.4,3.6V190.2z"/>
	</g>
	<g>
		<circle class="st3" cx="115.8" cy="123.1" r="5"/>
		<g>
			<path class="st1" d="M123.1,122.5c0-3.8-2.9-7-6.8-7v3.4c1.8,0,3.4,1.6,3.4,3.6H123.1z M115.1,115.5c-3.8,0-6.8,3.2-6.8,7h3.4
				c0-2,1.6-3.6,3.4-3.6V115.5z M108.4,123.6c0,3.8,2.9,7,6.8,7v-3.4c-1.8,0-3.4-1.6-3.4-3.6H108.4z M116.4,130.6
				c3.8,0,6.8-3.2,6.8-7h-3.4c0,2-1.6,3.6-3.4,3.6V130.6z"/>
		</g>
	</g>
</g>
<g>
	<circle class="st3" cx="205.8" cy="57.7" r="3.5"/>
	<g>
		<rect x="205.8" y="56.9" class="st3" width="40.7" height="1.6"/>
	</g>
	<g>
		<path class="st1" d="M206.2,62.8c2.6,0,4.8-2,4.8-4.7h-2.3c0,1.2-1.1,2.3-2.5,2.3V62.8z M211,57.3c0-2.6-2.2-4.7-4.8-4.7v2.3
			c1.4,0,2.5,1.1,2.5,2.3H211z M205.4,52.6c-2.6,0-4.8,2-4.8,4.7h2.3c0-1.2,1.1-2.3,2.5-2.3V52.6z M200.6,58.1
			c0,2.6,2.2,4.7,4.8,4.7v-2.3c-1.4,0-2.5-1.1-2.5-2.3H200.6z"/>
	</g>
	<g>
		<circle class="st3" cx="246.8" cy="57.7" r="3.5"/>
		<g>
			<path class="st1" d="M247.2,62.8c2.6,0,4.8-2,4.8-4.7h-2.3c0,1.2-1.1,2.3-2.5,2.3V62.8z M252,57.3c0-2.6-2.2-4.7-4.8-4.7v2.3
				c1.4,0,2.5,1.1,2.5,2.3H252z M246.4,52.6c-2.6,0-4.8,2-4.8,4.7h2.3c0-1.2,1.1-2.3,2.5-2.3V52.6z M241.6,58.1
				c0,2.6,2.2,4.7,4.8,4.7v-2.3c-1.4,0-2.5-1.1-2.5-2.3H241.6z"/>
		</g>
	</g>
</g>
<g>
	<circle class="st3" cx="346.4" cy="182.6" r="5"/>
	<g>
		<rect x="345.3" y="123.6" class="st3" width="2.3" height="59"/>
	</g>
	<g>
		<path class="st1" d="M353.8,182.1c0-3.8-2.9-7-6.8-7v3.4c1.8,0,3.4,1.6,3.4,3.6H353.8z M345.8,175.1c-3.8,0-6.8,3.2-6.8,7h3.4
			c0-2,1.6-3.6,3.4-3.6V175.1z M339,183.2c0,3.8,2.9,7,6.8,7v-3.4c-1.8,0-3.4-1.6-3.4-3.6H339z M347,190.2c3.8,0,6.8-3.2,6.8-7h-3.4
			c0,2-1.6,3.6-3.4,3.6V190.2z"/>
	</g>
	<g>
		<circle class="st3" cx="346.4" cy="123.1" r="5"/>
		<g>
			<path class="st1" d="M353.8,122.5c0-3.8-2.9-7-6.8-7v3.4c1.8,0,3.4,1.6,3.4,3.6H353.8z M345.8,115.5c-3.8,0-6.8,3.2-6.8,7h3.4
				c0-2,1.6-3.6,3.4-3.6V115.5z M339,123.6c0,3.8,2.9,7,6.8,7v-3.4c-1.8,0-3.4-1.6-3.4-3.6H339z M347,130.6c3.8,0,6.8-3.2,6.8-7
				h-3.4c0,2-1.6,3.6-3.4,3.6V130.6z"/>
		</g>
	</g>
</g>
<g>
	<path class="st1" d="M267.8,18.9h157.1v83.2H267.8V18.9z"/>
	<g>
		<path class="st4" d="M293.4,69.5V52.3h5.8v4.8l-1.1-1.4c0.6-1.3,1.5-2.2,2.6-2.8c1.1-0.7,2.3-1,3.7-1s2.9,0.4,4.1,1.2s2,2,2.3,3.8
			l-2-0.4c0.6-1.4,1.5-2.4,2.8-3.3c1.3-0.8,2.7-1.2,4.2-1.2s2.5,0.3,3.6,0.8c1,0.5,1.8,1.4,2.5,2.5c0.6,1.1,0.9,2.6,0.9,4.3v9.8h-6
			v-8.9c0-1.3-0.2-2.1-0.7-2.7c-0.5-0.5-1.1-0.8-1.9-0.8c-0.8,0-1.1,0.2-1.6,0.4c-0.4,0.3-0.8,0.7-1.1,1.3c-0.3,0.5-0.4,1.3-0.4,2.2
			v8.5h-6v-8.9c0-1.3-0.2-2.1-0.7-2.7c-0.4-0.5-1.1-0.8-1.9-0.8c-0.8,0-1.1,0.2-1.6,0.4c-0.5,0.3-0.8,0.7-1.1,1.3
			c-0.3,0.5-0.4,1.3-0.4,2.2v8.5h-6L293.4,69.5z"/>
		<path class="st4" d="M332,69.8c-1.4,0-2.5-0.2-3.5-0.7c-1-0.5-1.7-1.1-2.2-1.9c-0.5-0.8-0.8-1.7-0.8-2.7c0-1,0.3-2,0.8-2.8
			c0.5-0.8,1.4-1.4,2.5-1.8c1.1-0.4,2.6-0.6,4.3-0.6h4.1v3.2H334c-1,0-1.6,0.2-2.1,0.4c-0.4,0.3-0.6,0.7-0.6,1.3
			c0,0.5,0.2,0.9,0.6,1.3c0.4,0.3,1,0.5,1.6,0.5s1.3-0.2,1.8-0.5c0.5-0.3,0.9-0.8,1.1-1.5l0.8,2.2c-0.3,1.2-0.9,2.1-1.8,2.7
			C334.6,69.4,333.5,69.7,332,69.8L332,69.8z M337.1,69.5v-3.2l-0.4-0.8v-5.9c0-1-0.3-1.7-0.9-2.2c-0.6-0.5-1.5-0.8-2.8-0.8
			c-1.3,0-1.7,0.2-2.5,0.4c-0.9,0.3-1.6,0.6-2.2,1l-2-4.1c1-0.7,2.1-1.1,3.5-1.5c1.4-0.4,2.7-0.5,4.1-0.5c2.8,0,4.9,0.7,6.5,2
			c1.5,1.3,2.3,3.3,2.3,6v9.6H337.1L337.1,69.5z"/>
		<path class="st4" d="M346.6,69.5V51.2h6v18.3H346.6z M352.1,65.5l-0.3-6.6l7.2-7.7h6.7l-7.9,8.6l-3.4,3.4L352.1,65.5L352.1,65.5z
			 M358.9,69.5l-5.6-7.2l4-4.1l8.7,11.4L358.9,69.5L358.9,69.5z"/>
		<path class="st4" d="M376.6,69.8c-2.1,0-3.8-0.4-5.3-1.1s-2.7-1.8-3.5-3.2c-0.8-1.4-1.3-2.9-1.3-4.6s0.4-3.3,1.2-4.6
			s2-2.4,3.4-3.2c1.4-0.8,3-1.1,4.9-1.1s3.2,0.4,4.6,1.1c1.4,0.7,2.5,1.7,3.3,3c0.8,1.3,1.3,2.9,1.3,4.8c0,1.9,0,0.4,0,0.7
			c0,0.3,0,0.5-0.1,0.8h-13.6v-3.2h10.4l-2.3,0.9c0-0.8-0.1-1.4-0.4-2c-0.3-0.6-0.7-1-1.3-1.4c-0.5-0.3-1.1-0.5-1.8-0.5
			s-1.4,0.2-2,0.5c-0.5,0.3-1,0.8-1.3,1.4c-0.3,0.6-0.4,1.3-0.4,2.1v0.9c0,0.9,0.2,1.6,0.5,2.2c0.3,0.6,0.9,1.1,1.5,1.4
			c0.7,0.3,1.4,0.5,2.3,0.5s1.6-0.1,2.2-0.4c0.6-0.2,1.2-0.6,1.8-1.1l3.2,3.3c-0.8,0.9-1.8,1.6-3,2.1s-2.6,0.7-4.2,0.7L376.6,69.8z"
			/>
		<path class="st4" d="M387.9,69.5V52.3h5.8v5.1l-0.9-1.4c0.5-1.3,1.4-2.3,2.5-2.9c1.1-0.7,2.5-1,4.1-1v5.4c-0.3,0-0.5-0.1-0.7-0.1
			c-0.2,0-0.4,0-0.7,0c-1.3,0-2.2,0.3-3,1c-0.8,0.7-1.1,1.7-1.1,3.3v7.9C393.9,69.5,387.9,69.5,387.9,69.5z"/>
	</g>
</g>
<g>
	<g>
		<g>
			<g>
				<path class="st1" d="M226.7,827.1h-0.3c-5,0-10.1-0.2-15.1-0.5l0.1-2.2c4.9,0.3,10,0.5,14.9,0.5h0.3V827.1z M241.8,826.6
					l-0.1-2.2c5-0.3,9.9-0.8,14.8-1.5l0.3,2.2C251.8,825.8,246.8,826.3,241.8,826.6z M196.4,825.2c-5-0.7-10-1.5-14.9-2.5l0.4-2.2
					c4.8,1,9.8,1.8,14.7,2.5L196.4,825.2z M271.6,822.6l-0.4-2.2c4.9-1,9.7-2.1,14.5-3.4l0.6,2.2
					C281.5,820.5,276.5,821.6,271.6,822.6z M166.8,819.2c-4.8-1.3-9.7-2.8-14.4-4.4l0.7-2.1c4.7,1.6,9.5,3.1,14.3,4.4L166.8,819.2z
					 M300.7,814.7l-0.7-2.1c4.7-1.6,9.4-3.4,13.9-5.4l0.9,2.1C310.1,811.2,305.4,813,300.7,814.7z M138.4,809.3
					c-4.6-2-9.2-4.1-13.7-6.4l1-2c4.4,2.2,9,4.4,13.5,6.3L138.4,809.3z M328.4,802.9l-1-2c4.4-2.2,8.8-4.7,13.1-7.2l1.2,1.9
					C337.3,798.2,332.8,800.6,328.4,802.9z M111.5,795.7c-4.3-2.6-8.6-5.3-12.7-8.1l1.3-1.9c4.1,2.8,8.3,5.5,12.6,8L111.5,795.7z
					 M354.3,787.5l-1.3-1.8c4.1-2.8,8.1-5.8,12-8.9l1.4,1.8C362.5,781.6,358.4,784.6,354.3,787.5z M86.7,778.6
					c-3.9-3.1-7.8-6.4-11.5-9.7l1.5-1.7c3.7,3.3,7.5,6.6,11.4,9.6L86.7,778.6z M377.9,768.7l-1.5-1.7c2.7-2.4,5.4-5,7.9-7.6
					c0.9-0.9,1.9-1.9,2.8-2.8l1.6,1.6c-0.9,1-1.9,1.9-2.8,2.9C383.3,763.7,380.6,766.2,377.9,768.7z M64.4,758.4
					c-3.5-3.6-6.9-7.4-10.1-11.2l1.7-1.5c3.2,3.8,6.6,7.5,10,11.1L64.4,758.4z M398.8,747.1l-1.7-1.5c3.2-3.8,6.3-7.7,9.3-11.7
					l1.8,1.3C405.2,739.3,402,743.2,398.8,747.1z M44.9,735.4c-3-4-5.9-8.2-8.6-12.4l1.9-1.2c2.7,4.2,5.5,8.3,8.5,12.3L44.9,735.4z
					 M416.7,722.8l-1.9-1.2c2.7-4.2,5.2-8.5,7.6-12.8l2,1.1C422,714.3,419.4,718.6,416.7,722.8z M28.6,710.1
					c-2.4-4.4-4.7-8.9-6.8-13.4l2-0.9c2.1,4.5,4.4,9,6.7,13.3L28.6,710.1z M431.2,696.4l-2-0.9c2.1-4.5,4-9.1,5.8-13.7l2.1,0.8
					C435.3,687.2,433.3,691.9,431.2,696.4z M15.9,682.7c-1.8-4.7-3.5-9.5-4.9-14.2l2.1-0.7c1.5,4.7,3.1,9.5,4.9,14.1L15.9,682.7z
					 M442,668.3l-2.1-0.7c1.5-4.7,2.8-9.6,3.9-14.4l2.2,0.5C444.8,658.6,443.4,663.5,442,668.3z M7,654c-1.1-4.9-2.1-9.8-3-14.8
					l2.2-0.4c0.8,4.9,1.8,9.8,2.9,14.6L7,654z M448.9,639l-2.2-0.4c0.8-4.9,1.5-9.9,1.9-14.8l2.2,0.2C450.4,629,449.7,634,448.9,639
					z M2.1,624.3c-0.5-5-0.8-10-1-15l2.2-0.1c0.2,5,0.5,10,1,14.9L2.1,624.3z M451.8,609l-2.2-0.1c0.1-2.4,0.1-4.9,0.1-7.3
					c0-2.5,0-5.1-0.1-7.7l2.2-0.1c0.1,2.6,0.1,5.2,0.1,7.7C451.9,604.1,451.9,606.5,451.8,609z M3.3,594.2l-2.2-0.1
					c0.2-5,0.5-10.1,1-15l2.2,0.2C3.8,584.3,3.5,589.3,3.3,594.2z M448.6,579.1c-0.5-4.9-1.2-9.9-2-14.8l2.2-0.4
					c0.8,4.9,1.5,9.9,2,14.9L448.6,579.1z M6.2,564.5L4,564.2c0.8-4.9,1.8-9.9,3-14.8l2.2,0.5C8,554.7,7.1,559.6,6.2,564.5z
					 M443.6,549.7c-1.1-4.8-2.5-9.7-3.9-14.4l2.1-0.7c1.5,4.8,2.8,9.7,4,14.5L443.6,549.7z M13.1,535.5l-2.1-0.7
					c1.5-4.8,3.1-9.6,4.9-14.2l2.1,0.8C16.2,526,14.6,530.8,13.1,535.5z M434.8,521.2c-1.8-4.6-3.7-9.2-5.8-13.7l2-0.9
					c2.1,4.5,4.1,9.2,5.9,13.9L434.8,521.2z M23.8,507.7l-2-0.9c2.1-4.5,4.4-9.1,6.8-13.4l2,1.1C28.2,498.7,25.9,503.2,23.8,507.7z
					 M422.2,494.2c-2.4-4.3-5-8.6-7.6-12.8l1.9-1.2c2.7,4.2,5.3,8.6,7.7,13L422.2,494.2z M38.2,481.5l-1.9-1.2
					c2.7-4.2,5.6-8.4,8.5-12.4l1.8,1.3C43.7,473.2,40.8,477.4,38.2,481.5z M406.1,469.1c-2.9-4-6.1-7.9-9.3-11.7l1.7-1.5
					c3.2,3.8,6.4,7.8,9.4,11.8L406.1,469.1z M55.9,457.6l-1.7-1.5c3.2-3.8,6.6-7.6,10.1-11.2l1.6,1.6
					C62.4,450.1,59.1,453.8,55.9,457.6z M386.8,446.3c-0.8-0.9-1.7-1.7-2.5-2.5c-2.7-2.7-5.4-5.3-8.2-7.8l1.5-1.7
					c2.8,2.6,5.6,5.2,8.3,7.9c0.9,0.9,1.7,1.7,2.5,2.6L386.8,446.3z M76.6,436.1l-1.5-1.7c3.7-3.4,7.6-6.7,11.5-9.8l1.4,1.8
					C84.1,429.5,80.3,432.8,76.6,436.1z M364.7,426.3c-3.9-3.1-7.9-6.1-12-8.9l1.3-1.9c4.1,2.8,8.2,5.8,12.1,9L364.7,426.3z
					 M100,417.6l-1.3-1.8c4.1-2.8,8.4-5.6,12.7-8.1l1.2,1.9C108.3,412,104.1,414.8,100,417.6z M340.1,409.4
					c-4.3-2.5-8.7-4.9-13.1-7.2l1-2c4.5,2.3,8.9,4.7,13.2,7.3L340.1,409.4z M125.6,402.3l-1-2c4.5-2.3,9.1-4.4,13.7-6.4l0.9,2.1
					C134.6,398,130,400.1,125.6,402.3z M313.5,395.9c-4.6-1.9-9.2-3.7-13.9-5.4l0.7-2.1c4.7,1.6,9.5,3.5,14.1,5.4L313.5,395.9z
					 M153.1,390.7l-0.7-2.1c4.7-1.6,9.6-3.1,14.4-4.5l0.6,2.2C162.5,387.6,157.8,389,153.1,390.7z M285.3,386.2
					c-4.8-1.3-9.7-2.4-14.5-3.4l0.4-2.2c4.9,1,9.9,2.1,14.7,3.5L285.3,386.2z M181.8,382.8l-0.4-2.2c4.9-1,9.9-1.8,14.9-2.5l0.3,2.2
					C191.6,381,186.7,381.8,181.8,382.8z M256.1,380.3c-4.9-0.6-9.9-1.1-14.9-1.5l0.1-2.2c5,0.3,10,0.8,15,1.5L256.1,380.3z
					 M211.4,378.9l-0.1-2.2c5-0.3,10-0.5,15.1-0.5l0,2.2C221.3,378.4,216.3,378.6,211.4,378.9z"/>
			</g>
			<g>
				<path class="st1" d="M226.4,805.4h-0.2v-2.2h0.2c4.9,0,9.9-0.2,14.8-0.5l0.2,2.2C236.5,805.2,231.4,805.4,226.4,805.4z
					 M211,804.8c-5-0.4-10.1-1-15.1-1.7l0.3-2.2c4.9,0.7,10,1.3,15,1.7L211,804.8z M256.6,803.2l-0.3-2.2c5-0.7,9.9-1.7,14.8-2.8
					l0.5,2.2C266.6,801.5,261.6,802.4,256.6,803.2z M180.9,800.3c-4.9-1.1-9.9-2.5-14.7-4l0.7-2.1c4.8,1.5,9.7,2.8,14.5,3.9
					L180.9,800.3z M286.3,796.4l-0.7-2.1c4.8-1.5,9.6-3.1,14.2-5l0.8,2.1C295.9,793.3,291.1,795,286.3,796.4z M151.8,791.3
					c-4.7-1.9-9.4-3.9-13.9-6.1l1-2c4.5,2.2,9.1,4.2,13.8,6L151.8,791.3z M314.6,785.3l-1-2c4.5-2.2,9-4.5,13.3-7l1.1,1.9
					C323.7,780.7,319.2,783.1,314.6,785.3z M124.5,778c-4.4-2.5-8.7-5.3-12.9-8.1l1.3-1.9c4.1,2.8,8.4,5.5,12.7,8L124.5,778z
					 M341,770.1l-1.3-1.9c4.1-2.8,8.2-5.8,12.1-9l1.4,1.8C349.3,764.2,345.2,767.2,341,770.1z M99.3,760.8
					c-3.9-3.2-7.8-6.5-11.5-9.9l1.5-1.6c3.7,3.4,7.5,6.7,11.4,9.8L99.3,760.8z M364.8,751.1l-1.5-1.6c3.7-3.4,7.3-7,10.7-10.6
					l1.6,1.5C372.1,744,368.5,747.6,364.8,751.1z M77.1,740.1c-3.4-3.7-6.8-7.6-9.9-11.5l1.8-1.4c3.1,3.9,6.4,7.8,9.8,11.4
					L77.1,740.1z M385.5,728.8l-1.8-1.4c3.1-3.9,6.1-8,9-12.1l1.9,1.3C391.8,720.7,388.7,724.9,385.5,728.8z M58.1,716.3
					c-2.9-4.2-5.6-8.5-8.1-12.9l1.9-1.1c2.5,4.3,5.2,8.6,8,12.8L58.1,716.3z M402.8,703.7l-1.9-1.1c2.5-4.3,4.9-8.8,7.1-13.3l2,1
					C407.7,694.8,405.3,699.3,402.8,703.7z M42.8,689.9c-2.2-4.6-4.3-9.3-6.1-14l2.1-0.8c1.8,4.7,3.9,9.3,6,13.8L42.8,689.9z
					 M416,676.3l-2.1-0.8c1.8-4.7,3.5-9.4,5-14.2l2.1,0.7C419.6,666.8,417.9,671.6,416,676.3z M31.7,661.6
					c-1.5-4.8-2.8-9.8-3.9-14.7l2.2-0.5c1.1,4.9,2.4,9.8,3.9,14.5L31.7,661.6z M425.1,647.3l-2.2-0.5c1.1-4.9,2.1-9.8,2.8-14.8
					l2.2,0.3C427.1,637.3,426.2,642.3,425.1,647.3z M24.9,631.9c-0.7-5-1.3-10.1-1.7-15.1l2.2-0.2c0.4,5,0.9,10,1.7,15L24.9,631.9z
					 M429.6,617.2l-2.2-0.2c0.4-5,0.6-10,0.6-15.1l2.2,0C430.2,607,430,612.1,429.6,617.2z M24.9,601.5l-2.2,0
					c0-5.1,0.2-10.2,0.6-15.2l2.2,0.2C25.1,591.5,24.9,596.5,24.9,601.5z M427.4,586.9c-0.4-5-0.9-10-1.7-15l2.2-0.3
					c0.7,5,1.3,10.1,1.7,15.1L427.4,586.9z M27.2,571.5l-2.2-0.3c0.8-5,1.7-10,2.8-15l2.2,0.5C28.9,561.6,27.9,566.6,27.2,571.5z
					 M423,557.1c-1.1-4.9-2.4-9.8-3.9-14.6l2.1-0.7c1.5,4.8,2.8,9.8,3.9,14.7L423,557.1z M33.9,542.2l-2.1-0.7
					c1.5-4.8,3.2-9.7,5-14.4l2.1,0.8C37,532.6,35.3,537.4,33.9,542.2z M414.2,528.3c-1.8-4.7-3.9-9.3-6-13.8l2-1
					c2.2,4.6,4.2,9.3,6.1,14L414.2,528.3z M44.9,514.2l-2-1c2.2-4.5,4.6-9.1,7.1-13.4l1.9,1.1C49.5,505.2,47.1,509.7,44.9,514.2z
					 M401.1,501.2c-2.5-4.3-5.2-8.6-8-12.8l1.9-1.3c2.9,4.2,5.6,8.5,8.1,12.9L401.1,501.2z M60,488.1l-1.9-1.3
					c2.9-4.2,5.9-8.3,9.1-12.2L69,476C65.8,479.9,62.8,484,60,488.1z M384.1,476.3c-3.1-3.9-6.4-7.8-9.8-11.4l1.6-1.5
					c3.4,3.7,6.8,7.6,9.9,11.6L384.1,476.3z M78.8,464.6l-1.6-1.5c3.4-3.7,7.1-7.3,10.8-10.8l1.5,1.6
					C85.8,457.4,82.2,461,78.8,464.6z M363.7,454.2c-3.7-3.4-7.5-6.7-11.4-9.9l1.4-1.8c3.9,3.2,7.8,6.5,11.5,10L363.7,454.2z
					 M100.9,444.1l-1.4-1.8c4-3.2,8.1-6.2,12.2-9.1l1.3,1.9C108.8,438,104.8,441,100.9,444.1z M340.2,435.4
					c-4.1-2.8-8.4-5.5-12.7-8.1l1.1-1.9c4.4,2.5,8.7,5.3,12.9,8.1L340.2,435.4z M125.7,427.1l-1.1-1.9c4.4-2.5,8.9-4.9,13.5-7.1l1,2
					C134.5,422.2,130.1,424.6,125.7,427.1z M314.2,420.2c-4.5-2.2-9.1-4.2-13.8-6.1l0.8-2.1c4.7,1.9,9.4,3.9,13.9,6.1L314.2,420.2z
					 M152.8,414l-0.8-2.1c4.7-1.9,9.6-3.6,14.4-5l0.7,2.1C162.3,410.5,157.5,412.2,152.8,414z M286.2,409.2
					c-4.8-1.5-9.7-2.8-14.5-3.9l0.5-2.2c4.9,1.1,9.9,2.5,14.7,4L286.2,409.2z M181.6,405.1l-0.5-2.2c4.9-1.1,10-2.1,15-2.8l0.3,2.2
					C191.5,403.1,186.5,404,181.6,405.1z M256.9,402.4c-4.9-0.8-10-1.3-15-1.7l0.2-2.2c5,0.4,10.1,1,15.1,1.7L256.9,402.4z
					 M211.4,400.7l-0.2-2.2c5-0.4,10.2-0.6,15.2-0.6l0.4,0l0,2.2l-0.4,0C221.4,400.1,216.4,400.3,211.4,400.7z"/>
			</g>
		</g>
	</g>
	<path class="st1" d="M257.9,801.4l4.4,22C365,807,444.4,720.9,450.7,615.1l-22.4-2.2C423.1,708.8,350.9,786.8,257.9,801.4
		L257.9,801.4z"/>
	<g>
		<path class="st1" d="M124,627.9v-38.3h-15.1v-8.9H150v8.9h-15.1v38.3H124L124,627.9z"/>
		<path class="st1" d="M178,628.7c-3.7,0-7.2-0.6-10.3-1.8c-3.1-1.2-5.9-2.9-8.2-5.1s-4.1-4.8-5.4-7.7c-1.3-2.9-1.9-6.2-1.9-9.7
			c0-3.4,0.7-6.8,1.9-9.7c1.3-2.9,3.1-5.5,5.4-7.7c2.3-2.2,5.1-3.9,8.2-5.1c3.1-1.2,6.5-1.8,10.3-1.8s7.1,0.6,10.3,1.8
			c3.1,1.2,5.8,2.9,8.2,5.1s4.1,4.8,5.4,7.7c1.3,2.9,1.9,6.2,1.9,9.7c0,3.5-0.7,6.7-1.9,9.7c-1.3,3-3.1,5.5-5.4,7.8
			c-2.3,2.2-5.1,3.9-8.2,5.1c-3.1,1.2-6.5,1.8-10.2,1.8L178,628.7z M178,619.5c2.1,0,4-0.4,5.8-1.1c1.8-0.7,3.4-1.8,4.6-3.1
			c1.3-1.3,2.4-3,3.1-4.8c0.7-1.8,1.1-3.8,1.1-6.1c0-2.2-0.4-4.3-1.1-6.1c-0.7-1.8-1.8-3.4-3.1-4.8c-1.3-1.3-2.9-2.4-4.6-3.1
			c-1.8-0.7-3.7-1.1-5.8-1.1c-2.1,0-4,0.4-5.8,1.1c-1.8,0.7-3.4,1.8-4.6,3.1c-1.3,1.3-2.3,3-3.1,4.8c-0.7,1.8-1.1,3.8-1.1,6.1
			c0,2.2,0.4,4.3,1.1,6.1c0.7,1.8,1.8,3.4,3.1,4.8c1.3,1.3,2.8,2.4,4.6,3.1C173.9,619.2,175.9,619.5,178,619.5z"/>
		<path class="st1" d="M221.1,627.9v-38.3h-15.1v-8.9h41.1v8.9h-15.1v38.3H221.1L221.1,627.9z"/>
		<path class="st1" d="M244.4,627.9l21-47.1h10.8l21.1,47.1h-11.5l-17.3-41.7h4.3l-17.3,41.7H244.4L244.4,627.9z M255,617.8l2.8-8.3
			h24.3l2.8,8.3H255z"/>
		<path class="st1" d="M302.2,627.9v-47.1h11v38.3h23.5v8.9L302.2,627.9L302.2,627.9z"/>
	</g>
</g>
<g>
	<g>
		<path class="st1" d="M152.2,103.4l0-1.6c3.5,0,7.1-0.5,10.5-1.4l0.4,1.6C159.6,103,155.9,103.4,152.2,103.4z M141.4,103.4h-10.8
			v-1.6h10.8V103.4z M119.8,103.4H109v-1.6h10.8V103.4z M98.2,103.4H87.4v-1.6h10.8V103.4z M76.6,103.3c-3.7-0.2-7.3-0.9-10.8-2.1
			l0.5-1.5c3.3,1.1,6.8,1.8,10.4,2L76.6,103.3z M173.3,97.9l-0.8-1.4c3.1-1.7,5.9-3.9,8.5-6.3l1.1,1.2
			C179.4,93.9,176.5,96.1,173.3,97.9z M55.9,96.5c-3.1-2-5.9-4.4-8.4-7.1l1.2-1.1c2.4,2.6,5.1,4.9,8,6.8L55.9,96.5z M188.9,82.7
			l-1.4-0.8c1.8-3,3.3-6.3,4.3-9.7l1.6,0.5C192.3,76.2,190.8,79.6,188.9,82.7z M41.3,80.4c-1.7-3.3-3-6.7-3.8-10.3l1.6-0.4
			c0.8,3.4,2,6.8,3.7,9.9L41.3,80.4z M195.1,61.9l-1.6-0.1c0-0.4,0-0.9,0-1.3c0-3.1-0.3-6.2-1-9.2l1.6-0.4c0.7,3.1,1.1,6.3,1.1,9.5
			C195.1,60.9,195.1,61.4,195.1,61.9z M38,59.2l-1.6,0c0.1-3.7,0.7-7.3,1.7-10.8l1.6,0.5C38.7,52.2,38.1,55.7,38,59.2z M188.8,41.4
			c-1.6-3.1-3.7-6-6-8.7l1.2-1.1c2.5,2.7,4.6,5.7,6.3,9L188.8,41.4z M44,39.1l-1.4-0.8c1.9-3.1,4.2-6,6.8-8.6l1.1,1.2
			C48,33.3,45.8,36.1,44,39.1z M174.7,25.9c-3-1.9-6.2-3.5-9.5-4.6l0.5-1.5c3.5,1.2,6.8,2.8,9.9,4.8L174.7,25.9z M59,24.5l-0.8-1.4
			c3.2-1.8,6.6-3.2,10.2-4.1l0.4,1.6C65.4,21.4,62.1,22.8,59,24.5z M154.9,19.3c-0.9-0.1-1.8-0.1-2.7-0.1h-8v-1.6h8
			c0.9,0,1.9,0,2.8,0.1L154.9,19.3z M133.3,19.2h-10.8v-1.6h10.8V19.2z M111.7,19.2h-10.8v-1.6h10.8V19.2z M90.1,19.2H79.2v-1.6
			h10.9V19.2z"/>
	</g>
	<g>
		<path class="st1" d="M66.7,70.9c-1.8,0-3.5-0.4-4.9-1.1s-2.6-1.8-3.4-3.1c-0.8-1.4-1.2-2.8-1.2-4.5s0.4-3.2,1.2-4.5
			c0.8-1.3,2-2.3,3.4-3.1c1.4-0.8,3-1.1,4.9-1.1s3.4,0.4,4.7,1.1c1.4,0.8,2.3,1.8,2.9,3.2l-3.8,2.1c-0.5-0.8-1-1.4-1.7-1.7
			c-0.7-0.4-1.4-0.5-2.2-0.5s-1.6,0.2-2.2,0.5c-0.7,0.4-1.2,0.9-1.6,1.6c-0.4,0.7-0.6,1.5-0.6,2.6s0.2,1.8,0.6,2.6
			c0.4,0.7,0.9,1.3,1.6,1.6c0.7,0.4,1.4,0.5,2.2,0.5s1.5-0.2,2.2-0.5c0.7-0.4,1.2-1,1.7-1.8l3.8,2.1c-0.6,1.4-1.6,2.4-2.9,3.2
			c-1.4,0.8-2.9,1.1-4.7,1.1V70.9z"/>
		<path class="st1" d="M77.2,70.7V53.6h4.7v4.8L81.3,57c0.5-1.2,1.3-2.1,2.4-2.7s2.5-0.9,4.1-0.9V58c-0.2,0-0.4-0.1-0.5-0.1
			c-0.2,0-0.4,0-0.5,0c-1.4,0-2.5,0.4-3.3,1.2c-0.8,0.8-1.3,2-1.3,3.6v8h-4.9V70.7z"/>
		<path class="st1" d="M99,70.9c-2,0-3.6-0.4-5.1-1.1c-1.5-0.8-2.6-1.8-3.4-3.1c-0.8-1.3-1.2-2.8-1.2-4.5s0.4-3.2,1.1-4.5
			c0.8-1.4,1.8-2.4,3.3-3.1c1.4-0.8,2.9-1.1,4.7-1.1c1.7,0,3.2,0.4,4.5,1.1c1.4,0.7,2.4,1.7,3.2,3c0.8,1.3,1.2,2.9,1.2,4.7
			c0,1.8,0,0.4,0,0.7c0,0.2,0,0.5-0.1,0.7H93.4v-2.9h11.3l-2,0.9c0-0.9-0.2-1.7-0.5-2.3c-0.4-0.7-0.9-1.1-1.5-1.5
			c-0.7-0.4-1.4-0.5-2.2-0.5c-0.9,0-1.6,0.2-2.2,0.5c-0.7,0.4-1.1,0.9-1.5,1.6c-0.4,0.7-0.5,1.5-0.5,2.3v0.8c0,1,0.2,1.8,0.7,2.5
			c0.4,0.7,1,1.3,1.7,1.6c0.8,0.4,1.6,0.5,2.7,0.5c1,0,1.7-0.2,2.3-0.4c0.7-0.3,1.3-0.7,1.9-1.3l2.6,2.9c-0.8,0.9-1.7,1.6-2.9,2.1
			c-1.2,0.5-2.6,0.7-4.1,0.7L99,70.9z"/>
		<path class="st1" d="M115.3,70.9c-1.3,0-2.4-0.2-3.4-0.7c-1-0.4-1.7-1.1-2.2-1.8c-0.5-0.8-0.8-1.7-0.8-2.6s0.3-1.9,0.8-2.7
			c0.5-0.8,1.3-1.4,2.3-1.8c1.1-0.4,2.5-0.7,4.2-0.7h4.5v2.9h-4c-1.1,0-2,0.2-2.4,0.6c-0.4,0.4-0.7,0.9-0.7,1.4
			c0,0.5,0.3,1.1,0.8,1.5c0.5,0.4,1.1,0.5,2,0.5c0.9,0,1.6-0.2,2.3-0.6c0.7-0.4,1.1-1,1.4-1.7l0.8,2.3c-0.4,1-1,1.9-2,2.4
			C118.1,70.7,116.9,70.9,115.3,70.9z M120.6,70.7v-3.3l-0.3-0.7v-6c0-1-0.3-1.9-1-2.5s-1.6-0.9-3-0.9c-1.4,0-1.8,0.2-2.7,0.4
			c-0.9,0.3-1.6,0.7-2.3,1.1l-1.7-3.5c0.9-0.7,2.1-1.2,3.4-1.5c1.3-0.3,2.7-0.5,4-0.5c2.6,0,4.6,0.6,6,1.8c1.4,1.3,2.2,3.2,2.2,5.8
			v9.7H120.6z"/>
		<path class="st1" d="M127.6,57.4v-3.8h11.8v3.8H127.6z M136.6,70.9c-2,0-3.6-0.5-4.7-1.5c-1.1-1-1.7-2.6-1.7-4.6V49.9h5v14.9
			c0,0.7,0.2,1.3,0.5,1.7s0.9,0.6,1.5,0.6s1.5-0.2,2-0.7l1.3,3.5c-0.5,0.4-1.1,0.7-1.8,0.8C138.2,70.9,137.4,71,136.6,70.9
			L136.6,70.9z"/>
		<path class="st1" d="M151,70.9c-1.8,0-3.4-0.4-4.8-1.1c-1.4-0.8-2.5-1.8-3.3-3.1c-0.8-1.3-1.2-2.8-1.2-4.5s0.4-3.2,1.2-4.6
			c0.8-1.3,1.9-2.3,3.3-3.1c1.4-0.8,3-1.1,4.8-1.1c1.8,0,3.4,0.4,4.8,1.1s2.5,1.8,3.3,3.1c0.8,1.3,1.2,2.8,1.2,4.6
			c0,1.7-0.4,3.2-1.2,4.5c-0.8,1.3-1.9,2.3-3.3,3.1C154.4,70.5,152.8,70.9,151,70.9z M151,66.8c0.9,0,1.6-0.2,2.2-0.5
			c0.7-0.4,1.1-0.9,1.6-1.6c0.4-0.7,0.6-1.6,0.6-2.6c0-1-0.2-1.8-0.6-2.6c-0.4-0.7-0.9-1.3-1.6-1.6c-0.7-0.4-1.4-0.5-2.2-0.5
			s-1.6,0.2-2.2,0.5s-1.2,0.9-1.6,1.6c-0.4,0.7-0.6,1.5-0.6,2.6s0.2,1.8,0.6,2.6c0.4,0.7,0.9,1.3,1.6,1.6
			C149.4,66.7,150.1,66.8,151,66.8L151,66.8z"/>
		<path class="st1" d="M163.7,70.7V53.6h4.7v4.8l-0.7-1.4c0.5-1.2,1.3-2.1,2.4-2.7s2.5-0.9,4.1-0.9V58c-0.2,0-0.4-0.1-0.5-0.1
			c-0.2,0-0.4,0-0.5,0c-1.4,0-2.5,0.4-3.3,1.2c-0.8,0.8-1.3,2-1.3,3.6v8h-4.9V70.7z"/>
	</g>
</g>
<g>
	<path class="st1" d="M181,230.6H50.6c-7.4,0-13.4-6-13.4-13.4v0c0-7.4,6-13.4,13.4-13.4H181c7.4,0,13.4,6,13.4,13.4v0
		C194.3,224.6,188.3,230.6,181,230.6z"/>
	<g>
		<path class="st4" d="M52.3,222.2c-0.9,0-1.6-0.2-2.3-0.5c-0.7-0.4-1.1-0.9-1.5-1.4S48,219,48,218.2c0-0.8,0.2-1.5,0.6-2.1
			s0.9-1,1.5-1.4c0.7-0.4,1.4-0.6,2.3-0.6s1.5,0.2,2.2,0.5c0.7,0.4,1,0.9,1.3,1.4l-1.7,0.9c-0.2-0.4-0.5-0.7-0.8-0.9
			c-0.3-0.2-0.7-0.3-0.9-0.3s-0.8,0-1,0.3c-0.3,0.2-0.6,0.4-0.8,0.8c-0.2,0.3-0.3,0.7-0.3,1.1s0,0.9,0.3,1.1
			c0.2,0.3,0.5,0.6,0.8,0.8c0.3,0.2,0.7,0.3,1,0.3s0.7,0,0.9-0.3c0.3-0.2,0.6-0.5,0.8-0.9l1.7,0.9c-0.3,0.7-0.8,1.1-1.3,1.4
			c-0.7,0.4-1.3,0.6-2.2,0.6V222.2z"/>
		<path class="st4" d="M59.6,222.2c-0.6,0-1.1-0.1-1.5-0.3c-0.5-0.2-0.8-0.5-1-0.9c-0.3-0.4-0.4-0.8-0.4-1.2s0.1-0.9,0.4-1.2
			c0.2-0.4,0.6-0.7,1-0.9c0.5-0.2,1.1-0.3,2-0.3h2.1v1.3h-1.8c-0.6,0-0.9,0-1.1,0.3c-0.2,0.2-0.3,0.4-0.3,0.7c0,0.3,0.1,0.6,0.4,0.7
			c0.2,0.2,0.6,0.3,0.9,0.3s0.8,0,1-0.3c0.3-0.2,0.6-0.5,0.7-0.8l0.4,1c-0.2,0.5-0.5,0.9-0.9,1.1C60.9,222.1,60.3,222.2,59.6,222.2
			L59.6,222.2z M61.9,222.1v-1.5l-0.2-0.4v-2.7c0-0.5-0.2-0.9-0.5-1.1c-0.3-0.3-0.8-0.4-1.3-0.4c-0.6,0-0.9,0-1.2,0.2
			c-0.4,0.1-0.8,0.3-1,0.6l-0.8-1.6c0.5-0.3,0.9-0.6,1.5-0.7c0.6-0.2,1.2-0.3,1.8-0.3c1.2,0,2.1,0.3,2.7,0.9
			c0.7,0.6,0.9,1.4,0.9,2.6v4.4H61.9L61.9,222.1z"/>
		<path class="st4" d="M66.1,222.1v-7.8h2.2v2.1l-0.4-0.6c0.3-0.6,0.7-0.9,1.1-1.2c0.5-0.3,1-0.4,1.7-0.4c0.7,0,1.3,0.2,1.9,0.6
			s0.9,0.9,1,1.7l-0.8-0.2c0.3-0.6,0.7-1,1.2-1.4c0.6-0.4,1.2-0.6,2-0.6s1.1,0.1,1.6,0.4s0.9,0.7,1.1,1.1s0.4,1.1,0.4,2v4.4H77V218
			c0-0.7-0.1-1.1-0.4-1.4c-0.3-0.3-0.7-0.5-1-0.5c-0.4,0-0.7,0-0.9,0.2c-0.3,0.2-0.5,0.4-0.6,0.7c-0.1,0.3-0.2,0.7-0.2,1.1v4h-2.3
			v-4.2c0-0.7-0.1-1.1-0.4-1.4c-0.3-0.3-0.7-0.5-1.1-0.5s-0.7,0-0.9,0.2c-0.3,0.2-0.5,0.4-0.6,0.7c-0.2,0.3-0.2,0.7-0.2,1.1v4
			L66.1,222.1L66.1,222.1z"/>
		<path class="st4" d="M81.3,224.9v-10.7h2.2v4l0.1,2.3v4.4L81.3,224.9L81.3,224.9z M85.9,222.2c-0.7,0-1.2-0.2-1.7-0.5
			s-0.9-0.8-1.1-1.3c-0.3-0.6-0.4-1.3-0.4-2.3s0.1-1.7,0.4-2.3c0.3-0.6,0.7-1,1.1-1.3s1-0.5,1.8-0.5s1.4,0.2,2,0.5s1,0.8,1.4,1.4
			c0.4,0.6,0.5,1.3,0.5,2.1c0,0.8-0.2,1.5-0.5,2.2c-0.4,0.6-0.9,1-1.4,1.4S86.8,222.1,85.9,222.2L85.9,222.2z M85.6,220.4
			c0.4,0,0.8,0,1-0.3c0.3-0.3,0.6-0.4,0.8-0.8c0.2-0.3,0.3-0.8,0.3-1.1s0-0.9-0.3-1.1c-0.2-0.3-0.4-0.6-0.8-0.8
			c-0.3-0.2-0.7-0.3-1-0.3c-0.4,0-0.8,0-1,0.3c-0.3,0.2-0.6,0.4-0.8,0.8c-0.2,0.3-0.3,0.7-0.3,1.1s0,0.9,0.3,1.1
			c0.2,0.3,0.4,0.6,0.8,0.8C84.8,220.3,85.2,220.4,85.6,220.4z"/>
		<path class="st4" d="M93.7,222.2c-0.6,0-1.1-0.1-1.5-0.3c-0.5-0.2-0.8-0.5-1-0.9c-0.3-0.4-0.4-0.8-0.4-1.2s0.1-0.9,0.4-1.2
			c0.2-0.4,0.6-0.7,1-0.9c0.5-0.2,1.1-0.3,2-0.3h2.1v1.3h-1.8c-0.6,0-0.9,0-1.1,0.3c-0.2,0.2-0.3,0.4-0.3,0.7c0,0.3,0.1,0.6,0.4,0.7
			c0.2,0.2,0.6,0.3,0.9,0.3c0.4,0,0.8,0,1-0.3c0.3-0.2,0.6-0.5,0.7-0.8l0.4,1c-0.2,0.5-0.5,0.9-0.9,1.1
			C95,222.1,94.4,222.2,93.7,222.2L93.7,222.2z M96,222.1v-1.5l-0.2-0.4v-2.7c0-0.5-0.2-0.9-0.5-1.1c-0.3-0.3-0.8-0.4-1.3-0.4
			s-0.9,0-1.2,0.2c-0.4,0.1-0.8,0.3-1,0.6l-0.8-1.6c0.5-0.3,0.9-0.6,1.5-0.7c0.6-0.2,1.2-0.3,1.8-0.3c1.2,0,2.1,0.3,2.7,0.9
			c0.7,0.6,0.9,1.4,0.9,2.6v4.4H96L96,222.1z"/>
		<path class="st4" d="M101.3,213.2c-0.5,0-0.8-0.1-1-0.4c-0.3-0.3-0.4-0.6-0.4-0.9s0.1-0.7,0.4-0.9c0.3-0.3,0.6-0.4,1-0.4
			s0.8,0.1,1,0.4c0.3,0.2,0.4,0.6,0.4,0.9c0,0.3-0.1,0.7-0.4,0.9C102.1,213,101.8,213.1,101.3,213.2L101.3,213.2z M100.2,222.1v-7.8
			h2.3v7.8H100.2z"/>
		<path class="st4" d="M107.8,221.7c-0.7,0-1.3-0.2-2-0.5c-0.6-0.3-1-0.8-1.4-1.3c-0.4-0.6-0.6-1.2-0.6-2c0-0.8,0.2-1.4,0.6-2
			c0.4-0.6,0.9-1,1.4-1.3c0.6-0.3,1.2-0.5,2-0.5s1.2,0.1,1.8,0.4c0.5,0.3,0.9,0.7,1.1,1.2c0.3,0.6,0.4,1.2,0.4,2.2s-0.1,1.6-0.4,2.2
			c-0.3,0.6-0.7,0.9-1.1,1.2C109.2,221.6,108.5,221.7,107.8,221.7L107.8,221.7z M108.2,225c-0.8,0-1.4,0-2.2-0.3
			c-0.7-0.2-1.2-0.5-1.7-0.9l0.9-1.6c0.4,0.3,0.8,0.5,1.2,0.7c0.5,0.2,1,0.3,1.5,0.3c0.8,0,1.4-0.2,1.7-0.6c0.4-0.4,0.6-0.9,0.6-1.6
			v-1.1l0.2-2v-2v-1.7h2.2v6.5c0,1.4-0.4,2.6-1.1,3.2C110.8,224.6,109.7,225,108.2,225L108.2,225z M108.3,219.9c0.4,0,0.8,0,1-0.3
			c0.3-0.2,0.6-0.4,0.8-0.7c0.2-0.3,0.3-0.7,0.3-1c0-0.4,0-0.8-0.3-1c-0.3-0.3-0.4-0.5-0.8-0.7c-0.4-0.2-0.7-0.2-1-0.2
			c-0.4,0-0.8,0-1,0.2c-0.3,0.2-0.6,0.4-0.8,0.7c-0.2,0.3-0.3,0.7-0.3,1c0,0.4,0,0.8,0.3,1c0.3,0.3,0.5,0.5,0.8,0.7
			C107.6,219.8,107.9,219.9,108.3,219.9z"/>
		<path class="st4" d="M114.7,222.1v-7.8h2.2v2.2l-0.4-0.7c0.3-0.6,0.7-0.9,1.2-1.2c0.6-0.3,1.1-0.4,1.8-0.4c0.7,0,1.1,0.1,1.7,0.4
			c0.5,0.3,0.9,0.7,1.1,1.1c0.3,0.5,0.4,1.1,0.4,2v4.4h-2.3v-4.2c0-0.7-0.1-1.1-0.4-1.4c-0.3-0.3-0.7-0.5-1.1-0.5s-0.7,0-0.9,0.2
			c-0.3,0.2-0.5,0.4-0.7,0.7c-0.2,0.3-0.3,0.7-0.3,1.2v3.9L114.7,222.1L114.7,222.1z"/>
		<path class="st4" d="M128.9,222.1v-10.8h2.3v4.5l-0.2,2.3v2.4v1.6H128.9L128.9,222.1z M133.4,222.2c-0.7,0-1.2-0.2-1.8-0.5
			c-0.5-0.3-0.9-0.8-1.1-1.3c-0.3-0.6-0.4-1.3-0.4-2.3s0.1-1.7,0.4-2.3c0.3-0.6,0.7-1,1.1-1.3s1-0.5,1.7-0.5s1.4,0.2,2,0.5
			s1,0.8,1.4,1.4c0.4,0.6,0.5,1.3,0.5,2.1c0,0.8-0.2,1.5-0.5,2.1c-0.4,0.6-0.9,1-1.4,1.4c-0.6,0.4-1.2,0.5-2,0.5L133.4,222.2z
			 M133.1,220.4c0.4,0,0.8,0,1-0.3c0.3-0.3,0.6-0.4,0.8-0.8c0.2-0.3,0.3-0.8,0.3-1.1s0-0.9-0.3-1.1c-0.2-0.3-0.4-0.6-0.8-0.8
			c-0.3-0.2-0.7-0.3-1-0.3c-0.4,0-0.8,0-1,0.3c-0.3,0.2-0.6,0.4-0.8,0.8c-0.2,0.3-0.3,0.7-0.3,1.1s0,0.9,0.3,1.1
			c0.2,0.3,0.4,0.6,0.8,0.8C132.3,220.3,132.7,220.4,133.1,220.4z"/>
		<path class="st4" d="M142.2,222.2c-0.7,0-1.2-0.1-1.7-0.4c-0.5-0.3-0.9-0.7-1.1-1.1c-0.3-0.5-0.4-1.2-0.4-2v-4.4h2.3v4.1
			c0,0.7,0.1,1.1,0.4,1.4c0.3,0.3,0.7,0.5,1.1,0.5s0.7,0,0.9-0.2c0.3-0.2,0.5-0.4,0.7-0.7c0.2-0.3,0.3-0.7,0.3-1.1v-3.9h2.3v7.8
			h-2.2V220l0.4,0.7c-0.3,0.6-0.7,0.9-1.1,1.2C143.6,222.2,143,222.3,142.2,222.2L142.2,222.2z"/>
		<path class="st4" d="M152.2,222.2c-0.8,0-1.4-0.2-2-0.5c-0.6-0.4-1-0.8-1.4-1.4c-0.4-0.6-0.5-1.3-0.5-2.1c0-0.8,0.2-1.5,0.5-2.1
			c0.4-0.6,0.9-1,1.4-1.4c0.6-0.4,1.2-0.5,2-0.5c0.8,0,1.2,0.2,1.7,0.5c0.5,0.3,0.9,0.8,1.1,1.3c0.3,0.6,0.4,1.3,0.4,2.3
			c0,0.9-0.1,1.7-0.4,2.3c-0.3,0.6-0.7,1-1.1,1.3c-0.5,0.3-1,0.5-1.8,0.5L152.2,222.2z M152.6,220.4c0.4,0,0.8,0,1-0.3
			c0.3-0.2,0.6-0.4,0.8-0.8c0.2-0.3,0.3-0.8,0.3-1.1s0-0.9-0.3-1.1c-0.2-0.3-0.4-0.6-0.8-0.8c-0.3-0.2-0.7-0.3-1-0.3s-0.7,0-1,0.3
			c-0.3,0.2-0.6,0.4-0.8,0.8c-0.2,0.3-0.3,0.7-0.3,1.1s0,0.9,0.3,1.1c0.2,0.3,0.4,0.6,0.8,0.8C151.9,220.3,152.2,220.4,152.6,220.4z
			 M154.7,222.1v-4l-0.1-2.3v-4.5h2.3v10.8H154.7L154.7,222.1z"/>
		<path class="st4" d="M162.3,221.7c-0.7,0-1.3-0.2-2-0.5c-0.6-0.3-1-0.8-1.4-1.3c-0.4-0.6-0.6-1.2-0.6-2c0-0.8,0.2-1.4,0.6-2
			c0.4-0.6,0.9-1,1.4-1.3c0.6-0.3,1.2-0.5,2-0.5c0.8,0,1.2,0.1,1.8,0.4c0.5,0.3,0.9,0.7,1.1,1.2c0.3,0.6,0.4,1.2,0.4,2.2
			s-0.1,1.6-0.4,2.2c-0.3,0.6-0.7,0.9-1.1,1.2C163.6,221.6,162.9,221.7,162.3,221.7L162.3,221.7z M162.6,225c-0.8,0-1.4,0-2.2-0.3
			c-0.7-0.2-1.2-0.5-1.7-0.9l0.9-1.6c0.4,0.3,0.8,0.5,1.2,0.7c0.5,0.2,1,0.3,1.5,0.3c0.8,0,1.4-0.2,1.7-0.6c0.4-0.4,0.6-0.9,0.6-1.6
			v-1.1l0.2-2v-2v-1.7h2.2v6.5c0,1.4-0.4,2.6-1.1,3.2C165.2,224.6,164.2,225,162.6,225L162.6,225z M162.7,219.9c0.4,0,0.8,0,1-0.3
			c0.3-0.2,0.6-0.4,0.8-0.7c0.2-0.3,0.3-0.7,0.3-1c0-0.4,0-0.8-0.3-1c-0.3-0.3-0.4-0.5-0.8-0.7c-0.4-0.2-0.7-0.2-1-0.2
			c-0.4,0-0.8,0-1,0.2c-0.3,0.2-0.6,0.4-0.8,0.7c-0.2,0.3-0.3,0.7-0.3,1c0,0.4,0,0.8,0.3,1c0.3,0.3,0.5,0.5,0.8,0.7
			C162,219.8,162.4,219.9,162.7,219.9z"/>
		<path class="st4" d="M172.9,222.2c-0.9,0-1.7-0.2-2.4-0.6s-1.2-0.9-1.5-1.4c-0.4-0.6-0.6-1.3-0.6-2.1c0-0.8,0.2-1.5,0.6-2.1
			c0.4-0.6,0.9-1.1,1.5-1.4c0.7-0.4,1.3-0.5,2.2-0.5c0.9,0,1.4,0.2,2.1,0.5c0.7,0.3,1.1,0.8,1.4,1.4c0.4,0.6,0.6,1.3,0.6,2.2
			c0,0.9,0,0.2,0,0.3c0,0.1,0,0.2,0,0.3h-6.3v-1.3h5.2l-0.9,0.4c0-0.4,0-0.8-0.2-1c-0.2-0.3-0.4-0.6-0.7-0.7c-0.3-0.1-0.7-0.3-1-0.3
			c-0.4,0-0.8,0-1,0.3c-0.3,0.2-0.6,0.4-0.7,0.8c-0.2,0.3-0.3,0.7-0.3,1v0.4c0,0.5,0.1,0.9,0.3,1.1c0.2,0.3,0.5,0.6,0.8,0.8
			c0.4,0.2,0.8,0.3,1.2,0.3s0.8,0,1-0.2c0.3-0.1,0.6-0.3,0.9-0.6l1.2,1.3c-0.4,0.4-0.9,0.8-1.3,0.9c-0.6,0.2-1.1,0.3-1.9,0.3
			L172.9,222.2z"/>
		<path class="st4" d="M177.4,216.1v-1.7h5.4v1.7H177.4z M181.4,222.2c-0.9,0-1.6-0.2-2.2-0.7c-0.5-0.5-0.8-1.1-0.8-2.1v-6.9h2.3
			v6.8c0,0.3,0,0.6,0.3,0.8c0.2,0.2,0.4,0.3,0.7,0.3c0.3,0,0.7-0.1,0.9-0.3l0.6,1.6c-0.2,0.2-0.5,0.3-0.9,0.4
			S181.7,222.2,181.4,222.2L181.4,222.2z"/>
	</g>
</g>
<g>
	<path class="st1" d="M408.6,230.6H278.2c-7.4,0-13.4-6-13.4-13.4v0c0-7.4,6-13.4,13.4-13.4h130.4c7.4,0,13.4,6,13.4,13.4v0
		C422,224.6,416,230.6,408.6,230.6z"/>
	<g>
		<path class="st4" d="M317.6,223.3v-10.7h2.2v4l0.1,2.3v4.4L317.6,223.3L317.6,223.3z M322.2,220.6c-0.7,0-1.2-0.2-1.7-0.5
			c-0.5-0.3-0.9-0.8-1.1-1.3s-0.4-1.3-0.4-2.3s0.1-1.7,0.4-2.3c0.3-0.6,0.7-1,1.1-1.3c0.5-0.3,1-0.5,1.8-0.5c0.8,0,1.4,0.2,2,0.5
			c0.6,0.3,1,0.8,1.4,1.4c0.4,0.6,0.5,1.3,0.5,2.1c0,0.8-0.2,1.5-0.5,2.2c-0.4,0.6-0.9,1-1.4,1.4C323.7,220.4,323,220.5,322.2,220.6
			L322.2,220.6z M321.8,218.8c0.4,0,0.8,0,1-0.3c0.3-0.3,0.6-0.4,0.8-0.8c0.2-0.3,0.3-0.8,0.3-1.1s0-0.9-0.3-1.1
			c-0.2-0.3-0.4-0.6-0.8-0.8c-0.3-0.2-0.7-0.3-1-0.3c-0.4,0-0.8,0-1,0.3c-0.3,0.2-0.6,0.4-0.8,0.8c-0.2,0.3-0.3,0.7-0.3,1.1
			s0,0.9,0.3,1.1c0.2,0.3,0.4,0.6,0.8,0.8C321.1,218.7,321.4,218.8,321.8,218.8z"/>
		<path class="st4" d="M329.9,220.6c-0.6,0-1.1-0.1-1.5-0.3c-0.5-0.2-0.8-0.5-1-0.9c-0.3-0.4-0.4-0.8-0.4-1.2s0.1-0.9,0.4-1.2
			c0.2-0.4,0.6-0.7,1-0.9c0.5-0.2,1.1-0.3,2-0.3h2.1v1.3h-1.8c-0.6,0-0.9,0-1.1,0.3c-0.2,0.2-0.3,0.4-0.3,0.7c0,0.3,0.1,0.6,0.4,0.7
			c0.2,0.2,0.6,0.3,0.9,0.3c0.4,0,0.8,0,1-0.3c0.3-0.2,0.6-0.5,0.7-0.8l0.4,1c-0.2,0.5-0.5,0.9-0.9,1.1
			C331.3,220.5,330.7,220.6,329.9,220.6L329.9,220.6z M332.3,220.5V219l-0.2-0.4v-2.7c0-0.5-0.2-0.9-0.5-1.1
			c-0.3-0.3-0.8-0.4-1.3-0.4c-0.6,0-0.9,0-1.2,0.2c-0.4,0.1-0.8,0.3-1,0.6l-0.8-1.6c0.5-0.3,0.9-0.6,1.5-0.7
			c0.6-0.2,1.2-0.3,1.8-0.3c1.2,0,2.1,0.3,2.7,0.9c0.7,0.6,0.9,1.4,0.9,2.6v4.4H332.3L332.3,220.5z"/>
		<path class="st4" d="M337.3,223.4c-0.4,0-0.8,0-1.2-0.2c-0.4-0.1-0.8-0.3-0.9-0.6l0.9-1.6c0.2,0.2,0.4,0.3,0.6,0.4
			c0.2,0,0.5,0.1,0.7,0.1s0.6,0,0.8-0.2c0.2-0.2,0.4-0.4,0.5-0.8l0.4-0.9l0.2-0.3l2.8-6.7h2.2l-3.5,8.3c-0.3,0.7-0.6,1.1-0.9,1.5
			c-0.3,0.4-0.7,0.6-1,0.8C338.2,223.4,337.8,223.4,337.3,223.4L337.3,223.4z M338.6,220.8l-3.5-8.1h2.4l2.7,6.5L338.6,220.8z"/>
		<path class="st4" d="M348.4,220.6c-0.9,0-1.5-0.2-2.2-0.6c-0.7-0.4-1.1-0.9-1.5-1.4c-0.4-0.6-0.6-1.3-0.6-2.1
			c0-0.8,0.2-1.5,0.6-2.1c0.4-0.6,0.9-1,1.5-1.4c0.7-0.4,1.4-0.5,2.2-0.5c0.8,0,1.6,0.2,2.3,0.5c0.7,0.4,1.1,0.9,1.5,1.4
			c0.4,0.6,0.6,1.3,0.6,2.1c0,0.8-0.2,1.5-0.6,2.1c-0.4,0.6-0.9,1-1.5,1.4C350.1,220.4,349.3,220.6,348.4,220.6z M348.4,218.8
			c0.4,0,0.8,0,1-0.3c0.3-0.3,0.6-0.4,0.8-0.8c0.2-0.3,0.3-0.8,0.3-1.1s0-0.9-0.3-1.1c-0.2-0.3-0.4-0.6-0.8-0.8
			c-0.3-0.2-0.7-0.3-1-0.3c-0.4,0-0.8,0-1,0.3c-0.3,0.2-0.6,0.4-0.8,0.8c-0.2,0.3-0.3,0.7-0.3,1.1s0,0.9,0.3,1.1
			c0.2,0.3,0.4,0.6,0.8,0.8C347.7,218.7,348.1,218.8,348.4,218.8z"/>
		<path class="st4" d="M357.6,220.6c-0.7,0-1.2-0.1-1.7-0.4s-0.9-0.7-1.1-1.1s-0.4-1.2-0.4-2v-4.4h2.3v4.1c0,0.7,0.1,1.1,0.4,1.4
			c0.3,0.3,0.7,0.5,1.1,0.5s0.7,0,0.9-0.2c0.3-0.2,0.5-0.4,0.7-0.7c0.2-0.3,0.3-0.7,0.3-1.1v-3.9h2.3v7.8h-2.2v-2.2l0.4,0.7
			c-0.3,0.6-0.7,0.9-1.1,1.2C358.9,220.6,358.4,220.7,357.6,220.6L357.6,220.6z"/>
		<path class="st4" d="M363.4,214.4v-1.7h5.4v1.7H363.4z M367.4,220.6c-0.9,0-1.6-0.2-2.2-0.7c-0.5-0.5-0.8-1.1-0.8-2.1v-6.9h2.3
			v6.8c0,0.3,0,0.6,0.3,0.8c0.2,0.2,0.4,0.3,0.7,0.3s0.7-0.1,0.9-0.3l0.6,1.6c-0.2,0.2-0.5,0.3-0.9,0.4
			C368,220.6,367.7,220.6,367.4,220.6L367.4,220.6z"/>
	</g>
</g>
<path class="st1" d="M115.8,424.6c50.9,0,92.2-41.2,92.2-92.2s-41.2-92.2-92.2-92.2s-92.2,41.2-92.2,92.2S64.8,424.6,115.8,424.6z"
	/>
<path class="st5" d="M69.7,535.2c38.2,0,69.1-30.9,69.1-69.1S107.8,397,69.7,397S0.6,427.9,0.6,466.1S31.5,535.2,69.7,535.2z"/>
<path class="st3" d="M115.8,423.1c7.2,0,13.1-5.8,13.1-13.1S123,397,115.8,397s-13.1,5.8-13.1,13.1S108.5,423.1,115.8,423.1z"/>
<path class="st1" d="M113.1,404.8c-1.5,0-2.2,0.8-2.2,2.3v5.7c0,1.5,0.8,2.3,2.2,2.3s2.2-0.8,2.2-2.3v-5.7
	C115.4,405.6,114.6,404.8,113.1,404.8z M113.7,413.1c0,0.4-0.2,0.6-0.5,0.6c-0.2,0-0.5-0.2-0.5-0.6v-6.4c0-0.4,0.2-0.6,0.5-0.6
	c0.2,0,0.5,0.2,0.5,0.6V413.1z M120,410.6c0.4-0.4,0.5-0.8,0.5-1.5v-2.3c0-1.3-0.7-2-2.1-2h-2.3V415h1.7v-3.7h0.6l0.5,3.7h1.7
	L120,410.6L120,410.6z M117.9,406.3h0.3c0.4,0,0.6,0.2,0.6,0.7v2.2c0,0.5-0.2,0.8-0.6,0.8h-0.3V406.3L117.9,406.3z"/>
<g>
	<path class="st5" d="M81.3,289.5c-0.2,1.7-0.6,3-1.2,3.9c-0.7,1-1.8,1.5-3.6,1.7v3.5h3.1v38.2h5.4v-47.2H81.3L81.3,289.5z"/>
	<path class="st5" d="M94.9,289.2c-4.4,0-7,2.5-7,6.9V330c0,4.5,2.6,6.9,7,6.9c4.4,0,7-2.5,7-6.9v-33.9
		C101.9,291.7,99.3,289.2,94.9,289.2z M96.4,330.4c0,1.4-0.5,2.1-1.5,2.1c-1,0-1.5-0.7-1.5-2.1v-34.6c0-1.3,0.5-2,1.6-2
		s1.5,0.7,1.5,2L96.4,330.4L96.4,330.4z"/>
	<path class="st5" d="M106.4,290.4c-0.8,0.8-1.2,2-1.2,3.4v4.5c0,2.8,1.8,4.7,4.6,4.7s4.6-1.8,4.6-4.7v-4.5c0-1.5-0.4-2.5-1.2-3.4
		s-2-1.2-3.4-1.2C108.4,289.1,107.2,289.5,106.4,290.4L106.4,290.4z M105.3,336.7h5.3l14.3-47.5h-5.2L105.3,336.7z M110.5,298.4
		c0,0.6-0.2,0.9-0.8,0.9s-0.8-0.3-0.8-0.9v-4.6c0-0.6,0.2-0.9,0.8-0.9s0.8,0.3,0.8,0.9V298.4z M120.7,323.2c-2.8,0-4.6,1.8-4.6,4.6
		v4.6c0,2.8,1.8,4.6,4.6,4.6c2.8,0,4.6-1.8,4.6-4.6v-4.6C125.3,324.9,123.5,323.2,120.7,323.2z M121.4,332.5c0,0.6-0.2,0.9-0.8,0.9
		s-0.8-0.3-0.8-0.9v-4.7c0-0.6,0.2-0.8,0.8-0.9c0.5,0,0.8,0.3,0.8,0.9V332.5z"/>
	<path class="st5" d="M136.3,289.5h-7.8v33.4h3.9v-15.5h3.7V304h-3.7v-11.1h3.9V289.5L136.3,289.5z"/>
	<path class="st5" d="M141.7,307.3h3.8v-3.4h-3.8v-11.1h4.1v-3.4h-8v33.4h8.1v-3.5h-4.1L141.7,307.3L141.7,307.3z"/>
	<path class="st5" d="M151.6,307.3h3.8v-3.4h-3.8v-11.1h4.1v-3.4h-8v33.4h8.1v-3.5h-4.1L151.6,307.3L151.6,307.3z"/>
	<path class="st5" d="M104.5,352.8c0.6,0,1.1-0.2,1.5-0.6s0.5-0.9,0.5-1.6v-2.8c0-0.7-0.2-1.2-0.5-1.5c-0.4-0.4-0.8-0.5-1.5-0.5
		h-2.3v10.1h1.7v-3.1L104.5,352.8L104.5,352.8z M103.9,351.4v-4.2h0.4c0.4,0,0.6,0.2,0.6,0.7v2.8c0,0.5-0.2,0.7-0.6,0.7H103.9z"/>
	<path class="st5" d="M111.6,355.9l-1.2-10.1h-2.6l-1.2,10.1h1.8l0.2-2.2h1.2l0.2,2.2H111.6z M108.9,348.8l0.2-1.5h0.2l0.2,1.5
		l0.2,3.5h-0.9L108.9,348.8L108.9,348.8z"/>
	<path class="st5" d="M112.1,355.9h1.7v-10.1h-1.7V355.9z"/>
	<path class="st5" d="M114.7,345.7v10.1h2.2c0.6,0,1.2-0.2,1.5-0.5s0.5-0.9,0.5-1.6v-5.9c0-1.5-0.8-2.2-2.1-2.2L114.7,345.7
		L114.7,345.7z M117.3,353.9c0,0.4-0.2,0.6-0.5,0.6h-0.5v-7.3h0.5c0.3,0,0.5,0.2,0.5,0.6L117.3,353.9L117.3,353.9z"/>
	<path class="st5" d="M121.5,355.9h1.7v-10.1h-1.7V355.9z"/>
	<path class="st5" d="M127,351.2l-1.1-5.5h-1.7v10.1h1.6v-5.9c-0.1,0,0,0,0,0l1.2,5.9h1.6v-10.1H127L127,351.2
		C127,351.2,127,351.2,127,351.2L127,351.2z"/>
	<g>
		<path class="st5" d="M110.1,379.6l-2-17.4h-4.5l-2.1,17.4h2.9l0.3-3.8h2l0.3,3.8H110.1L110.1,379.6z M105.5,367.6l0.2-2.5h0.2
			l0.2,2.5l0.5,6.1H105L105.5,367.6L105.5,367.6z"/>
		<path class="st5" d="M111.4,362.3v17.4h3.8c1.1,0,1.9-0.3,2.5-0.9c0.6-0.6,0.9-1.5,0.9-2.7V366c0-2.5-1.3-3.7-3.5-3.7H111.4
			L111.4,362.3z M115.8,376.2c0,0.6-0.3,1-0.8,1h-0.7v-12.4h0.8c0.5,0,0.8,0.4,0.8,1L115.8,376.2L115.8,376.2z"/>
		<path class="st5" d="M127.8,379.6l-2-17.4h-4.5l-2.1,17.4h2.9l0.3-3.8h2l0.3,3.8H127.8L127.8,379.6z M123.2,367.6l0.2-2.5h0.2
			l0.2,2.5l0.5,6.1h-1.6L123.2,367.6L123.2,367.6z"/>
	</g>
</g>
<g>
	<path class="st1" d="M343.4,423.8c50.9,0,92.2-41.2,92.2-92.2s-41.2-92.2-92.2-92.2s-92.2,41.2-92.2,92.2S292.5,423.8,343.4,423.8z
		"/>
	<g>
		<path class="st5" d="M308.9,288.7c-0.2,1.7-0.6,3-1.2,3.9c-0.7,1-1.8,1.5-3.6,1.7v3.5h3.1v38.2h5.4v-47.2L308.9,288.7L308.9,288.7
			z"/>
		<path class="st5" d="M322.5,288.5c-4.4,0-7,2.5-7,6.9v33.9c0,4.5,2.6,6.9,7,6.9c4.4,0,7-2.5,7-6.9v-33.9
			C329.5,290.9,327,288.5,322.5,288.5z M324,329.6c0,1.4-0.5,2.1-1.5,2.1c-1,0-1.5-0.7-1.5-2.1v-34.6c0-1.3,0.5-2,1.6-2
			c1.1,0,1.5,0.7,1.5,2L324,329.6L324,329.6z"/>
		<path class="st5" d="M334,289.6c-0.8,0.8-1.2,2-1.2,3.4v4.5c0,2.8,1.8,4.7,4.6,4.7c2.8,0,4.6-1.8,4.6-4.7V293
			c0-1.5-0.4-2.5-1.2-3.4c-0.8-0.8-2-1.2-3.4-1.2C336,288.4,334.9,288.8,334,289.6L334,289.6z M332.9,335.9h5.3l14.3-47.5h-5.2
			L332.9,335.9z M338.1,297.6c0,0.6-0.2,0.9-0.8,0.9c-0.5,0-0.8-0.3-0.8-0.9V293c0-0.6,0.2-0.9,0.8-0.9c0.5,0,0.8,0.3,0.8,0.9V297.6
			z M348.2,322.4c-2.8,0-4.6,1.8-4.6,4.6v4.6c0,2.8,1.8,4.6,4.6,4.6c2.8,0,4.6-1.8,4.6-4.6V327C352.8,324.2,351.1,322.4,348.2,322.4
			z M349,331.7c0,0.6-0.2,0.9-0.8,0.9c-0.5,0-0.8-0.3-0.8-0.9V327c0-0.6,0.2-0.8,0.8-0.9c0.5,0,0.8,0.3,0.8,0.9V331.7z"/>
		<path class="st5" d="M364,288.7h-7.8v33.4h3.9v-15.5h3.7v-3.4h-3.7v-11.1h3.9L364,288.7L364,288.7z"/>
		<path class="st5" d="M369.4,306.5h3.8v-3.4h-3.8v-11.1h4.1v-3.4h-8v33.4h8.1v-3.5h-4.1L369.4,306.5L369.4,306.5z"/>
		<path class="st5" d="M379.3,306.5h3.8v-3.4h-3.8v-11.1h4.1v-3.4h-8v33.4h8.1v-3.5h-4.1L379.3,306.5L379.3,306.5z"/>
		<path class="st5" d="M322.9,370.2v6.1c0,0.5-0.2,0.8-0.7,0.8c-0.5,0-0.7-0.3-0.7-0.8v-13.1c0-0.5,0.3-0.8,0.7-0.8s0.7,0.3,0.7,0.8
			v5.5h2.2v-5.5c0-1.8-0.9-2.7-2.8-2.7c-1.8,0-2.8,1-2.8,3v12.4c0,1.9,1,3,2.8,3c1.8,0,2.8-0.9,2.8-2.7v-6.1H322.9z"/>
		<path class="st5" d="M332,378.9l-1.6-18.1h-3.3l-1.6,18.1h2.2l0.2-4.4h1.6l0.3,4.4H332L332,378.9z M328.4,365.7l0.2-2.8h0.2
			l0.2,2.8l0.5,7H328L328.4,365.7L328.4,365.7z"/>
		<path class="st5" d="M338.1,363c0-1.5-1-2.4-2.8-2.4c-1.8,0-1.6,0.2-2.1,0.7c-0.5,0.5-0.8,1.1-0.8,1.8v4.2c0,1.4,0.5,2.2,1.8,2.6
			l1,0.4c0.5,0.2,0.8,0.7,0.8,1.2v4.8c0,0.4-0.2,0.7-0.7,0.7c-0.5,0-0.7-0.2-0.7-0.8v-4.8h-2.2v5c0,1.5,1.1,2.5,2.8,2.5
			s1.5-0.2,2.1-0.7c0.5-0.5,0.8-1.2,0.8-2v-5.1c0-0.8-0.2-1.3-0.5-1.7c-0.3-0.4-0.8-0.7-1.4-1l-1-0.5c-0.5-0.2-0.7-0.6-0.7-1.2v-4
			c0-0.4,0.2-0.6,0.6-0.6s0.7,0.2,0.7,0.7v4h2.1v-4.1L338.1,363z"/>
		<path class="st5" d="M342.8,368.6h-1.3v-7.8h-2.2v18.1h2.2v-8.4h1.3v8.4h2.2v-18.1h-2.2V368.6z"/>
		<path class="st5" d="M349.2,361.4c-0.5,0.5-0.8,1.2-0.8,2.2v12.4c0,1.9,1,3,2.8,3s2.9-1.1,2.9-3v-12.4c0-1-0.2-1.7-0.8-2.2
			c-0.5-0.5-1.2-0.8-2.2-0.8C350.4,360.6,349.7,360.9,349.2,361.4L349.2,361.4z M352.1,376.4c0,0.5-0.3,0.8-0.7,0.8
			s-0.7-0.3-0.7-0.8v-13.1c0-0.5,0.2-0.8,0.7-0.8c0.5,0,0.7,0.3,0.7,0.8V376.4z"/>
		<path class="st5" d="M358.8,360.8v15.7c0,0.5-0.2,0.8-0.6,0.8c-0.4,0-0.7-0.2-0.7-0.8v-15.7h-2.2v15.8c0,1.6,1,2.5,2.8,2.5
			s2.8-0.8,2.8-2.5v-15.7L358.8,360.8L358.8,360.8z"/>
		<path class="st5" d="M361.7,360.8v1.8h1.7v16.3h2.2v-16.3h1.7v-1.8H361.7z"/>
		<g>
			<path class="st5" d="M332.4,352.2l-0.2-2.2l-0.4-4.9h-1.7v10.1h1.1v-7.4l0,0l0.5,7.4h1.2l0.6-7.4h0.1v3.8l-0.1,3.6h1.1v-10.1H333
				l-0.5,4.9L332.4,352.2L332.4,352.2z"/>
			<path class="st5" d="M343.2,350l1.1-4.8H343l-0.8,4.5h-0.1v-4.5h-1.2v10.1h1.2v-4.7h0.1l0.8,4.7h1.3L343.2,350L343.2,350z"/>
			<path class="st5" d="M351.1,350.7c0.3-0.3,0.4-0.6,0.4-1.1v-3.1c0-1-0.5-1.5-1.5-1.5h-1.6v10.2h1.2v-3.9h0.5l0.4,3.9h1.2
				L351.1,350.7L351.1,350.7z M349.5,346.1h0.2c0.3,0,0.5,0.2,0.5,0.5v3.1c0,0.4-0.2,0.6-0.5,0.6h-0.2V346.1z"/>
			<path class="st5" d="M355.1,346.3c0-0.8-0.5-1.3-1.5-1.3c-1,0-0.9,0.2-1.2,0.4c-0.3,0.2-0.4,0.6-0.4,1v2.4c0,0.8,0.3,1.2,1,1.5
				l0.5,0.2c0.3,0.2,0.5,0.4,0.5,0.7v2.7c0,0.2-0.2,0.4-0.4,0.4s-0.4-0.2-0.4-0.4v-2.7h-1.2v2.8c0,0.8,0.6,1.4,1.6,1.4
				c1,0,0.8-0.2,1.2-0.4c0.3-0.2,0.5-0.6,0.5-1.1V351c0-0.4-0.1-0.7-0.2-0.9c-0.2-0.2-0.5-0.4-0.8-0.5l-0.5-0.2
				c-0.2-0.2-0.4-0.3-0.4-0.6v-2.2c0-0.2,0.2-0.3,0.4-0.3s0.4,0.2,0.4,0.4v2.2h1.2v-2.3L355.1,346.3z"/>
			<path class="st5" d="M340.2,355.2l-1.2-10.1h-2.6l-1.2,10.1h1.7l0.2-2.2h1.2l0.2,2.2H340.2L340.2,355.2z M337.5,348.1l0.2-1.5
				h0.1l0.2,1.5l0.2,3.5h-0.9L337.5,348.1z"/>
			<path class="st5" d="M346.4,350.5h1.2v-1h-1.2v-3.4h1.2v-1h-2.5v10.1h2.5v-1.1h-1.2V350.5L346.4,350.5z"/>
		</g>
	</g>
</g>
<g>
	<path class="st1" d="M42.4,443.7l0.8-17.7h7.1l0.3-4.4H38.1L37,445.9l5.1,1.1c0.2-0.9,0.8-1.4,1.6-1.4c1,0,1.5,0.5,1.5,1.6v15.6
		c0,1.1-0.5,1.7-1.6,1.7s-1.7-0.6-1.7-1.9v-14.1h-5.2v13.8c0,4.5,2.5,6.8,6.9,6.8s7.1-2.4,7.1-6.8v-15.7c0-3.5-1.5-5.4-4.1-5.4
		c-1.8,0-3.2,0.8-4.1,2.5L42.4,443.7L42.4,443.7z"/>
	<path class="st1" d="M54.9,422.5c-0.8,0.8-1.2,2-1.2,3.4v4.5c0,2.8,1.8,4.7,4.6,4.7s4.6-1.8,4.6-4.7v-4.5c0-1.5-0.4-2.5-1.2-3.4
		c-0.8-0.8-2-1.2-3.4-1.2C56.9,421.2,55.8,421.6,54.9,422.5L54.9,422.5z M53.9,468.8h5.3l14.3-47.5h-5.2
		C68.2,421.3,53.9,468.8,53.9,468.8z M59,430.5c0,0.6-0.2,0.9-0.8,0.9s-0.8-0.3-0.8-0.9v-4.6c0-0.6,0.2-0.9,0.8-0.9s0.8,0.3,0.8,0.9
		V430.5L59,430.5z M69.2,455.3c-2.8,0-4.6,1.8-4.6,4.6v4.6c0,2.8,1.8,4.6,4.6,4.6s4.6-1.8,4.6-4.6v-4.6
		C73.8,457,72.1,455.3,69.2,455.3z M69.9,464.5c0,0.6-0.2,0.9-0.8,0.9s-0.8-0.3-0.8-0.9v-4.7c0-0.6,0.2-0.8,0.8-0.9
		c0.5,0,0.8,0.3,0.8,0.9V464.5z"/>
	<path class="st1" d="M84.9,421.5h-7.8V455H81v-15.5h3.7v-3.4H81V425h3.9V421.5L84.9,421.5z"/>
	<path class="st1" d="M90.3,439.4h3.8V436h-3.8v-11.1h4.1v-3.4h-8V455h8.1v-3.5h-4.1V439.4z"/>
	<path class="st1" d="M100.2,439.4h3.8V436h-3.8v-11.1h4.1v-3.4h-8V455h8.1v-3.5h-4.1L100.2,439.4L100.2,439.4z"/>
	<path class="st1" d="M58.5,484.9c0.6,0,1.1-0.2,1.5-0.6c0.4-0.4,0.5-0.9,0.5-1.6v-2.8c0-0.7-0.2-1.2-0.5-1.5
		c-0.4-0.4-0.8-0.5-1.5-0.5h-2.3v10.1h1.7v-3.1L58.5,484.9L58.5,484.9z M57.9,483.5v-4.2h0.4c0.4,0,0.6,0.2,0.6,0.7v2.8
		c0,0.5-0.2,0.7-0.6,0.7L57.9,483.5L57.9,483.5z"/>
	<path class="st1" d="M65.5,488l-1.2-10.1h-2.6L60.5,488h1.8l0.2-2.2h1.2l0.2,2.2H65.5z M62.8,480.9l0.2-1.5h0.2l0.2,1.5l0.2,3.5
		h-0.9L62.8,480.9L62.8,480.9z"/>
	<path class="st1" d="M66,488h1.7v-10.1H66V488z"/>
	<path class="st1" d="M68.6,477.8V488h2.2c0.6,0,1.2-0.2,1.5-0.5c0.4-0.4,0.5-0.9,0.5-1.6v-5.9c0-1.5-0.8-2.2-2.1-2.2L68.6,477.8
		L68.6,477.8z M71.2,486c0,0.4-0.2,0.6-0.5,0.6h-0.5v-7.3h0.5c0.3,0,0.5,0.2,0.5,0.6L71.2,486L71.2,486z"/>
	<path class="st1" d="M75.4,488h1.7v-10.1h-1.7V488z"/>
	<path class="st1" d="M80.9,483.4l-1.1-5.5h-1.7V488h1.6v-5.9c-0.1,0,0,0,0,0l1.2,5.9h1.6v-10.1h-1.6V483.4
		C81,483.4,80.9,483.4,80.9,483.4z"/>
	<path class="st1" d="M37,501c-0.5-0.2-0.7-0.6-0.7-1.2v-4c0-0.4,0.2-0.6,0.6-0.6s0.7,0.2,0.7,0.7v4h2.1v-4.1c0-1.4-0.8-2.2-2.4-2.4
		v-2h-0.8v2c-1.5,0.2-2.4,1.2-2.4,2.5v4.2c0,1.4,0.5,2.2,1.8,2.6l1,0.4c0.5,0.2,0.8,0.7,0.8,1.2v4.8c0,0.4-0.2,0.7-0.7,0.7
		c-0.5,0-0.7-0.2-0.7-0.8v-4.8h-2.2v5c0,1.4,0.8,2.2,2.4,2.5v1.8h0.8v-1.8c0.8,0,1.4-0.3,1.8-0.8c0.5-0.5,0.7-1.1,0.7-1.8V504
		c0-0.8-0.2-1.3-0.5-1.7c-0.3-0.4-0.8-0.7-1.4-1l-1-0.5L37,501z"/>
	<path class="st1" d="M73.4,493.7v1.8h1.7v16.3h2.2v-16.3h1.7v-1.8H73.4z"/>
	<path class="st1" d="M80.1,494.3c-0.5,0.5-0.8,1.2-0.8,2.2v12.4c0,1.9,1,3,2.8,3c1.8,0,2.9-1.1,2.9-3v-12.4c0-1-0.2-1.7-0.8-2.2
		c-0.5-0.5-1.2-0.8-2.2-0.8C81.3,493.5,80.6,493.7,80.1,494.3L80.1,494.3z M83,509.2c0,0.5-0.3,0.8-0.7,0.8s-0.7-0.3-0.7-0.8v-13.1
		c0-0.5,0.2-0.8,0.7-0.8s0.7,0.3,0.7,0.8V509.2z"/>
	<path class="st1" d="M90.5,502.3l1.9-8.8h-2.2l-1.5,8h-0.2v-8h-2.2v18.1h2.2v-8.4h0.2l1.5,8.4h2.4L90.5,502.3L90.5,502.3z"/>
	<path class="st1" d="M95.3,503.3h2.1v-1.8h-2.1v-6h2.2v-1.8h-4.4v18.1h4.4v-1.8h-2.3L95.3,503.3L95.3,503.3z"/>
	<path class="st1" d="M102.4,504.2l-1.6-10.5h-2.2v18.1h2v-5.7l-0.2-5.6h0.2l1.8,11.2h2v-18.1h-2v5l0.2,5.6L102.4,504.2L102.4,504.2
		z"/>
	<g>
		<path class="st1" d="M45,506.3l-0.2-4.1l-0.8-9h-3.1v18.4h2v-13.5c-0.1,0,0,0,0,0l1,13.5H46l1.1-13.5h0.2l-0.2,6.9v6.6h2v-18.4H46
			l-0.8,9L45,506.3L45,506.3L45,506.3z"/>
		<path class="st1" d="M54.8,502.3l1.9-8.8h-2.2l-1.5,8.1h-0.2v-8.1h-2.2v18.4h2.2v-8.6h0.2l1.6,8.6H57L54.8,502.3L54.8,502.3z"/>
		<path class="st1" d="M63.3,503.8c0.5-0.5,0.8-1.2,0.8-2v-5.7c0-1.8-1-2.7-2.8-2.7h-2.9v18.4h2.2v-7.1h0.9l0.6,7.1h2.2
			C64.2,511.9,63.3,503.8,63.3,503.8z M60.5,495.3h0.5c0.6,0,0.9,0.3,0.9,1.1v5.5c0,0.7-0.3,1.1-0.9,1.1h-0.5V495.3L60.5,495.3z"/>
		<path class="st1" d="M70.6,495.8c0-1.5-1-2.4-2.8-2.4s-1.6,0.2-2.2,0.7c-0.5,0.5-0.8,1.1-0.8,1.8v4.3c0,1.4,0.5,2.2,1.8,2.6l1,0.5
			c0.5,0.2,0.8,0.7,0.8,1.2v4.8c0,0.4-0.2,0.7-0.7,0.7c-0.5,0-0.7-0.2-0.7-0.8v-4.8h-2.2v5c0,1.5,1.1,2.5,2.8,2.5
			c1.8,0,1.5-0.2,2.1-0.7c0.5-0.5,0.8-1.2,0.8-2v-5.1c0-0.8-0.2-1.3-0.5-1.7s-0.8-0.7-1.4-1l-1-0.5c-0.5-0.2-0.7-0.6-0.7-1.2v-4
			c0-0.4,0.2-0.6,0.6-0.6s0.7,0.2,0.7,0.7v4.1h2.2L70.6,495.8L70.6,495.8z"/>
	</g>
</g>
</svg>
