<svg width="154" height="40" viewBox="0 0 154 40" fill="none" xmlns="http://www.w3.org/2000/svg">
<path d="M8.77606 18.4663V31.8721C8.77606 32.7318 8.46759 33.1538 7.83522 33.1538C7.172 33.1538 6.83268 32.7318 6.83268 31.8721V9.05673C6.83268 8.19705 7.15658 7.77502 7.80437 7.77502C8.45216 7.77502 8.77606 8.19705 8.77606 9.05673V16.4187H15.3465V9.66632C15.3465 4.5864 12.8171 2.39811 7.80437 2.39811C2.6066 2.39811 -1.78e-09 5.19599 0 10.7917L6.15874e-09 30.1528C7.94371e-09 35.7641 2.6066 38.562 7.80437 38.562C12.8325 38.5776 15.3465 36.1705 15.3465 31.3407V18.4663H8.77606Z" fill="#F24139"/>
<path d="M25.7267 25.9423H23.737V1.16481H17.1048V36.7191H23.737V31.6006H25.7267V36.7191H32.3588V1.16481H25.7267V25.9423Z" fill="#F24139"/>
<path d="M34.3793 35.5543H41.0115V2.16374e-09L34.3793 0V35.5543Z" fill="#F24139"/>
<path d="M56.975 19.8105C57.9467 18.6539 58.4248 17.1221 58.4248 15.2308V9.35371C58.4248 5.08657 56.1113 2.69509 51.5304 2.69509H43.0474V38.2494H49.6796V25.2008H51.0677L52.0086 38.2494H58.8721L56.975 19.8105ZM49.6796 8.35335H50.2349C51.1757 8.35335 51.6384 8.96295 51.6384 10.1821V17.9951C51.623 19.4019 51.1603 20.1052 50.2349 20.1052H49.6796V8.35335Z" fill="#F24139"/>
<path d="M68.8512 26.4066C70.9334 26.4066 72.5992 25.7032 73.8331 24.2809C75.0515 22.8741 75.6685 21.0453 75.6685 18.7789V11.7139C75.6685 9.41624 75.0824 7.63435 73.8948 6.35265C72.7071 5.08657 71.0259 4.44572 68.8512 4.44572H60.2294V40H66.8616V26.4066H68.8512ZM66.8616 20.764V10.104H67.4939C68.4039 10.104 68.8512 10.6979 68.8512 11.8702V18.9665C68.8512 20.17 68.4039 20.764 67.4939 20.764H66.8616Z" fill="#F24139"/>
<path d="M83.6117 4.03693H76.9795V39.5912H88.501V33.933H83.6117V4.03693Z" fill="#F24139"/>
<path d="M96.1357 22.7153H101.565V17.3697H96.1357V8.35335H101.873V2.69509H89.5035V38.2494H101.966V32.5911H96.1357V22.7153Z" fill="#F24139"/>
<path d="M110.989 15.0432L110.726 11.5889L109.662 2.69509H102.429L107.796 30.8249V38.2494H114.428V30.7936L119.765 2.69509H112.685L111.683 11.5889L111.39 15.0432H110.989Z" fill="#F24139"/>
<path d="M132.491 19.006L124.31 18.6862C124.019 21.4424 124.592 24.3377 125.808 26.6628L138.015 26.6879C137.279 27.5974 129.362 28.3038 126.227 27.4249C128.384 30.7319 130.033 32.5369 134.22 31.6385C141.365 29.5804 139.103 18.917 132.491 19.006Z" fill="#F24139"/>
<path d="M151.042 19.7401L149.293 20.0405L146.317 22.2043C146.252 21.3974 146.115 20.5984 145.906 19.818C145.004 21.3171 142.871 20.5467 140.736 18.8223C143.672 19.5705 144.311 14.8479 141.289 14.7311C139.946 14.706 138.939 16.1523 139.374 17.4623C132.131 8.48987 147.069 9.73589 146.363 17.7682L151.017 19.2117C150.486 6.22035 133.167 1.54225 126.517 12.3892C128.661 10.8345 131.322 9.9417 134.099 10.0168C134.352 10.0224 134.462 10.3394 134.282 10.523C132.88 11.9637 134.5 15.9687 137.878 19.4704C141.348 23.1194 145.117 24.4683 146.572 23.2612C146.572 27.2079 144.905 30.7512 142.259 33.1765C147.499 31.2045 151.238 25.845 151.042 19.7401ZM141.829 16.4833C142.374 16.4833 142.374 17.3455 141.829 17.3455C141.284 17.3455 141.287 16.486 141.829 16.4833ZM139.697 16.3609C139.702 15.2539 141.324 15.2539 141.33 16.3609C141.324 17.4678 139.702 17.4678 139.697 16.3609Z" fill="#F24139"/>
<path d="M149.132 18.6333C149.132 18.6333 150.096 18.9669 149.293 20.0405C148.181 21.5285 151.042 19.7401 151.042 19.7401C151.238 18.1659 149.704 18.4719 149.132 18.6333Z" fill="#F24139"/>
<path fill-rule="evenodd" clip-rule="evenodd" d="M137.647 34.9315C145.757 34.9315 152.343 28.3053 152.343 20.1176C152.343 11.9299 145.757 5.30375 137.647 5.30375C129.537 5.30375 122.951 11.9299 122.951 20.1176C122.951 28.3053 129.537 34.9315 137.647 34.9315ZM137.647 35.7647C146.224 35.7647 153.176 28.7593 153.176 20.1176C153.176 11.476 146.224 4.47059 137.647 4.47059C129.07 4.47059 122.118 11.476 122.118 20.1176C122.118 28.7593 129.07 35.7647 137.647 35.7647Z" fill="#F24139"/>
</svg>
