<?xml version="1.0" encoding="UTF-8"?>
<svg id="Camada_1" xmlns="http://www.w3.org/2000/svg" version="1.1" xmlns:xlink="http://www.w3.org/1999/xlink" viewBox="0 0 24 25">
  <!-- Generator: Adobe Illustrator 29.1.0, SVG Export Plug-In . SVG Version: 2.1.0 Build 142)  -->
  <defs>
    <style>
      .st0 {
        fill: none;
      }

      .st1 {
        fill: #141414;
        fill-rule: evenodd;
      }

      .st2 {
        clip-path: url(#clippath);
      }
    </style>
    <clipPath id="clippath">
      <rect class="st0" y=".5" width="24" height="24"/>
    </clipPath>
  </defs>
  <g class="st2">
    <path class="st1" d="M24,12.5c0,6.6-5.4,12-12,12S0,19.1,0,12.5,5.4.5,12,.5s12,5.4,12,12ZM19.7,11.6c.2.3.3.6.3.9,0,.3,0,.7-.3.9-.2.3-.4.5-.7.7,0,.2,0,.4,0,.5,0,2.7-3.1,4.9-7,4.9s-7-2.2-7-4.9c0-.2,0-.4,0-.5-.2-.1-.4-.3-.6-.5s-.3-.4-.3-.7c0-.2,0-.5,0-.7,0-.2.1-.5.3-.7.1-.2.3-.4.5-.5.2-.1.5-.2.7-.2.3,0,.5,0,.7,0,.2,0,.5.2.6.4,1.4-.9,3-1.5,4.7-1.5l.9-4.2s0,0,0-.1c0,0,0,0,.1-.1,0,0,0,0,.1,0s0,0,.1,0l2.9.6c.1-.2.4-.4.6-.5.3,0,.6,0,.8,0,.3.1.5.3.6.5.1.3.2.5.1.8s-.2.5-.4.7c-.2.2-.5.3-.8.2-.3,0-.6-.1-.8-.3-.2-.2-.3-.5-.4-.7l-2.6-.5-.8,3.7c1.7,0,3.3.5,4.6,1.5.2-.2.4-.3.6-.4.2,0,.5-.1.7,0,.3,0,.5.1.7.2.2.1.4.3.6.5ZM8.2,13c0,.1-.1.3-.2.4,0,.2,0,.3,0,.5,0,.3.2.6.5.8.3.2.6.2.9.2.2,0,.3,0,.4-.2.1,0,.2-.2.3-.3.2-.3.2-.6.2-.9,0-.3-.2-.6-.5-.8-.3-.2-.6-.2-.9-.2-.3,0-.6.2-.8.5ZM12,17.9c1.1,0,2.1-.2,3-.9,0,0,.1-.1.1-.2,0,0,0-.2,0-.2,0,0,0,0-.1,0,0,0,0,0-.1,0,0,0-.2,0-.2,0-.7.5-1.6.8-2.5.7-.9,0-1.8-.2-2.5-.8,0,0-.1,0-.2,0,0,0-.2,0-.2,0,0,0,0,.1,0,.2,0,0,0,.2,0,.2.9.6,1.9,1,3,.9ZM14.1,14.7c.2.1.4.2.7.2.2,0,.3,0,.5,0s.3-.2.4-.3c.1-.1.2-.3.3-.4,0-.2,0-.3,0-.5,0-.2,0-.4-.2-.6-.1-.2-.2-.3-.4-.4-.2-.1-.4-.2-.6-.2-.2,0-.4,0-.6.1-.2,0-.3.2-.4.4-.1.2-.2.4-.2.6,0,.2,0,.4.1.6,0,.2.2.3.4.5Z"/>
  </g>
</svg>