<?xml version="1.0" encoding="UTF-8"?>
<svg id="Camada_1" xmlns="http://www.w3.org/2000/svg" version="1.1" viewBox="0 0 24 25">
  <!-- Generator: Adobe Illustrator 29.1.0, SVG Export Plug-In . SVG Version: 2.1.0 Build 142)  -->
  <defs>
    <style>
      .st0 {
        fill: #141414;
      }
    </style>
  </defs>
  <path class="st0" d="M19.6,7.2c-1-.2-1.9-.7-2.6-1.5-.7-.8-1.1-1.7-1.2-2.7v-.4h-3.4v13.7c0,.6-.2,1.2-.5,1.7-.4.5-.9.9-1.4,1.1-.6.2-1.2.2-1.8,0-.6-.2-1.1-.5-1.5-1-.3-.4-.5-.9-.6-1.5,0-.5,0-1.1.3-1.6.2-.5.6-.9,1.1-1.2.5-.3,1-.4,1.5-.4.3,0,.6,0,.9.1v-3.5c-.3,0-.7,0-1,0-1.2,0-2.4.4-3.4,1.1-1,.7-1.8,1.7-2.3,2.8-.5,1.1-.6,2.4-.3,3.6.2,1.2.8,2.3,1.7,3.2.9.9,2,1.5,3.2,1.8,1.2.3,2.5.1,3.7-.3,1.2-.5,2.2-1.3,2.9-2.3.7-1,1.1-2.3,1.1-3.5v-7c1.4,1,3.1,1.5,4.8,1.5v-3.4c-.3,0-.7,0-1,0h0Z"/>
</svg>