<?xml version="1.0" encoding="UTF-8"?>
<svg id="Camada_1" xmlns="http://www.w3.org/2000/svg" version="1.1" xmlns:xlink="http://www.w3.org/1999/xlink" viewBox="0 0 24 25">
  <!-- Generator: Adobe Illustrator 29.1.0, SVG Export Plug-In . SVG Version: 2.1.0 Build 142)  -->
  <defs>
    <style>
      .st0 {
        fill: #141414;
      }

      .st1 {
        fill: none;
      }

      .st2 {
        clip-path: url(#clippath);
      }
    </style>
    <clipPath id="clippath">
      <rect class="st1" y=".5" width="24" height="24"/>
    </clipPath>
  </defs>
  <g class="st2">
    <path class="st0" d="M20.3,5c-1.5-.7-3.2-1.2-4.9-1.5,0,0,0,0,0,0,0,0,0,0,0,0-.2.4-.4.8-.6,1.2-1.8-.3-3.7-.3-5.5,0-.2-.4-.4-.8-.6-1.2,0,0,0,0,0,0,0,0,0,0,0,0-1.7.3-3.4.8-4.9,1.5,0,0,0,0,0,0C.5,9.6-.3,14.1,0,18.5c0,0,0,0,0,0,0,0,0,0,0,0,1.8,1.3,3.8,2.3,6,3,0,0,0,0,0,0,0,0,0,0,0,0,.5-.6.9-1.3,1.2-2,0,0,0,0,0-.1-.6-.2-1.3-.5-1.9-.9,0,0,0,0,0,0,0,0,0,0,0,0,0,0,0,0,0,0,0,0,0,0,0,0,.1,0,.3-.2.4-.3,0,0,0,0,0,0,0,0,0,0,0,0,3.9,1.8,8.2,1.8,12.1,0,0,0,0,0,0,0,0,0,0,0,0,0,.1,0,.2.2.4.3,0,0,0,0,0,0,0,0,0,0,0,0,0,0,0,0,0,0,0,0,0,0,0,0-.6.3-1.2.6-1.9.9,0,0,0,0,0,0,0,0,0,0,0,0,0,0,0,0,0,0,0,0,0,0,0,0,.4.7.8,1.3,1.2,2,0,0,0,0,0,0,0,0,0,0,0,0,2.2-.6,4.2-1.7,6-3,0,0,0,0,0,0,0,0,0,0,0,0,.5-5.1-.8-9.5-3.5-13.4,0,0,0,0,0,0ZM8,15.8c-1.2,0-2.2-1.1-2.2-2.4s1-2.4,2.2-2.4,2.2,1.1,2.2,2.4c0,1.3-1,2.4-2.2,2.4ZM16,15.8c-1.2,0-2.2-1.1-2.2-2.4s1-2.4,2.2-2.4,2.2,1.1,2.2,2.4c0,1.3-.9,2.4-2.2,2.4Z"/>
  </g>
</svg>