<?xml version="1.0" encoding="UTF-8"?><svg id="a" xmlns="http://www.w3.org/2000/svg" viewBox="0 0 240.02 53.14"><defs><style>.b{fill:#fff;}.c{fill:#e6646e;}.d{fill:#5d5360;}.e{isolation:isolate;opacity:.35;}.e,.f{fill:#4e3f3f;}.g{fill:#a16552;}.h{fill:#f5dcb4;}</style></defs><path class="g" d="M7.25,19.3c-.44,1.59-.66,3.23-.67,4.88v.34c.01,1.99-.21,3.98-.67,5.92-.92-.33-1.86-.99-2.77-2.13-2.38-3.01-1.59-7.84,1.34-8.97,1.11-.43,2.04-.34,2.76-.06v.02Z"/><path class="h" d="M7.25,19.3c-.44,1.59-.66,3.23-.67,4.88v.34c.01,1.99-.21,3.98-.67,5.92-.92-.33-1.86-.99-2.77-2.13-2.38-3.01-1.59-7.84,1.34-8.97,1.11-.43,2.04-.34,2.76-.06v.02Z"/><path class="g" d="M51.03,28.32c-.9,1.14-1.85,1.8-2.77,2.13-.46-1.94-.68-3.93-.67-5.92v-.34c0-1.66-.23-3.3-.67-4.9,.72-.28,1.65-.37,2.76,.06,2.93,1.13,3.72,5.96,1.35,8.97Z"/><path class="h" d="M51.03,28.32c-.9,1.14-1.85,1.8-2.77,2.13-.46-1.94-.68-3.93-.67-5.92v-.34c0-1.66-.23-3.3-.67-4.9,.72-.28,1.65-.37,2.76,.06,2.93,1.13,3.72,5.96,1.35,8.97Z"/><path class="g" d="M41.9,30.51c-.87,1.35-1.09,3.02-.58,4.55,.39,1.15,.74,2.45,.74,3.41,0,7.07-6.7,12.8-14.97,12.8s-14.97-5.73-14.97-12.8c0-.97,.35-2.26,.74-3.41,.51-1.53,.29-3.2-.58-4.55-.84-1.32-1.29-2.85-1.29-4.41,0-4.69,4-8.5,8.93-8.5,1.59,0,3.16,.4,4.55,1.19,1.63,.93,3.62,.93,5.25,0,1.39-.78,2.95-1.19,4.55-1.18,4.93,0,8.93,3.81,8.93,8.5,0,1.17-.25,2.33-.74,3.4-.16,.35-.34,.69-.55,1.01Z"/><path class="h" d="M41.9,30.51c-.87,1.35-1.09,3.02-.58,4.55,.39,1.15,.74,2.45,.74,3.41,0,7.07-6.7,12.8-14.97,12.8s-14.97-5.73-14.97-12.8c0-.97,.35-2.26,.74-3.41,.51-1.53,.29-3.2-.58-4.55-.84-1.32-1.29-2.85-1.29-4.41,0-4.69,4-8.5,8.93-8.5,1.59,0,3.16,.4,4.55,1.19,1.63,.93,3.62,.93,5.25,0,1.39-.78,2.95-1.19,4.55-1.18,4.93,0,8.93,3.81,8.93,8.5,0,1.17-.25,2.33-.74,3.4-.16,.35-.34,.69-.55,1.01Z"/><path class="f" d="M19.47,40.06c-.47,0-.86,.38-.86,.86,0,.04,0,.08,0,.11,.53,3.79,4.13,6.72,8.48,6.72s7.95-2.93,8.48-6.72c.06-.47-.27-.9-.74-.96-.04,0-.07,0-.11,0h-15.25Z"/><path class="c" d="M22.17,46.34c3.01,1.88,6.83,1.88,9.85,0-.62-2.14-2.59-1.65-4.93-1.65s-4.3-.49-4.92,1.65Z"/><path class="g" d="M50.7,17.76c-1.77-.69-3.18-.32-4.16,.24-.24-.71-.52-1.41-.83-2.09-.23-.5-.48-.99-.74-1.48-2.71-4.96-7.27-9.07-12.49-10.81l-.11-2.82-3.39,2.03-.41-.05c-.25-.02-.5-.04-.75-.05l-.49-2.13-.15-.62c-.17,0-.33,0-.5,.02-3.15,.26-4.72,3.12-4.96,3.61-5.23,1.74-9.78,5.86-12.49,10.81-.27,.48-.51,.98-.74,1.48-.31,.68-.59,1.38-.83,2.09l-.13-.07c-.98-.53-2.34-.83-4.04-.17-3.72,1.44-4.73,7.58-1.71,11.41,1.23,1.56,2.53,2.41,3.77,2.79-.02,.07-.03,.14-.05,.21-.22,1.03-.34,2.08-.34,3.13,0,7.3,5.39,13.58,13.1,16.35,1.81,.65,3.69,1.09,5.6,1.31,.99,.12,1.99,.18,2.99,.19h.24c12.11,0,21.93-7.99,21.93-17.85,0-1.05-.11-2.1-.34-3.13-.02-.07-.03-.14-.05-.21,1.25-.38,2.54-1.23,3.77-2.79,3.02-3.82,2.01-9.96-1.71-11.4Zm-43.45,1.54c-.44,1.59-.66,3.23-.67,4.88v.34c.01,1.99-.21,3.98-.67,5.92-.92-.33-1.86-.99-2.77-2.13-2.38-3.01-1.59-7.84,1.34-8.97,1.11-.43,2.04-.34,2.76-.06v.02Zm35.2,10.19c-.16,.35-.34,.69-.55,1.01-.87,1.35-1.09,3.02-.58,4.55,.39,1.15,.74,2.45,.74,3.41,0,7.07-6.7,12.8-14.97,12.8s-14.97-5.73-14.97-12.8c0-.97,.35-2.26,.74-3.41,.51-1.53,.29-3.2-.58-4.55-.84-1.32-1.29-2.85-1.29-4.41,0-4.69,4-8.5,8.93-8.5,1.59,0,3.16,.4,4.55,1.19,1.63,.93,3.62,.93,5.25,0,1.39-.78,2.95-1.19,4.55-1.18,4.93,0,8.93,3.81,8.93,8.5,0,1.17-.25,2.33-.74,3.4Zm8.58-1.18c-.9,1.14-1.85,1.8-2.77,2.13-.46-1.94-.68-3.93-.67-5.92v-.34c0-1.66-.23-3.3-.67-4.9,.72-.28,1.65-.37,2.76,.06,2.93,1.13,3.72,5.96,1.35,8.97Z"/><rect class="f" x="24.13" y="32.72" width="1.44" height="3.27" rx=".7" ry=".7" transform="translate(-16.73 42.69) rotate(-65.45)"/><rect class="f" x="27.7" y="33.64" width="3.27" height="1.44" rx=".7" ry=".7" transform="translate(-11.62 15.29) rotate(-24.55)"/><path class="f" d="M19.4,29.49h0c-1.42,0-2.56-1.09-2.56-2.43v-.81c0-1.34,1.15-2.43,2.56-2.43h0c1.42,0,2.56,1.09,2.56,2.43v.81c0,1.34-1.15,2.43-2.56,2.43Z"/><path class="d" d="M19.4,23.82v2.83c.03,.71,.63,1.26,1.34,1.22,.66-.03,1.19-.56,1.22-1.22v-.4c0-1.35-1.15-2.43-2.56-2.43Z"/><ellipse class="b" cx="19.4" cy="25.44" rx=".86" ry=".81"/><path class="f" d="M34.78,29.49h0c-1.42,0-2.56-1.09-2.56-2.43v-.81c0-1.34,1.15-2.43,2.56-2.43h0c1.42,0,2.56,1.09,2.56,2.43v.81c0,1.34-1.15,2.43-2.56,2.43Z"/><path class="d" d="M34.78,23.82v2.83c.04,.71,.65,1.25,1.35,1.21,.65-.04,1.17-.56,1.21-1.21v-.4c0-1.35-1.15-2.43-2.56-2.43Z"/><ellipse class="b" cx="34.78" cy="25.44" rx=".86" ry=".81"/><path class="e" d="M27.32,.62c-.57-.06-1.83,.85-3.33,2.41-.37,.39-.77,.82-1.17,1.29-2.95,3.46-6.37,8.91-7.54,14.5-1.96,9.39-2.76,20.28,.7,26.33,2.94,5.12,7.87,7.8,7.87,7.8-1.91-.23-3.79-.67-5.6-1.31-7.71-2.76-13.1-9.04-13.1-16.34,0-1.05,.11-2.1,.34-3.13,.01-.07,.03-.14,.05-.21-1.25-.39-2.54-1.23-3.77-2.78-3.02-3.82-2.01-9.96,1.71-11.4,1.7-.66,3.06-.35,4.04,.17l.13,.07c.24-.71,.52-1.41,.83-2.09,.23-.5,.48-.99,.74-1.48,2.71-4.96,7.26-9.08,12.49-10.82,.25-.49,1.81-3.35,4.96-3.61,.16-.02,.32-.02,.5-.02l.15,.62Z"/><path class="g" d="M73.89,40.25c-.66,.26-1.85,.38-3.57,.38s-3.15-.16-4.29-.47c-1.15-.31-1.72-.71-1.72-1.2,0-.56,1.03-4.11,3.1-10.66,2.06-6.55,3.25-10.33,3.55-11.32,.12-.3,1.05-.55,2.8-.75,1.87-.2,3.75-.3,5.64-.3,2.01,0,3.12,.35,3.33,1.04,4.38,14.57,6.58,21.97,6.58,22.2s-.14,.46-.42,.7c-.65,.51-1.94,.77-3.86,.77-4.11,0-6.21-.49-6.3-1.47l-.24-2.26h-3.35l-.17,1.95c-.05,.67-.4,1.14-1.07,1.39Zm3.84-9.95l-.52-6.26h-.77l-.59,6.26h1.88Z"/><path class="g" d="M91.55,44.85V22.72c0-.49,.65-.99,1.95-1.5,1.34-.52,2.77-.78,4.21-.77,.7,0,1.24,.08,1.64,.24s.64,.32,.73,.49,.27,.86,.52,2.09h.28c.05-.21,.25-.53,.63-.97,.33-.4,.71-.77,1.13-1.08,.38-.28,.93-.53,1.65-.75,.82-.23,1.67-.35,2.52-.33,.92-.01,1.82,.21,2.63,.64,.79,.43,1.37,.93,1.76,1.5,.42,.66,.73,1.39,.9,2.16,.19,.68,.31,1.38,.38,2.09,.04,.52,.05,1.28,.05,2.26s-.04,1.96-.11,2.92c-.07,.99-.2,1.97-.38,2.94-.15,.89-.42,1.76-.8,2.57-.34,.71-.79,1.37-1.32,1.95-1.07,1.16-2.63,1.74-4.7,1.74-.67,.01-1.34-.1-1.97-.33-.57-.22-.99-.48-1.27-.78-.58-.63-.92-1.18-1.01-1.67l-.03-.35h-.28l.49,3.13v3.93c0,.26-.67,.46-2,.61-1.36,.15-2.73,.23-4.1,.23-1.4,0-2.34-.06-2.8-.19-.47-.13-.71-.34-.71-.65Zm11.24-18.55c-.21-.79-.52-1.18-.94-1.18-.42,0-.72,.23-.9,.7v9.12c0,.6,.31,.91,.94,.91,.81,0,1.22-1.8,1.22-5.39,0-1.97-.1-3.35-.31-4.14Z"/><path class="g" d="M124.46,32.77c0,1.51,.72,2.26,2.16,2.26,.83,0,1.92-.28,3.27-.85,1.35-.57,2.05-.85,2.12-.85,.44,0,1.02,.66,1.74,1.98,.72,1.32,1.08,2.3,1.08,2.92,0,.91-.93,1.59-2.78,2.05-1.78,.45-3.61,.69-5.45,.7-1.78,0-3.26-.14-4.45-.42-1.19-.28-2.17-.63-2.92-1.07-1.38-.8-2.51-1.96-3.26-3.37-.29-.61-.52-1.24-.67-1.9-.23-1.04-.35-2.1-.35-3.17,0-4.22,1.1-7.13,3.31-8.73,1.09-.81,2.33-1.39,3.65-1.7,1.35-.32,2.93-.49,4.77-.49,5.87,0,8.8,2.04,8.8,6.13,0,4.34-3.29,6.51-9.88,6.51h-1.14Zm-.07-5.08v2.3c.65,.01,1.26-.28,1.65-.8,.44-.55,.66-1.24,.64-1.95,0-1.39-.36-2.09-1.08-2.09-.81,0-1.22,.85-1.22,2.54Z"/><path class="g" d="M156.16,39.18c-.7,.51-1.67,.93-2.91,1.27-1.24,.34-2.84,.5-4.79,.5-1.87,0-3.74-.16-5.59-.49-1.76-.32-3.03-.68-3.79-1.08-.77-.39-1.15-.78-1.15-1.15,0-1.37,.2-2.73,.56-4.05,.37-1.4,.81-2.11,1.32-2.11,.09,0,1.05,.31,2.89,.94,1.84,.63,3.22,.94,4.14,.93,.93,0,1.53-.1,1.81-.3,.28-.19,.43-.52,.42-.85,0-.37-.26-.7-.77-.99-.61-.33-1.25-.58-1.91-.76-.85-.25-1.68-.57-2.49-.96-.86-.4-1.7-.86-2.49-1.39-.81-.56-1.46-1.3-1.91-2.17-.52-.99-.79-2.1-.77-3.22,0-5.15,3.07-7.72,9.22-7.72,2.3,0,4.28,.14,5.95,.43,1.67,.29,2.85,.61,3.53,.97,.68,.36,1.03,.71,1.03,1.07,0,1.21-.28,2.5-.85,3.9-.57,1.39-1.12,2.09-1.65,2.09-.09,0-.39-.1-.9-.31-1.53-.67-2.8-1.01-3.81-1.01-1.01,0-1.69,.09-2.05,.28-.34,.15-.55,.49-.54,.85,0,.38,.25,.7,.76,.94,.61,.28,1.24,.5,1.9,.67,.85,.23,1.67,.53,2.47,.91,.87,.39,1.71,.87,2.49,1.43,.77,.54,1.4,1.32,1.91,2.31,.51,1,.76,2.16,.77,3.48,.01,1.34-.36,2.66-1.08,3.79-.45,.7-1.03,1.31-1.71,1.8Z"/><path class="g" d="M188.14,39.8c-.3,.56-1.87,.84-4.71,.84s-4.32-.28-4.44-.84l-1.18-6.33h-.49l-1.11,6.33c-.07,.56-2.1,.84-6.09,.84-1.11,0-1.85-.06-2.21-.19-.33-.1-.6-.33-.75-.64-4.31-10.6-6.47-16.18-6.47-16.74s.84-1.13,2.52-1.72c1.56-.57,3.2-.87,4.85-.89,2,0,3.03,.53,3.1,1.6l1.18,9.53h.42l.42-7.69c.02-.58,.61-1.09,1.77-1.53,1.12-.43,2.31-.66,3.51-.67,1.18,0,2.07,.14,2.66,.43s.9,.64,.92,1.07l.38,8.39h.38l1.15-8.95c.07-.56,.85-1.06,2.35-1.51,1.5-.45,2.81-.68,3.95-.68,1.14,0,2.03,.16,2.68,.49,1.07,.51,1.6,1.11,1.6,1.81,0,.07-1.05,2.9-3.15,8.49-2.1,5.59-3.18,8.45-3.25,8.57Z"/><path class="g" d="M201.85,40.95c-2.11,0-3.77-.5-4.98-1.5-.49-.42-.91-1.03-1.27-1.84-.36-.81-.54-1.76-.54-2.85-.02-1.01,.25-2,.78-2.85,.48-.77,1.13-1.42,1.9-1.88,.82-.47,1.7-.84,2.61-1.08,1.63-.41,3.3-.61,4.98-.59h1.15c0-.95-.32-1.62-.97-2.02-.28-.16-.7-.24-1.27-.24s-1.25,.15-2.05,.45c-.69,.25-1.36,.56-2,.92-.53,.31-.89,.47-1.08,.47-.42,0-.99-.55-1.7-1.65-.72-1.1-1.08-2.11-1.08-3.01,0-.3,.43-.7,1.29-1.18s2.07-.93,3.64-1.34c1.49-.4,3.03-.6,4.57-.61,1.29-.02,2.58,.1,3.85,.36,.91,.19,1.8,.49,2.65,.89,.67,.34,1.26,.81,1.74,1.39,.41,.48,.77,1.01,1.08,1.56,.27,.57,.45,1.18,.53,1.81,.18,1.05,.26,2.11,.24,3.17v10.47c0,.26-.62,.46-1.86,.61-1.22,.15-2.46,.23-3.69,.23-1.22,0-2.01-.03-2.37-.1-.36-.07-.57-.15-.64-.24-.09-.15-.15-.31-.17-.49l-.28-1.98h-.28c-.58,2.08-2.17,3.12-4.77,3.12Zm4.66-5.78v-4.07c-.59,0-1.14,.28-1.47,.76-.37,.5-.56,1.12-.56,1.74,0,1.53,.35,2.3,1.04,2.3,.26,.01,.51-.07,.71-.23,.16-.12,.26-.31,.27-.5h0Z"/><path class="g" d="M219.03,44.85V22.72c0-.49,.65-.99,1.95-1.5,1.34-.52,2.77-.78,4.21-.77,.7,0,1.24,.08,1.64,.24s.64,.32,.73,.49,.27,.86,.52,2.09h.28c.05-.21,.26-.53,.63-.97,.33-.4,.71-.77,1.13-1.08,.38-.28,.93-.53,1.65-.75,.82-.23,1.67-.34,2.52-.33,.92-.01,1.82,.21,2.63,.64,.79,.43,1.37,.93,1.76,1.5,.42,.66,.73,1.39,.9,2.16,.19,.68,.32,1.38,.38,2.09,.03,.52,.05,1.28,.05,2.26,0,.99-.03,1.96-.1,2.92-.07,.99-.2,1.97-.38,2.94-.15,.89-.42,1.76-.8,2.57-.34,.71-.79,1.37-1.32,1.95-1.07,1.16-2.63,1.74-4.7,1.74-.67,.01-1.34-.1-1.97-.33-.57-.22-.99-.48-1.27-.78-.58-.63-.92-1.18-1.01-1.67l-.03-.35h-.28l.49,3.13v3.93c0,.26-.67,.46-2,.61-1.36,.15-2.73,.23-4.11,.23-1.4,0-2.34-.06-2.8-.19-.47-.13-.7-.34-.7-.65Zm11.24-18.55c-.21-.79-.52-1.18-.93-1.18-.41,0-.71,.23-.91,.7v9.12c0,.6,.31,.91,.94,.91,.81,0,1.22-1.8,1.22-5.39,0-1.97-.11-3.35-.32-4.14Z"/></svg>