<?xml version="1.0" encoding="UTF-8"?>
<svg id="Camada_1" xmlns="http://www.w3.org/2000/svg" version="1.1" viewBox="0 0 22 23">
  <!-- Generator: Adobe Illustrator 29.1.0, SVG Export Plug-In . SVG Version: 2.1.0 Build 142)  -->
  <defs>
    <style>
      .st0 {
        fill: #141414;
        fill-rule: evenodd;
      }
    </style>
  </defs>
  <path class="st0" d="M6.5.6c1.2,0,1.5,0,4.5,0s3.4,0,4.5,0c1.2,0,2,.2,2.7.5.7.3,1.4.7,1.9,1.3.6.5,1,1.2,1.3,1.9.3.7.5,1.5.5,2.7,0,1.2,0,1.5,0,4.5s0,3.4,0,4.5c0,1.2-.2,2-.5,2.7-.3.7-.7,1.4-1.3,1.9-.5.6-1.2,1-1.9,1.3-.7.3-1.5.5-2.7.5-1.2,0-1.5,0-4.5,0s-3.4,0-4.5,0c-1.2,0-2-.2-2.7-.5-.7-.3-1.4-.7-1.9-1.3-.6-.5-1-1.2-1.3-1.9-.3-.7-.5-1.5-.5-2.7,0-1.2,0-1.5,0-4.5s0-3.4,0-4.5c0-1.2.2-2,.5-2.7.3-.7.7-1.4,1.3-1.9.5-.6,1.2-1,1.9-1.3.7-.3,1.5-.5,2.7-.5h0ZM15.4,2.5c-1.2,0-1.5,0-4.4,0s-3.3,0-4.4,0c-1.1,0-1.7.2-2,.4-.5.2-.9.4-1.3.8-.4.4-.6.8-.8,1.3-.2.4-.3,1-.4,2,0,1.2,0,1.5,0,4.4s0,3.3,0,4.4c0,1.1.2,1.7.4,2,.2.5.5.9.8,1.3.4.4.8.6,1.3.8.4.2,1,.3,2,.4,1.2,0,1.5,0,4.4,0s3.3,0,4.4,0c1.1,0,1.7-.2,2-.4.5-.2.9-.4,1.3-.8.4-.4.6-.8.8-1.3.2-.4.3-1,.4-2,0-1.2,0-1.5,0-4.4s0-3.3,0-4.4c0-1.1-.2-1.7-.4-2-.2-.5-.4-.9-.8-1.3-.4-.4-.8-.6-1.3-.8-.4-.2-1-.3-2-.4ZM9.6,14.9c.8.3,1.7.4,2.5.1.8-.2,1.5-.8,2-1.5.5-.7.7-1.6.6-2.4,0-.8-.5-1.6-1.1-2.2-.4-.4-.8-.7-1.4-.9-.5-.2-1.1-.2-1.6-.2-.5,0-1.1.2-1.5.5-.5.3-.9.7-1.2,1.1-.3.5-.5,1-.6,1.5,0,.5,0,1.1.1,1.6.2.5.4,1,.8,1.4.4.4.8.7,1.3.9ZM7,7.5c.5-.5,1.1-.9,1.8-1.2s1.4-.4,2.2-.4,1.5.1,2.2.4,1.3.7,1.8,1.2c.5.5.9,1.1,1.2,1.8.3.7.4,1.4.4,2.2s-.1,1.5-.4,2.2c-.3.7-.7,1.3-1.2,1.8-1.1,1.1-2.5,1.7-4,1.7s-2.9-.6-4-1.7-1.7-2.5-1.7-4,.6-2.9,1.7-4ZM17.9,6.7c.1-.1.2-.3.3-.4,0-.2.1-.3.1-.5s0-.4,0-.5c0-.2-.2-.3-.3-.4-.1-.1-.3-.2-.4-.3-.2,0-.3-.1-.5,0-.2,0-.4,0-.5.1-.2,0-.3.2-.4.3-.2.3-.4.6-.4.9,0,.3.1.7.4.9.2.2.6.4.9.4s.7-.1.9-.4Z"/>
</svg>