<?xml version="1.0" encoding="UTF-8"?>
<svg xmlns="http://www.w3.org/2000/svg" version="1.1" xmlns:inkscape="http://www.inkscape.org/namespaces/inkscape" xmlns:sodipodi="http://sodipodi.sourceforge.net/DTD/sodipodi-0.dtd" xmlns:svg="http://www.w3.org/2000/svg" viewBox="0 0 24 25">
  <!-- Generator: Adobe Illustrator 29.1.0, SVG Export Plug-In . SVG Version: 2.1.0 Build 142)  -->
  <defs>
    <style>
      .st0 {
        fill: #141414;
      }
    </style>
  </defs>
  <g id="svg217" sodipodi:docname="icon-discord.svg">
    <sodipodi:namedview id="namedview219" bordercolor="#000000" borderopacity="0.25" inkscape:current-layer="svg217" inkscape:cx="12.007168" inkscape:cy="12.514934" inkscape:deskcolor="#d1d1d1" inkscape:pagecheckerboard="0" inkscape:pageopacity="0.0" inkscape:showpageshadow="2" inkscape:window-height="1017" inkscape:window-maximized="1" inkscape:window-width="1920" inkscape:window-x="-8" inkscape:window-y="-8" inkscape:zoom="33.48" pagecolor="#ffffff" showgrid="false"/>
    <g id="layer1">
      <path id="path5" class="st0" d="M24,5.3c-.9.4-1.8.7-2.8.8,1-.6,1.8-1.6,2.2-2.7-.9.6-2,1-3.1,1.2-.9-1-2.2-1.6-3.6-1.6-2.7,0-4.9,2.2-4.9,4.9s0,.8.1,1.1c-4.1-.2-7.7-2.2-10.1-5.1-.4.7-.7,1.6-.7,2.5,0,1.7.9,3.2,2.2,4.1-.8,0-1.6-.2-2.2-.6h0c0,2.5,1.7,4.5,3.9,4.9-.4.1-.8.2-1.3.2s-.6,0-.9-.1c.6,2,2.4,3.4,4.6,3.4-1.7,1.3-3.8,2.1-6.1,2.1s-.8,0-1.2-.1c2.2,1.4,4.8,2.2,7.5,2.2,9,0,14-7.5,14-14v-.6c.9-.7,1.7-1.6,2.4-2.6h0Z"/>
    </g>
  </g>
</svg>