<?xml version="1.0" encoding="UTF-8"?>
<svg id="Camada_1" xmlns="http://www.w3.org/2000/svg" version="1.1" xmlns:xlink="http://www.w3.org/1999/xlink" viewBox="0 0 24 25">
  <!-- Generator: Adobe Illustrator 29.1.0, SVG Export Plug-In . SVG Version: 2.1.0 Build 142)  -->
  <defs>
    <style>
      .st0 {
        fill: #141414;
      }

      .st1 {
        fill: none;
      }

      .st2 {
        clip-path: url(#clippath);
      }
    </style>
    <clipPath id="clippath">
      <rect class="st1" y=".5" width="24" height="24"/>
    </clipPath>
  </defs>
  <g class="st2">
    <path class="st0" d="M23.5,7c-.1-.5-.4-.9-.8-1.3-.4-.4-.8-.6-1.3-.7-1.9-.5-9.4-.5-9.4-.5-3.1,0-6.3.1-9.4.5-.5.1-1,.4-1.3.8-.4.4-.6.8-.8,1.3C.2,8.8,0,10.7,0,12.5c0,1.8.2,3.7.5,5.5.1.5.4.9.8,1.3.4.4.8.6,1.3.7,1.9.5,9.4.5,9.4.5,3.1,0,6.3-.1,9.4-.5.5-.1,1-.4,1.3-.7.4-.4.6-.8.8-1.3.3-1.8.5-3.7.5-5.5,0-1.9-.1-3.7-.5-5.5h0ZM9.6,15.9v-6.8l6.3,3.4-6.3,3.4Z"/>
  </g>
</svg>