<?xml version="1.0" encoding="utf-8"?>
<!-- Generator: Adobe Illustrator 26.1.0, SVG Export Plug-In . SVG Version: 6.00 Build 0)  -->
<svg version="1.1" id="Layer_1" xmlns="http://www.w3.org/2000/svg" xmlns:xlink="http://www.w3.org/1999/xlink" x="0px" y="0px"
	 viewBox="0 0 512 512" style="enable-background:new 0 0 512 512;" xml:space="preserve">
<style type="text/css">
	.st0{fill:#F24139;}
</style>
<g>
	<g>
		<path class="st0" d="M440.4,87.8H114.6l52.5-52.5c8.1-8.1,8.1-21.2,0-29.3C159-2,145.9-2,137.8,6.1L20.1,123.8
			c-8.1,8.1-8.1,21.2,0,29.3l117.7,117.7c4,4,9.3,6.1,14.6,6.1s10.6-2,14.6-6.1c8.1-8.1,8.1-21.2,0-29.3L114.6,189h325.8
			c27.9,0,50.6-22.7,50.6-50.6C491,110.5,468.3,87.8,440.4,87.8z"/>
	</g>
</g>
<g>
	<g>
		<path class="st0" d="M491.9,358.9L374.2,241.2c-8.1-8.1-21.2-8.1-29.3,0s-8.1,21.2,0,29.3l52.5,52.5H71.6
			C43.7,323,21,345.7,21,373.6s22.7,50.6,50.6,50.6h325.8l-52.5,52.5c-8.1,8.1-8.1,21.2,0,29.3c4,4,9.3,6.1,14.6,6.1
			s10.6-2,14.6-6.1l117.7-117.7C500,380.1,500,367,491.9,358.9z"/>
	</g>
</g>
</svg>
