<?xml version="1.0" encoding="UTF-8"?>
<svg id="Camada_1" xmlns="http://www.w3.org/2000/svg" version="1.1" viewBox="0 0 27 22">
  <!-- Generator: Adobe Illustrator 29.1.0, SVG Export Plug-In . SVG Version: 2.1.0 Build 142)  -->
  <defs>
    <style>
      .st0 {
        fill: #141414;
      }
    </style>
  </defs>
  <path class="st0" d="M8.5,22c10.2,0,15.8-8.5,15.8-15.8s0-.5,0-.7c1.1-.8,2-1.8,2.8-2.9-1,.5-2.1.7-3.2.9,1.2-.7,2-1.8,2.4-3.1-1.1.6-2.3,1.1-3.5,1.3-.8-.9-1.9-1.5-3.1-1.7-1.2-.2-2.4,0-3.5.6-1.1.6-1.9,1.5-2.4,2.6-.5,1.1-.6,2.4-.4,3.6-2.2-.1-4.4-.7-6.3-1.7-2-1-3.7-2.4-5.1-4.1-.7,1.2-.9,2.7-.6,4,.3,1.4,1.1,2.6,2.3,3.4-.9,0-1.7-.3-2.5-.7h0c0,1.4.4,2.6,1.3,3.6.8,1,1.9,1.7,3.2,1.9-.8.2-1.7.3-2.5,0,.4,1.1,1,2.1,2,2.8.9.7,2,1.1,3.2,1.1-2,1.5-4.4,2.4-6.9,2.4-.4,0-.9,0-1.3,0,2.5,1.6,5.5,2.5,8.5,2.5Z"/>
</svg>